EncodeSansSemiCondensed-Black.ufo
<glyph name="exclam" format="2">
  <advance width="622.0"/>
  <unicode hex="0021"/>
  <outline>
    <contour>
      <point x="190.0" y="532.0" type="line"/>
      <point x="436.5" y="532.0" type="line"/>
      <point x="528.0" y="996.0" type="line"/>
      <point x="528.0" y="1480.0" type="line"/>
      <point x="94.0" y="1480.0" type="line"/>
      <point x="94.0" y="996.0" type="line"/>
    </contour>
    <contour>
      <point x="311.0" y="-20.0" type="curve" smooth="yes"/>
      <point x="464.5" y="-20.0"/>
      <point x="568.0" y="75.5"/>
      <point x="568.0" y="216.0" type="curve" smooth="yes"/>
      <point x="568.0" y="356.5"/>
      <point x="468.5" y="452.0"/>
      <point x="311.0" y="452.0" type="curve" smooth="yes"/>
      <point x="153.5" y="452.0"/>
      <point x="54.0" y="360.5"/>
      <point x="54.0" y="216.0" type="curve" smooth="yes"/>
      <point x="54.0" y="71.5"/>
      <point x="157.5" y="-20.0"/>
    </contour>
  </outline>
</glyph>
<glyph name="quotedbl" format="2">
  <advance width="956.0"/>
  <unicode hex="0022"/>
  <outline>
    <contour>
      <point x="115.5" y="805.0" type="line"/>
      <point x="365.5" y="805.0" type="line"/>
      <point x="441.0" y="1616.0" type="line"/>
      <point x="40.0" y="1616.0" type="line"/>
    </contour>
    <contour>
      <point x="590.5" y="805.0" type="line"/>
      <point x="840.5" y="805.0" type="line"/>
      <point x="916.0" y="1616.0" type="line"/>
      <point x="515.0" y="1616.0" type="line"/>
    </contour>
  </outline>
</glyph>
<glyph name="numbersign" format="2">
  <advance width="1260.0"/>
  <unicode hex="0023"/>
  <outline>
    <contour>
      <point x="619.5" y="0.0" type="line"/>
      <point x="924.0" y="0.0" type="line"/>
      <point x="1063.0" y="1480.0" type="line"/>
      <point x="758.5" y="1480.0" type="line"/>
    </contour>
    <contour>
      <point x="95.0" y="365.0" type="line"/>
      <point x="1165.0" y="365.0" type="line"/>
      <point x="1165.0" y="666.0" type="line"/>
      <point x="95.0" y="666.0" type="line"/>
    </contour>
    <contour>
      <point x="197.0" y="0.0" type="line"/>
      <point x="501.5" y="0.0" type="line"/>
      <point x="640.5" y="1480.0" type="line"/>
      <point x="336.0" y="1480.0" type="line"/>
    </contour>
    <contour>
      <point x="95.0" y="814.0" type="line"/>
      <point x="1165.0" y="814.0" type="line"/>
      <point x="1165.0" y="1115.0" type="line"/>
      <point x="95.0" y="1115.0" type="line"/>
    </contour>
  </outline>
</glyph>
<glyph name="dollar" format="2">
  <advance width="1132.0"/>
  <unicode hex="0024"/>
  <outline>
    <contour>
      <point x="478.0" y="-20.0" type="curve" smooth="yes"/>
      <point x="874.0" y="-20.0"/>
      <point x="1101.0" y="166.0"/>
      <point x="1101.0" y="458.5" type="curve" smooth="yes"/>
      <point x="1101.0" y="697.5"/>
      <point x="961.5" y="831.0"/>
      <point x="704.5" y="903.0" type="curve" smooth="yes"/>
      <point x="578.5" y="940.0" type="line" smooth="yes"/>
      <point x="467.0" y="974.0"/>
      <point x="443.0" y="1000.5"/>
      <point x="443.0" y="1049.5" type="curve" smooth="yes"/>
      <point x="443.0" y="1110.5"/>
      <point x="496.5" y="1163.5"/>
      <point x="722.5" y="1163.5" type="curve" smooth="yes"/>
      <point x="815.5" y="1163.5"/>
      <point x="933.0" y="1149.5"/>
      <point x="1018.0" y="1127.5" type="curve"/>
      <point x="1018.0" y="1464.0" type="line"/>
      <point x="928.5" y="1485.0"/>
      <point x="810.0" y="1500.0"/>
      <point x="688.0" y="1500.0" type="curve" smooth="yes"/>
      <point x="241.0" y="1500.0"/>
      <point x="31.0" y="1320.5"/>
      <point x="31.0" y="1023.0" type="curve" smooth="yes"/>
      <point x="31.0" y="788.0"/>
      <point x="173.5" y="650.0"/>
      <point x="401.5" y="585.5" type="curve" smooth="yes"/>
      <point x="527.5" y="548.5" type="line" smooth="yes"/>
      <point x="659.5" y="509.0"/>
      <point x="689.0" y="479.0"/>
      <point x="689.0" y="425.5" type="curve" smooth="yes"/>
      <point x="689.0" y="361.0"/>
      <point x="638.0" y="316.5"/>
      <point x="468.0" y="316.5" type="curve" smooth="yes"/>
      <point x="349.5" y="316.5"/>
      <point x="193.5" y="341.0"/>
      <point x="76.0" y="376.0" type="curve"/>
      <point x="76.0" y="39.5" type="line"/>
      <point x="192.5" y="1.5"/>
      <point x="348.0" y="-20.0"/>
    </contour>
    <contour>
      <point x="376.5" y="-240.0" type="line"/>
      <point x="756.5" y="-240.0" type="line"/>
      <point x="756.5" y="90.0" type="line"/>
      <point x="376.5" y="90.0" type="line"/>
    </contour>
    <contour>
      <point x="376.5" y="1420.0" type="line"/>
      <point x="756.5" y="1420.0" type="line"/>
      <point x="756.5" y="1720.0" type="line"/>
      <point x="376.5" y="1720.0" type="line"/>
    </contour>
  </outline>
</glyph>
<glyph name="percent" format="2">
  <advance width="2130.0"/>
  <unicode hex="0025"/>
  <note>
450
</note>
  <outline>
    <contour>
      <point x="579.5" y="0.0" type="line"/>
      <point x="902.0" y="0.0" type="line"/>
      <point x="1550.5" y="1480.0" type="line"/>
      <point x="1228.0" y="1480.0" type="line"/>
    </contour>
    <contour>
      <point x="481.0" y="566.0" type="curve" smooth="yes"/>
      <point x="732.5" y="566.0"/>
      <point x="902.0" y="722.0"/>
      <point x="902.0" y="1033.5" type="curve" smooth="yes"/>
      <point x="902.0" y="1345.0"/>
      <point x="732.5" y="1500.0"/>
      <point x="481.0" y="1500.0" type="curve" smooth="yes"/>
      <point x="229.5" y="1500.0"/>
      <point x="60.0" y="1345.0"/>
      <point x="60.0" y="1033.5" type="curve" smooth="yes"/>
      <point x="60.0" y="722.0"/>
      <point x="229.5" y="566.0"/>
    </contour>
    <contour>
      <point x="481.0" y="817.0" type="curve" smooth="yes"/>
      <point x="421.5" y="817.0"/>
      <point x="378.5" y="865.5"/>
      <point x="378.5" y="1033.5" type="curve" smooth="yes"/>
      <point x="378.5" y="1201.5"/>
      <point x="421.5" y="1249.0"/>
      <point x="481.0" y="1249.0" type="curve" smooth="yes"/>
      <point x="540.5" y="1249.0"/>
      <point x="583.5" y="1201.5"/>
      <point x="583.5" y="1033.5" type="curve" smooth="yes"/>
      <point x="583.5" y="865.5"/>
      <point x="540.5" y="817.0"/>
    </contour>
    <contour>
      <point x="1649.0" y="-18.0" type="curve" smooth="yes"/>
      <point x="1900.5" y="-18.0"/>
      <point x="2070.0" y="138.0"/>
      <point x="2070.0" y="449.5" type="curve" smooth="yes"/>
      <point x="2070.0" y="761.0"/>
      <point x="1900.5" y="916.0"/>
      <point x="1649.0" y="916.0" type="curve" smooth="yes"/>
      <point x="1397.5" y="916.0"/>
      <point x="1228.0" y="761.0"/>
      <point x="1228.0" y="449.5" type="curve" smooth="yes"/>
      <point x="1228.0" y="138.0"/>
      <point x="1397.5" y="-18.0"/>
    </contour>
    <contour>
      <point x="1649.0" y="233.0" type="curve" smooth="yes"/>
      <point x="1589.5" y="233.0"/>
      <point x="1546.5" y="281.5"/>
      <point x="1546.5" y="449.5" type="curve" smooth="yes"/>
      <point x="1546.5" y="617.5"/>
      <point x="1589.5" y="665.0"/>
      <point x="1649.0" y="665.0" type="curve" smooth="yes"/>
      <point x="1708.5" y="665.0"/>
      <point x="1751.5" y="617.5"/>
      <point x="1751.5" y="449.5" type="curve" smooth="yes"/>
      <point x="1751.5" y="281.5"/>
      <point x="1708.5" y="233.0"/>
    </contour>
  </outline>
</glyph>
<glyph name="ampersand" format="2">
  <advance width="1588.0"/>
  <unicode hex="0026"/>
  <outline>
    <contour>
      <point x="1388.5" y="-20.0" type="line"/>
      <point x="1588.0" y="287.5" type="line"/>
      <point x="701.0" y="878.5" type="line" smooth="yes"/>
      <point x="633.5" y="922.5"/>
      <point x="603.5" y="962.5"/>
      <point x="603.5" y="1020.0" type="curve" smooth="yes"/>
      <point x="603.5" y="1107.0"/>
      <point x="667.5" y="1163.5"/>
      <point x="877.0" y="1163.5" type="curve" smooth="yes"/>
      <point x="949.5" y="1163.5"/>
      <point x="1038.5" y="1153.0"/>
      <point x="1103.5" y="1140.5" type="curve"/>
      <point x="1103.5" y="1477.0" type="line"/>
      <point x="1025.5" y="1490.5"/>
      <point x="941.5" y="1500.0"/>
      <point x="840.5" y="1500.0" type="curve" smooth="yes"/>
      <point x="400.0" y="1500.0"/>
      <point x="191.5" y="1318.0"/>
      <point x="191.5" y="1024.0" type="curve" smooth="yes"/>
      <point x="191.5" y="870.5"/>
      <point x="256.5" y="732.0"/>
      <point x="501.5" y="571.0" type="curve" smooth="yes"/>
    </contour>
    <contour>
      <point x="661.5" y="-18.0" type="curve" smooth="yes"/>
      <point x="1087.5" y="-18.0"/>
      <point x="1354.0" y="212.0"/>
      <point x="1354.0" y="666.0" type="curve" smooth="yes"/>
      <point x="1354.0" y="738.0"/>
      <point x="1343.5" y="826.0"/>
      <point x="1325.0" y="906.0" type="curve"/>
      <point x="1000.0" y="906.0" type="line"/>
      <point x="1018.5" y="826.0"/>
      <point x="1029.5" y="736.0"/>
      <point x="1029.5" y="662.0" type="curve" smooth="yes"/>
      <point x="1029.5" y="367.0"/>
      <point x="887.5" y="275.0"/>
      <point x="710.0" y="275.0" type="curve" smooth="yes"/>
      <point x="566.5" y="275.0"/>
      <point x="480.5" y="339.0"/>
      <point x="480.5" y="454.0" type="curve" smooth="yes"/>
      <point x="480.5" y="532.0"/>
      <point x="511.5" y="586.0"/>
      <point x="558.0" y="632.0" type="curve"/>
      <point x="347.5" y="786.0" type="line"/>
      <point x="198.0" y="740.0"/>
      <point x="71.5" y="602.0"/>
      <point x="71.5" y="406.0" type="curve" smooth="yes"/>
      <point x="71.5" y="148.0"/>
      <point x="271.5" y="-18.0"/>
    </contour>
  </outline>
</glyph>
<glyph name="quotesingle" format="2">
  <advance width="481.0"/>
  <unicode hex="0027"/>
  <outline>
    <contour>
      <point x="115.5" y="805.0" type="line"/>
      <point x="365.5" y="805.0" type="line"/>
      <point x="441.0" y="1616.0" type="line"/>
      <point x="40.0" y="1616.0" type="line"/>
    </contour>
  </outline>
</glyph>
<glyph name="parenleft" format="2">
  <advance width="714.0"/>
  <unicode hex="0028"/>
  <outline>
    <contour>
      <point x="387.0" y="-440.0" type="curve"/>
      <point x="799.5" y="-440.0" type="line"/>
      <point x="593.0" y="-143.5"/>
      <point x="500.0" y="191.5"/>
      <point x="500.0" y="588.0" type="curve" smooth="yes"/>
      <point x="500.0" y="984.5"/>
      <point x="593.0" y="1319.5"/>
      <point x="799.5" y="1616.0" type="curve"/>
      <point x="387.0" y="1616.0" type="line"/>
      <point x="171.5" y="1341.5"/>
      <point x="81.5" y="991.5"/>
      <point x="81.5" y="588.0" type="curve" smooth="yes"/>
      <point x="81.5" y="184.5"/>
      <point x="171.5" y="-165.5"/>
    </contour>
  </outline>
</glyph>
<glyph name="parenright" format="2">
  <advance width="714.0"/>
  <unicode hex="0029"/>
  <outline>
    <contour>
      <point x="-85.5" y="-440.0" type="curve"/>
      <point x="327.0" y="-440.0" type="line"/>
      <point x="542.5" y="-165.5"/>
      <point x="632.5" y="184.5"/>
      <point x="632.5" y="588.0" type="curve" smooth="yes"/>
      <point x="632.5" y="991.5"/>
      <point x="542.5" y="1341.5"/>
      <point x="327.0" y="1616.0" type="curve"/>
      <point x="-85.5" y="1616.0" type="line"/>
      <point x="121.0" y="1319.5"/>
      <point x="214.0" y="984.5"/>
      <point x="214.0" y="588.0" type="curve" smooth="yes"/>
      <point x="214.0" y="191.5"/>
      <point x="121.0" y="-143.5"/>
    </contour>
  </outline>
</glyph>
<glyph name="asterisk" format="2">
  <advance width="1038.0"/>
  <unicode hex="002A"/>
  <outline>
    <contour>
      <point x="668.0" y="1110.5" type="line"/>
      <point x="859.5" y="1127.5" type="line"/>
      <point x="1008.0" y="1175.5" type="line"/>
      <point x="924.5" y="1432.0" type="line"/>
      <point x="776.0" y="1382.5" type="line"/>
      <point x="608.5" y="1280.5" type="line"/>
      <point x="653.5" y="1472.0" type="line"/>
      <point x="653.5" y="1616.0" type="line"/>
      <point x="384.5" y="1616.0" type="line"/>
      <point x="384.5" y="1472.0" type="line"/>
      <point x="429.5" y="1280.5" type="line"/>
      <point x="262.0" y="1382.5" type="line"/>
      <point x="113.5" y="1432.0" type="line"/>
      <point x="30.0" y="1175.5" type="line"/>
      <point x="178.5" y="1127.5" type="line"/>
      <point x="370.0" y="1110.5" type="line"/>
      <point x="223.0" y="984.5" type="line"/>
      <point x="138.0" y="866.5" type="line"/>
      <point x="356.0" y="708.0" type="line"/>
      <point x="441.0" y="825.5" type="line"/>
      <point x="519.0" y="1013.5" type="line"/>
      <point x="597.0" y="825.5" type="line"/>
      <point x="682.0" y="708.0" type="line"/>
      <point x="900.0" y="866.5" type="line"/>
      <point x="815.0" y="984.5" type="line"/>
    </contour>
  </outline>
</glyph>
<glyph name="plus" format="2">
  <advance width="1076.0"/>
  <unicode hex="002B"/>
  <outline>
    <contour>
      <point x="376.5" y="306.0" type="line"/>
      <point x="699.5" y="306.0" type="line"/>
      <point x="699.5" y="605.0" type="line"/>
      <point x="989.0" y="605.0" type="line"/>
      <point x="989.0" y="915.0" type="line"/>
      <point x="699.5" y="915.0" type="line"/>
      <point x="699.5" y="1214.0" type="line"/>
      <point x="376.5" y="1214.0" type="line"/>
      <point x="376.5" y="915.0" type="line"/>
      <point x="87.0" y="915.0" type="line"/>
      <point x="87.0" y="605.0" type="line"/>
      <point x="376.5" y="605.0" type="line"/>
    </contour>
  </outline>
</glyph>
<glyph name="comma" format="2">
  <advance width="582.0"/>
  <unicode hex="002C"/>
  <outline>
    <contour>
      <point x="129.0" y="-360.0" type="curve"/>
      <point x="360.0" y="-360.0" type="line"/>
      <point x="473.0" y="-218.0"/>
      <point x="547.0" y="-24.0"/>
      <point x="547.0" y="152.5" type="curve" smooth="yes"/>
      <point x="547.0" y="363.5"/>
      <point x="456.0" y="471.0"/>
      <point x="285.0" y="471.0" type="curve" smooth="yes"/>
      <point x="133.5" y="471.0"/>
      <point x="34.0" y="382.0"/>
      <point x="34.0" y="225.5" type="curve" smooth="yes"/>
      <point x="34.0" y="73.5"/>
      <point x="140.5" y="-20.0"/>
      <point x="291.0" y="-20.0" type="curve" smooth="yes"/>
      <point x="341.0" y="-20.0" type="line"/>
      <point x="247.5" y="52.0" type="line"/>
      <point x="247.5" y="-82.0"/>
      <point x="204.0" y="-206.0"/>
    </contour>
  </outline>
</glyph>
<glyph name="hyphen" format="2">
  <advance width="859.0"/>
  <unicode hex="002D"/>
  <outline>
    <contour>
      <point x="87.0" y="406.5" type="line"/>
      <point x="772.0" y="406.5" type="line"/>
      <point x="772.0" y="733.5" type="line"/>
      <point x="87.0" y="733.5" type="line"/>
    </contour>
  </outline>
</glyph>
<glyph name="period" format="2">
  <advance width="582.0"/>
  <unicode hex="002E"/>
  <outline>
    <contour>
      <point x="291.0" y="-20.0" type="curve" smooth="yes"/>
      <point x="444.5" y="-20.0"/>
      <point x="548.0" y="77.5"/>
      <point x="548.0" y="225.5" type="curve" smooth="yes"/>
      <point x="548.0" y="373.5"/>
      <point x="448.5" y="471.0"/>
      <point x="291.0" y="471.0" type="curve" smooth="yes"/>
      <point x="133.5" y="471.0"/>
      <point x="34.0" y="377.5"/>
      <point x="34.0" y="225.5" type="curve" smooth="yes"/>
      <point x="34.0" y="73.5"/>
      <point x="137.5" y="-20.0"/>
    </contour>
  </outline>
</glyph>
<glyph name="slash" format="2">
  <advance width="825.5"/>
  <unicode hex="002F"/>
  <outline>
    <contour>
      <point x="0.0" y="-240.0" type="line"/>
      <point x="394.0" y="-240.0" type="line"/>
      <point x="825.5" y="1616.0" type="line"/>
      <point x="431.5" y="1616.0" type="line"/>
    </contour>
  </outline>
</glyph>
<glyph name="zero" format="2">
  <advance width="1308.5"/>
  <unicode hex="0030"/>
  <note>
600
</note>
  <outline>
    <contour>
      <point x="654.0" y="-20.0" type="curve" smooth="yes"/>
      <point x="1025.0" y="-20.0"/>
      <point x="1237.0" y="217.0"/>
      <point x="1237.0" y="740.0" type="curve" smooth="yes"/>
      <point x="1237.0" y="1263.0"/>
      <point x="1025.0" y="1500.0"/>
      <point x="654.0" y="1500.0" type="curve" smooth="yes"/>
      <point x="283.0" y="1500.0"/>
      <point x="71.5" y="1263.0"/>
      <point x="71.5" y="740.0" type="curve" smooth="yes"/>
      <point x="71.5" y="217.0"/>
      <point x="283.0" y="-20.0"/>
    </contour>
    <contour>
      <point x="654.5" y="317.5" type="curve" smooth="yes"/>
      <point x="533.5" y="317.5"/>
      <point x="476.5" y="417.0"/>
      <point x="476.5" y="740.0" type="curve" smooth="yes"/>
      <point x="476.5" y="1063.0"/>
      <point x="534.5" y="1162.5"/>
      <point x="654.5" y="1162.5" type="curve" smooth="yes"/>
      <point x="774.0" y="1162.5"/>
      <point x="832.0" y="1063.0"/>
      <point x="832.0" y="740.0" type="curve" smooth="yes"/>
      <point x="832.0" y="417.0"/>
      <point x="774.0" y="317.5"/>
    </contour>
  </outline>
</glyph>
<glyph name="one" format="2">
  <advance width="811.0"/>
  <unicode hex="0031"/>
  <outline>
    <contour>
      <point x="289.5" y="0.0" type="line"/>
      <point x="702.5" y="0.0" type="line"/>
      <point x="702.5" y="1486.0" type="line"/>
      <point x="442.5" y="1486.0" type="line"/>
      <point x="18.5" y="1211.0" type="line"/>
      <point x="18.5" y="830.0" type="line"/>
      <point x="442.5" y="1105.0" type="line"/>
      <point x="289.5" y="1244.0" type="line"/>
    </contour>
  </outline>
</glyph>
<glyph name="two" format="2">
  <advance width="1057.0"/>
  <unicode hex="0032"/>
  <outline>
    <contour>
      <point x="36.0" y="0.0" type="line"/>
      <point x="1015.0" y="0.0" type="line"/>
      <point x="1015.0" y="348.5" type="line"/>
      <point x="486.0" y="348.5" type="line"/>
      <point x="494.5" y="248.0" type="line"/>
      <point x="765.0" y="583.5" type="line" smooth="yes"/>
      <point x="908.0" y="761.5"/>
      <point x="953.5" y="909.5"/>
      <point x="953.5" y="1048.5" type="curve" smooth="yes"/>
      <point x="953.5" y="1367.0"/>
      <point x="747.0" y="1500.0"/>
      <point x="373.5" y="1500.0" type="curve" smooth="yes"/>
      <point x="257.0" y="1500.0"/>
      <point x="104.5" y="1477.5"/>
      <point x="16.5" y="1447.5" type="curve"/>
      <point x="16.5" y="1111.0" type="line"/>
      <point x="100.5" y="1143.5"/>
      <point x="213.0" y="1163.5"/>
      <point x="318.0" y="1163.5" type="curve" smooth="yes"/>
      <point x="484.0" y="1163.5"/>
      <point x="546.0" y="1109.5"/>
      <point x="546.0" y="1009.5" type="curve" smooth="yes"/>
      <point x="546.0" y="926.5"/>
      <point x="504.5" y="833.0"/>
      <point x="395.5" y="690.5" type="curve" smooth="yes"/>
      <point x="36.0" y="225.5" type="line"/>
    </contour>
  </outline>
</glyph>
<glyph name="three" format="2">
  <advance width="1060.5"/>
  <unicode hex="0033"/>
  <outline>
    <contour>
      <point x="396.5" y="-20.0" type="curve" smooth="yes"/>
      <point x="803.0" y="-20.0"/>
      <point x="1016.0" y="141.0"/>
      <point x="1016.0" y="416.5" type="curve" smooth="yes"/>
      <point x="1016.0" y="612.0"/>
      <point x="909.0" y="734.5"/>
      <point x="709.5" y="768.0" type="curve"/>
      <point x="709.5" y="756.0" type="line"/>
      <point x="873.0" y="792.5"/>
      <point x="971.0" y="919.0"/>
      <point x="971.0" y="1095.5" type="curve" smooth="yes"/>
      <point x="971.0" y="1354.5"/>
      <point x="784.5" y="1500.0"/>
      <point x="412.5" y="1500.0" type="curve" smooth="yes"/>
      <point x="289.0" y="1500.0"/>
      <point x="138.5" y="1478.5"/>
      <point x="45.5" y="1447.5" type="curve"/>
      <point x="45.5" y="1137.0" type="line"/>
      <point x="135.5" y="1169.0"/>
      <point x="256.0" y="1188.5"/>
      <point x="359.5" y="1188.5" type="curve" smooth="yes"/>
      <point x="516.0" y="1188.5"/>
      <point x="577.5" y="1143.0"/>
      <point x="577.5" y="1052.0" type="curve" smooth="yes"/>
      <point x="577.5" y="966.5"/>
      <point x="521.0" y="914.0"/>
      <point x="353.5" y="914.0" type="curve" smooth="yes"/>
      <point x="158.5" y="914.0" type="line"/>
      <point x="158.5" y="596.0" type="line"/>
      <point x="372.0" y="596.0" type="line" smooth="yes"/>
      <point x="560.0" y="596.0"/>
      <point x="626.0" y="545.0"/>
      <point x="626.0" y="444.5" type="curve" smooth="yes"/>
      <point x="626.0" y="342.5"/>
      <point x="558.0" y="291.5"/>
      <point x="382.0" y="291.5" type="curve" smooth="yes"/>
      <point x="274.0" y="291.5"/>
      <point x="135.0" y="308.5"/>
      <point x="28.5" y="335.5" type="curve"/>
      <point x="28.5" y="25.0" type="line"/>
      <point x="142.0" y="-4.0"/>
      <point x="266.0" y="-20.0"/>
    </contour>
  </outline>
</glyph>
<glyph name="four" format="2">
  <advance width="1255.0"/>
  <unicode hex="0034"/>
  <outline>
    <contour>
      <point x="28.0" y="278.5" type="line"/>
      <point x="1230.5" y="278.5" type="line"/>
      <point x="1230.5" y="593.5" type="line"/>
      <point x="382.5" y="593.5" type="line"/>
      <point x="430.5" y="506.0" type="line"/>
      <point x="873.5" y="1480.0" type="line"/>
      <point x="482.5" y="1480.0" type="line"/>
      <point x="28.0" y="506.0" type="line"/>
    </contour>
    <contour>
      <point x="695.0" y="0.0" type="line"/>
      <point x="1061.0" y="0.0" type="line"/>
      <point x="1061.0" y="980.0" type="line"/>
      <point x="735.0" y="980.0" type="line"/>
      <point x="695.0" y="593.5" type="line"/>
    </contour>
  </outline>
</glyph>
<glyph name="five" format="2">
  <advance width="1075.5"/>
  <unicode hex="0035"/>
  <outline>
    <contour>
      <point x="425.0" y="-20.0" type="curve" smooth="yes"/>
      <point x="823.0" y="-20.0"/>
      <point x="1040.0" y="141.0"/>
      <point x="1040.5" y="456.5" type="curve" smooth="yes"/>
      <point x="1041.0" y="749.0"/>
      <point x="863.5" y="896.5"/>
      <point x="429.0" y="923.5" type="curve" smooth="yes"/>
      <point x="275.5" y="932.5" type="line"/>
      <point x="489.0" y="794.0" type="line"/>
      <point x="523.0" y="1340.0" type="line"/>
      <point x="343.0" y="1154.5" type="line"/>
      <point x="985.0" y="1154.5" type="line"/>
      <point x="985.0" y="1480.0" type="line"/>
      <point x="144.5" y="1480.0" type="line"/>
      <point x="95.5" y="626.5" type="line"/>
      <point x="249.0" y="617.5" type="line" smooth="yes"/>
      <point x="585.0" y="596.5"/>
      <point x="650.0" y="545.5"/>
      <point x="650.0" y="443.5" type="curve" smooth="yes"/>
      <point x="650.0" y="344.5"/>
      <point x="582.0" y="293.5"/>
      <point x="410.5" y="293.5" type="curve" smooth="yes"/>
      <point x="302.5" y="293.5"/>
      <point x="163.5" y="312.0"/>
      <point x="57.0" y="340.5" type="curve"/>
      <point x="57.0" y="30.0" type="line"/>
      <point x="170.5" y="-1.5"/>
      <point x="294.5" y="-20.0"/>
    </contour>
  </outline>
</glyph>
<glyph name="six" format="2">
  <advance width="1239.5"/>
  <unicode hex="0036"/>
  <outline>
    <contour>
      <point x="665.0" y="-20.0" type="curve" smooth="yes"/>
      <point x="989.0" y="-20.0"/>
      <point x="1197.0" y="163.0"/>
      <point x="1197.0" y="462.5" type="curve" smooth="yes"/>
      <point x="1197.0" y="779.0"/>
      <point x="988.0" y="914.0"/>
      <point x="738.0" y="914.0" type="curve" smooth="yes"/>
      <point x="610.5" y="914.0"/>
      <point x="483.5" y="869.5"/>
      <point x="416.5" y="789.5" type="curve"/>
      <point x="416.5" y="506.0" type="line"/>
      <point x="479.5" y="583.5"/>
      <point x="566.5" y="616.0"/>
      <point x="653.5" y="616.0" type="curve" smooth="yes"/>
      <point x="756.5" y="616.0"/>
      <point x="825.5" y="565.0"/>
      <point x="825.5" y="449.5" type="curve" smooth="yes"/>
      <point x="825.5" y="333.5"/>
      <point x="758.5" y="281.0"/>
      <point x="668.0" y="281.0" type="curve" smooth="yes"/>
      <point x="553.5" y="281.0"/>
      <point x="482.0" y="347.5"/>
      <point x="482.0" y="625.0" type="curve" smooth="yes"/>
      <point x="482.0" y="801.0" type="line" smooth="yes"/>
      <point x="482.0" y="1061.0"/>
      <point x="597.0" y="1180.5"/>
      <point x="841.0" y="1180.5" type="curve" smooth="yes"/>
      <point x="944.5" y="1180.5"/>
      <point x="1030.5" y="1168.0"/>
      <point x="1119.5" y="1140.5" type="curve"/>
      <point x="1119.5" y="1459.0" type="line"/>
      <point x="1038.0" y="1489.0"/>
      <point x="933.5" y="1500.0"/>
      <point x="823.5" y="1500.0" type="curve" smooth="yes"/>
      <point x="360.0" y="1500.0"/>
      <point x="80.0" y="1242.0"/>
      <point x="80.0" y="697.0" type="curve" smooth="yes"/>
      <point x="80.0" y="188.0"/>
      <point x="317.5" y="-20.0"/>
    </contour>
  </outline>
</glyph>
<glyph name="seven" format="2">
  <advance width="1005.0"/>
  <unicode hex="0037"/>
  <outline>
    <contour>
      <point x="113.5" y="0.0" type="line"/>
      <point x="538.5" y="0.0" type="line"/>
      <point x="948.5" y="1254.5" type="line"/>
      <point x="948.5" y="1480.0" type="line"/>
      <point x="10.5" y="1480.0" type="line"/>
      <point x="10.5" y="1131.5" type="line"/>
      <point x="699.5" y="1131.5" type="line"/>
      <point x="555.0" y="1254.5" type="line"/>
    </contour>
  </outline>
</glyph>
<glyph name="eight" format="2">
  <advance width="1308.5"/>
  <unicode hex="0038"/>
  <outline>
    <contour>
      <point x="656.0" y="-20.0" type="curve" smooth="yes"/>
      <point x="1040.5" y="-20.0"/>
      <point x="1244.5" y="165.0"/>
      <point x="1244.5" y="417.0" type="curve" smooth="yes"/>
      <point x="1244.5" y="635.5"/>
      <point x="1139.0" y="770.5"/>
      <point x="775.5" y="886.5" type="curve" smooth="yes"/>
      <point x="526.0" y="966.0"/>
      <point x="483.5" y="1006.5"/>
      <point x="483.5" y="1090.0" type="curve" smooth="yes"/>
      <point x="483.5" y="1161.0"/>
      <point x="544.5" y="1215.5"/>
      <point x="675.5" y="1215.5" type="curve" smooth="yes"/>
      <point x="795.0" y="1215.5"/>
      <point x="858.0" y="1169.0"/>
      <point x="858.0" y="1084.0" type="curve" smooth="yes"/>
      <point x="858.0" y="999.5"/>
      <point x="814.0" y="931.5"/>
      <point x="702.5" y="866.0" type="curve"/>
      <point x="941.5" y="759.0" type="line"/>
      <point x="1144.5" y="849.5"/>
      <point x="1209.0" y="983.0"/>
      <point x="1209.0" y="1121.0" type="curve" smooth="yes"/>
      <point x="1209.0" y="1356.0"/>
      <point x="1008.0" y="1500.0"/>
      <point x="676.0" y="1500.0" type="curve" smooth="yes"/>
      <point x="295.0" y="1500.0"/>
      <point x="95.5" y="1328.5"/>
      <point x="95.5" y="1076.0" type="curve" smooth="yes"/>
      <point x="95.5" y="864.0"/>
      <point x="211.0" y="703.0"/>
      <point x="572.5" y="597.5" type="curve" smooth="yes"/>
      <point x="806.5" y="530.0"/>
      <point x="862.5" y="484.0"/>
      <point x="862.5" y="396.0" type="curve" smooth="yes"/>
      <point x="862.5" y="315.0"/>
      <point x="802.0" y="264.5"/>
      <point x="656.5" y="264.5" type="curve" smooth="yes"/>
      <point x="512.5" y="264.5"/>
      <point x="444.0" y="320.0"/>
      <point x="444.0" y="415.5" type="curve" smooth="yes"/>
      <point x="444.0" y="493.5"/>
      <point x="496.0" y="584.5"/>
      <point x="621.0" y="630.0" type="curve"/>
      <point x="364.5" y="735.5" type="line"/>
      <point x="163.0" y="663.0"/>
      <point x="61.0" y="532.0"/>
      <point x="61.0" y="373.0" type="curve" smooth="yes"/>
      <point x="61.0" y="148.0"/>
      <point x="248.0" y="-20.0"/>
    </contour>
  </outline>
</glyph>
<glyph name="nine" format="2">
  <advance width="1239.5"/>
  <unicode hex="0039"/>
  <outline>
    <contour>
      <point x="574.5" y="1500.0" type="curve" smooth="yes"/>
      <point x="250.5" y="1500.0"/>
      <point x="42.5" y="1317.0"/>
      <point x="42.5" y="1017.5" type="curve" smooth="yes"/>
      <point x="42.5" y="701.0"/>
      <point x="251.5" y="566.0"/>
      <point x="501.5" y="566.0" type="curve" smooth="yes"/>
      <point x="629.0" y="566.0"/>
      <point x="756.0" y="610.5"/>
      <point x="823.0" y="690.5" type="curve"/>
      <point x="823.0" y="974.0" type="line"/>
      <point x="760.0" y="896.5"/>
      <point x="673.0" y="864.0"/>
      <point x="586.0" y="864.0" type="curve" smooth="yes"/>
      <point x="483.0" y="864.0"/>
      <point x="414.0" y="915.0"/>
      <point x="414.0" y="1030.5" type="curve" smooth="yes"/>
      <point x="414.0" y="1146.5"/>
      <point x="481.0" y="1199.0"/>
      <point x="571.5" y="1199.0" type="curve" smooth="yes"/>
      <point x="686.0" y="1199.0"/>
      <point x="757.5" y="1132.5"/>
      <point x="757.5" y="855.0" type="curve" smooth="yes"/>
      <point x="757.5" y="679.0" type="line" smooth="yes"/>
      <point x="757.5" y="419.0"/>
      <point x="642.5" y="299.5"/>
      <point x="398.5" y="299.5" type="curve" smooth="yes"/>
      <point x="295.0" y="299.5"/>
      <point x="209.0" y="312.0"/>
      <point x="120.0" y="339.5" type="curve"/>
      <point x="120.0" y="21.0" type="line"/>
      <point x="201.5" y="-9.0"/>
      <point x="306.0" y="-20.0"/>
      <point x="416.0" y="-20.0" type="curve" smooth="yes"/>
      <point x="879.5" y="-20.0"/>
      <point x="1159.5" y="238.0"/>
      <point x="1159.5" y="783.0" type="curve" smooth="yes"/>
      <point x="1159.5" y="1292.0"/>
      <point x="922.0" y="1500.0"/>
    </contour>
  </outline>
</glyph>
<glyph name="colon" format="2">
  <advance width="582.0"/>
  <unicode hex="003A"/>
  <outline>
    <contour>
      <point x="291.0" y="-20.0" type="curve" smooth="yes"/>
      <point x="444.5" y="-20.0"/>
      <point x="548.0" y="77.5"/>
      <point x="548.0" y="225.5" type="curve" smooth="yes"/>
      <point x="548.0" y="373.5"/>
      <point x="448.5" y="471.0"/>
      <point x="291.0" y="471.0" type="curve" smooth="yes"/>
      <point x="133.5" y="471.0"/>
      <point x="34.0" y="377.5"/>
      <point x="34.0" y="225.5" type="curve" smooth="yes"/>
      <point x="34.0" y="73.5"/>
      <point x="137.5" y="-20.0"/>
    </contour>
    <contour>
      <point x="291.0" y="629.0" type="curve" smooth="yes"/>
      <point x="444.5" y="629.0"/>
      <point x="548.0" y="726.5"/>
      <point x="548.0" y="874.5" type="curve" smooth="yes"/>
      <point x="548.0" y="1022.5"/>
      <point x="448.5" y="1120.0"/>
      <point x="291.0" y="1120.0" type="curve" smooth="yes"/>
      <point x="133.5" y="1120.0"/>
      <point x="34.0" y="1026.5"/>
      <point x="34.0" y="874.5" type="curve" smooth="yes"/>
      <point x="34.0" y="722.5"/>
      <point x="137.5" y="629.0"/>
    </contour>
  </outline>
</glyph>
<glyph name="semicolon" format="2">
  <advance width="582.0"/>
  <unicode hex="003B"/>
  <outline>
    <contour>
      <point x="129.0" y="-360.0" type="curve"/>
      <point x="360.0" y="-360.0" type="line"/>
      <point x="473.0" y="-218.0"/>
      <point x="547.0" y="-24.0"/>
      <point x="547.0" y="152.5" type="curve" smooth="yes"/>
      <point x="547.0" y="363.5"/>
      <point x="456.0" y="471.0"/>
      <point x="285.0" y="471.0" type="curve" smooth="yes"/>
      <point x="133.5" y="471.0"/>
      <point x="34.0" y="382.0"/>
      <point x="34.0" y="225.5" type="curve" smooth="yes"/>
      <point x="34.0" y="73.5"/>
      <point x="140.5" y="-20.0"/>
      <point x="291.0" y="-20.0" type="curve" smooth="yes"/>
      <point x="341.0" y="-20.0" type="line"/>
      <point x="247.5" y="52.0" type="line"/>
      <point x="247.5" y="-82.0"/>
      <point x="204.0" y="-206.0"/>
    </contour>
    <contour>
      <point x="291.0" y="629.0" type="curve" smooth="yes"/>
      <point x="444.5" y="629.0"/>
      <point x="548.0" y="726.5"/>
      <point x="548.0" y="874.5" type="curve" smooth="yes"/>
      <point x="548.0" y="1022.5"/>
      <point x="448.5" y="1120.0"/>
      <point x="291.0" y="1120.0" type="curve" smooth="yes"/>
      <point x="133.5" y="1120.0"/>
      <point x="34.0" y="1026.5"/>
      <point x="34.0" y="874.5" type="curve" smooth="yes"/>
      <point x="34.0" y="722.5"/>
      <point x="137.5" y="629.0"/>
    </contour>
  </outline>
</glyph>
<glyph name="less" format="2">
  <advance width="1076.0"/>
  <unicode hex="003C"/>
  <outline>
    <contour>
      <point x="989.0" y="229.0" type="line"/>
      <point x="989.0" y="539.0" type="line"/>
      <point x="308.5" y="777.5" type="line"/>
      <point x="308.5" y="745.0" type="line"/>
      <point x="989.0" y="981.0" type="line"/>
      <point x="989.0" y="1291.0" type="line"/>
      <point x="87.0" y="959.0" type="line"/>
      <point x="87.0" y="561.0" type="line"/>
    </contour>
  </outline>
</glyph>
<glyph name="equal" format="2">
  <advance width="1076.0"/>
  <unicode hex="003D"/>
  <outline>
    <contour>
      <point x="87.0" y="840.0" type="line"/>
      <point x="989.0" y="840.0" type="line"/>
      <point x="989.0" y="1150.0" type="line"/>
      <point x="87.0" y="1150.0" type="line"/>
    </contour>
    <contour>
      <point x="87.0" y="370.0" type="line"/>
      <point x="989.0" y="370.0" type="line"/>
      <point x="989.0" y="680.0" type="line"/>
      <point x="87.0" y="680.0" type="line"/>
    </contour>
  </outline>
</glyph>
<glyph name="question" format="2">
  <advance width="981.0"/>
  <unicode hex="003F"/>
  <outline>
    <contour>
      <point x="307.0" y="532.0" type="line"/>
      <point x="553.5" y="532.0" type="line"/>
      <point x="583.0" y="683.5" type="line"/>
      <point x="801.5" y="743.0"/>
      <point x="943.5" y="880.0"/>
      <point x="943.5" y="1093.0" type="curve" smooth="yes"/>
      <point x="943.5" y="1354.5"/>
      <point x="757.0" y="1500.0"/>
      <point x="385.0" y="1500.0" type="curve" smooth="yes"/>
      <point x="261.5" y="1500.0"/>
      <point x="111.0" y="1478.5"/>
      <point x="18.0" y="1447.5" type="curve"/>
      <point x="18.0" y="1132.0" type="line"/>
      <point x="108.0" y="1164.0"/>
      <point x="227.5" y="1183.5"/>
      <point x="331.0" y="1183.5" type="curve" smooth="yes"/>
      <point x="488.5" y="1183.5"/>
      <point x="550.0" y="1139.5"/>
      <point x="550.0" y="1051.0" type="curve" smooth="yes"/>
      <point x="550.0" y="967.0"/>
      <point x="487.0" y="910.0"/>
      <point x="237.5" y="870.5" type="curve"/>
    </contour>
    <contour>
      <point x="430.5" y="-20.0" type="curve" smooth="yes"/>
      <point x="584.0" y="-20.0"/>
      <point x="687.5" y="75.5"/>
      <point x="687.5" y="216.0" type="curve" smooth="yes"/>
      <point x="687.5" y="356.5"/>
      <point x="588.0" y="452.0"/>
      <point x="430.5" y="452.0" type="curve" smooth="yes"/>
      <point x="273.0" y="452.0"/>
      <point x="173.5" y="360.5"/>
      <point x="173.5" y="216.0" type="curve" smooth="yes"/>
      <point x="173.5" y="71.5"/>
      <point x="277.0" y="-20.0"/>
    </contour>
  </outline>
</glyph>
<glyph name="at" format="2">
  <advance width="2096.0"/>
  <unicode hex="0040"/>
  <outline>
    <contour>
      <point x="1092.0" y="-460.0" type="curve" smooth="yes"/>
      <point x="1249.0" y="-460.0"/>
      <point x="1401.5" y="-442.0"/>
      <point x="1552.0" y="-406.0" type="curve"/>
      <point x="1552.0" y="-145.0" type="line"/>
      <point x="1399.5" y="-181.0"/>
      <point x="1249.0" y="-199.0"/>
      <point x="1092.0" y="-199.0" type="curve" smooth="yes"/>
      <point x="579.0" y="-199.0"/>
      <point x="368.5" y="-7.0"/>
      <point x="368.5" y="520.0" type="curve" smooth="yes"/>
      <point x="368.5" y="1047.0"/>
      <point x="579.0" y="1237.0"/>
      <point x="1057.5" y="1237.0" type="curve" smooth="yes"/>
      <point x="1536.5" y="1237.0"/>
      <point x="1748.5" y="1055.0"/>
      <point x="1751.5" y="580.0" type="curve" smooth="yes"/>
      <point x="1754.0" y="300.0"/>
      <point x="1704.0" y="246.0"/>
      <point x="1625.0" y="246.0" type="curve" smooth="yes"/>
      <point x="1578.0" y="246.0"/>
      <point x="1548.0" y="274.0"/>
      <point x="1548.0" y="344.0" type="curve" smooth="yes"/>
      <point x="1548.0" y="620.5" type="line" smooth="yes"/>
      <point x="1548.0" y="973.0"/>
      <point x="1394.0" y="1098.0"/>
      <point x="1034.0" y="1098.0" type="curve" smooth="yes"/>
      <point x="920.0" y="1098.0"/>
      <point x="786.5" y="1079.0"/>
      <point x="680.5" y="1045.0" type="curve"/>
      <point x="677.5" y="736.5" type="line"/>
      <point x="764.5" y="769.0"/>
      <point x="870.0" y="786.5"/>
      <point x="956.0" y="786.5" type="curve" smooth="yes"/>
      <point x="1108.5" y="786.5"/>
      <point x="1154.0" y="744.5"/>
      <point x="1154.0" y="639.0" type="curve" smooth="yes"/>
      <point x="1154.0" y="292.0" type="line"/>
      <point x="1128.0" y="274.0"/>
      <point x="1088.5" y="267.0"/>
      <point x="1063.0" y="267.0" type="curve" smooth="yes"/>
      <point x="1011.5" y="267.0"/>
      <point x="970.5" y="294.0"/>
      <point x="970.5" y="354.0" type="curve" smooth="yes"/>
      <point x="970.5" y="418.0"/>
      <point x="1009.5" y="451.5"/>
      <point x="1087.0" y="456.0" type="curve" smooth="yes"/>
      <point x="1251.5" y="465.5" type="line"/>
      <point x="1201.5" y="677.5" type="line"/>
      <point x="1041.0" y="668.0" type="line" smooth="yes"/>
      <point x="709.0" y="647.5"/>
      <point x="575.5" y="524.5"/>
      <point x="575.5" y="307.5" type="curve" smooth="yes"/>
      <point x="575.5" y="111.5"/>
      <point x="707.0" y="-22.0"/>
      <point x="918.5" y="-22.0" type="curve" smooth="yes"/>
      <point x="1028.5" y="-22.0"/>
      <point x="1133.5" y="14.0"/>
      <point x="1170.0" y="132.0" type="curve"/>
      <point x="1189.5" y="132.0" type="line"/>
      <point x="1260.5" y="26.0"/>
      <point x="1376.0" y="-22.0"/>
      <point x="1536.5" y="-22.0" type="curve" smooth="yes"/>
      <point x="1830.0" y="-22.0"/>
      <point x="2034.5" y="140.0"/>
      <point x="2034.5" y="588.0" type="curve" smooth="yes"/>
      <point x="2034.5" y="1194.0"/>
      <point x="1682.0" y="1498.0"/>
      <point x="1057.5" y="1498.0" type="curve" smooth="yes"/>
      <point x="433.5" y="1498.0"/>
      <point x="61.5" y="1194.0"/>
      <point x="61.5" y="520.0" type="curve" smooth="yes"/>
      <point x="61.5" y="-154.0"/>
      <point x="433.5" y="-460.0"/>
    </contour>
  </outline>
</glyph>
<glyph name="B" format="2">
  <advance width="1312.0"/>
  <unicode hex="0042"/>
  <anchor x="660.5" y="0.0" name="bottom"/>
  <anchor x="660.5" y="1480.0" name="top"/>
  <outline>
    <contour>
      <point x="530.5" y="-20.0" type="curve" smooth="yes"/>
      <point x="1069.0" y="-20.0"/>
      <point x="1279.0" y="136.5"/>
      <point x="1279.0" y="421.0" type="curve" smooth="yes"/>
      <point x="1279.0" y="633.0"/>
      <point x="1155.5" y="739.0"/>
      <point x="995.5" y="768.0" type="curve"/>
      <point x="995.5" y="756.0" type="line"/>
      <point x="1139.0" y="791.0"/>
      <point x="1238.0" y="917.5"/>
      <point x="1238.0" y="1079.0" type="curve" smooth="yes"/>
      <point x="1238.0" y="1366.5"/>
      <point x="1036.5" y="1500.0"/>
      <point x="589.5" y="1500.0" type="curve" smooth="yes"/>
      <point x="431.5" y="1500.0"/>
      <point x="240.0" y="1477.5"/>
      <point x="98.5" y="1445.5" type="curve"/>
      <point x="98.5" y="13.5" type="line"/>
      <point x="224.5" y="-6.0"/>
      <point x="408.5" y="-20.0"/>
    </contour>
    <contour>
      <point x="647.5" y="285.0" type="curve" smooth="yes"/>
      <point x="602.0" y="285.0"/>
      <point x="560.0" y="286.5"/>
      <point x="501.0" y="291.0" type="curve"/>
      <point x="501.0" y="1181.5" type="line"/>
      <point x="551.0" y="1190.0"/>
      <point x="599.5" y="1195.0"/>
      <point x="652.5" y="1195.0" type="curve" smooth="yes"/>
      <point x="799.0" y="1195.0"/>
      <point x="851.5" y="1152.5"/>
      <point x="851.5" y="1053.0" type="curve" smooth="yes"/>
      <point x="851.5" y="955.5"/>
      <point x="801.0" y="912.0"/>
      <point x="648.0" y="912.0" type="curve" smooth="yes"/>
      <point x="464.0" y="912.0" type="line"/>
      <point x="464.0" y="596.5" type="line"/>
      <point x="677.5" y="596.5" type="line" smooth="yes"/>
      <point x="834.0" y="596.5"/>
      <point x="896.0" y="550.5"/>
      <point x="896.0" y="442.5" type="curve" smooth="yes"/>
      <point x="896.0" y="332.5"/>
      <point x="835.0" y="285.0"/>
    </contour>
  </outline>
</glyph>
<glyph name="E" format="2">
  <advance width="1220.5"/>
  <unicode hex="0045"/>
  <anchor x="644.0" y="0.0" name="bottom"/>
  <anchor x="1070.5" y="0.0" name="ogonek"/>
  <anchor x="644.0" y="1520.0" name="top"/>
  <anchor x="37.0" y="1480.0" name="topleft"/>
  <outline>
    <contour>
      <point x="98.5" y="0.0" type="line"/>
      <point x="1155.5" y="0.0" type="line"/>
      <point x="1155.5" y="338.0" type="line"/>
      <point x="505.5" y="338.0" type="line"/>
      <point x="505.5" y="1142.0" type="line"/>
      <point x="1145.5" y="1142.0" type="line"/>
      <point x="1145.5" y="1480.0" type="line"/>
      <point x="98.5" y="1480.0" type="line"/>
    </contour>
    <contour>
      <point x="364.0" y="586.0" type="line"/>
      <point x="1041.0" y="586.0" type="line"/>
      <point x="1041.0" y="924.0" type="line"/>
      <point x="364.0" y="924.0" type="line"/>
    </contour>
  </outline>
</glyph>
<glyph name="F" format="2">
  <advance width="1171.0"/>
  <unicode hex="0046"/>
  <outline>
    <contour>
      <point x="98.5" y="0.0" type="line"/>
      <point x="511.5" y="0.0" type="line"/>
      <point x="511.5" y="1136.5" type="line"/>
      <point x="1145.5" y="1136.5" type="line"/>
      <point x="1145.5" y="1480.0" type="line"/>
      <point x="98.5" y="1480.0" type="line"/>
    </contour>
    <contour>
      <point x="372.0" y="535.0" type="line"/>
      <point x="1044.0" y="535.0" type="line"/>
      <point x="1044.0" y="878.5" type="line"/>
      <point x="372.0" y="878.5" type="line"/>
    </contour>
  </outline>
</glyph>
<glyph name="J" format="2">
  <advance width="610.0"/>
  <unicode hex="004A"/>
  <anchor x="511.5" y="0.0" name="bottom"/>
  <anchor x="305.5" y="1520.0" name="top"/>
  <outline>
    <contour>
      <point x="224.5" y="-352.0" type="line"/>
      <point x="438.5" y="-134.0"/>
      <point x="511.5" y="71.0"/>
      <point x="511.5" y="321.0" type="curve"/>
      <point x="511.5" y="1480.0" type="line"/>
      <point x="99.5" y="1480.0" type="line"/>
      <point x="99.5" y="305.0" type="line" smooth="yes"/>
      <point x="99.5" y="99.0"/>
      <point x="68.0" y="-27.0"/>
      <point x="-40.5" y="-177.0" type="curve"/>
    </contour>
  </outline>
</glyph>
<glyph name="K" format="2">
  <advance width="1315.0"/>
  <unicode hex="004B"/>
  <anchor x="688.5" y="0.0" name="bottom"/>
  <anchor x="678.0" y="1480.0" name="top"/>
  <outline>
    <contour>
      <point x="938.0" y="0.0" type="line"/>
      <point x="1380.5" y="0.0" type="line"/>
      <point x="895.5" y="815.0" type="line"/>
      <point x="889.5" y="705.0" type="line"/>
      <point x="1341.0" y="1480.0" type="line"/>
      <point x="912.0" y="1480.0" type="line"/>
      <point x="488.5" y="751.0" type="line"/>
    </contour>
    <contour>
      <point x="98.5" y="0.0" type="line"/>
      <point x="511.5" y="0.0" type="line"/>
      <point x="511.5" y="1480.0" type="line"/>
      <point x="98.5" y="1480.0" type="line"/>
    </contour>
    <contour>
      <point x="456.5" y="570.5" type="line"/>
      <point x="639.5" y="570.5" type="line"/>
      <point x="639.5" y="939.5" type="line"/>
      <point x="456.5" y="939.5" type="line"/>
    </contour>
  </outline>
</glyph>
<glyph name="M" format="2">
  <advance width="1846.0"/>
  <unicode hex="004D"/>
  <anchor x="950.5" y="0.0" name="bottom"/>
  <anchor x="950.5" y="1480.0" name="top"/>
  <outline>
    <contour>
      <point x="102.5" y="0.0" type="line"/>
      <point x="486.5" y="0.0" type="line"/>
      <point x="486.5" y="1101.0" type="line"/>
      <point x="401.0" y="1101.0" type="line"/>
      <point x="760.0" y="220.0" type="line"/>
      <point x="1086.0" y="220.0" type="line"/>
      <point x="1428.5" y="1101.0" type="line"/>
      <point x="1359.5" y="1101.0" type="line"/>
      <point x="1359.5" y="0.0" type="line"/>
      <point x="1743.5" y="0.0" type="line"/>
      <point x="1743.5" y="1480.0" type="line"/>
      <point x="1236.0" y="1480.0" type="line"/>
      <point x="912.0" y="617.0" type="line"/>
      <point x="948.0" y="617.0" type="line"/>
      <point x="610.0" y="1480.0" type="line"/>
      <point x="102.5" y="1480.0" type="line"/>
    </contour>
  </outline>
</glyph>
<glyph name="N" format="2">
  <advance width="1486.0"/>
  <unicode hex="004E"/>
  <anchor x="743.0" y="0.0" name="bottom"/>
  <anchor x="743.0" y="1520.0" name="top"/>
  <outline>
    <contour>
      <point x="98.5" y="0.0" type="line"/>
      <point x="485.0" y="0.0" type="line"/>
      <point x="485.0" y="931.0" type="line"/>
      <point x="423.0" y="931.0" type="line"/>
      <point x="976.0" y="0.0" type="line"/>
      <point x="1387.5" y="0.0" type="line"/>
      <point x="1387.5" y="1480.0" type="line"/>
      <point x="1001.0" y="1480.0" type="line"/>
      <point x="1001.0" y="549.0" type="line"/>
      <point x="1063.0" y="549.0" type="line"/>
      <point x="510.0" y="1480.0" type="line"/>
      <point x="98.5" y="1480.0" type="line"/>
    </contour>
  </outline>
</glyph>
<glyph name="O" format="2">
  <advance width="1520.0"/>
  <unicode hex="004F"/>
  <anchor x="760.0" y="0.0" name="bottom"/>
  <anchor x="760.0" y="740.0" name="center"/>
  <anchor x="943.5" y="0.0" name="ogonek"/>
  <anchor x="760.0" y="1520.0" name="top"/>
  <anchor x="46.5" y="1480.0" name="topleft"/>
  <anchor x="955.5" y="1480.0" name="topright"/>
  <outline>
    <contour>
      <point x="760.0" y="-20.0" type="curve" smooth="yes"/>
      <point x="1178.5" y="-20.0"/>
      <point x="1458.5" y="221.5"/>
      <point x="1458.5" y="740.0" type="curve" smooth="yes"/>
      <point x="1458.5" y="1258.5"/>
      <point x="1179.0" y="1500.0"/>
      <point x="760.0" y="1500.0" type="curve" smooth="yes"/>
      <point x="341.0" y="1500.0"/>
      <point x="61.5" y="1259.5"/>
      <point x="61.5" y="740.0" type="curve" smooth="yes"/>
      <point x="61.5" y="220.5"/>
      <point x="341.5" y="-20.0"/>
    </contour>
    <contour>
      <point x="760.0" y="315.0" type="curve" smooth="yes"/>
      <point x="583.0" y="315.0"/>
      <point x="485.5" y="430.5"/>
      <point x="485.5" y="748.0" type="curve" smooth="yes"/>
      <point x="485.5" y="1049.5"/>
      <point x="584.5" y="1165.0"/>
      <point x="760.0" y="1165.0" type="curve" smooth="yes"/>
      <point x="935.5" y="1165.0"/>
      <point x="1034.5" y="1048.0"/>
      <point x="1034.5" y="732.0" type="curve" smooth="yes"/>
      <point x="1034.5" y="432.0"/>
      <point x="937.0" y="315.0"/>
    </contour>
  </outline>
</glyph>
<glyph name="P" format="2">
  <advance width="1295.5"/>
  <unicode hex="0050"/>
  <outline>
    <contour>
      <point x="98.5" y="0.0" type="line"/>
      <point x="511.5" y="0.0" type="line"/>
      <point x="511.5" y="394.5" type="line"/>
      <point x="546.5" y="394.5"/>
      <point x="574.0" y="392.5"/>
      <point x="613.0" y="392.5" type="curve" smooth="yes"/>
      <point x="1017.5" y="392.5"/>
      <point x="1241.5" y="581.5"/>
      <point x="1241.5" y="945.5" type="curve" smooth="yes"/>
      <point x="1241.5" y="1330.0"/>
      <point x="1016.0" y="1500.0"/>
      <point x="566.5" y="1500.0" type="curve" smooth="yes"/>
      <point x="395.5" y="1500.0"/>
      <point x="241.5" y="1480.0"/>
      <point x="98.5" y="1450.0" type="curve"/>
    </contour>
    <contour>
      <point x="617.0" y="709.5" type="curve" smooth="yes"/>
      <point x="575.0" y="709.5"/>
      <point x="545.5" y="711.5"/>
      <point x="511.5" y="716.0" type="curve"/>
      <point x="511.5" y="1175.0" type="line"/>
      <point x="540.5" y="1181.0"/>
      <point x="565.5" y="1183.0"/>
      <point x="606.5" y="1183.0" type="curve" smooth="yes"/>
      <point x="767.5" y="1183.0"/>
      <point x="842.0" y="1112.0"/>
      <point x="842.0" y="942.5" type="curve" smooth="yes"/>
      <point x="842.0" y="770.5"/>
      <point x="767.5" y="709.5"/>
    </contour>
  </outline>
</glyph>
<glyph name="Q" format="2">
  <advance width="1520.0"/>
  <unicode hex="0051"/>
  <outline>
    <contour>
      <point x="1365.5" y="-364.0" type="curve"/>
      <point x="1438.5" y="-38.0" type="line"/>
      <point x="1235.0" y="-10.5"/>
      <point x="1040.5" y="36.5"/>
      <point x="787.5" y="132.5" type="curve"/>
      <point x="651.0" y="32.5" type="line"/>
      <point x="1178.5" y="-40.5"/>
      <point x="1458.5" y="236.5"/>
      <point x="1458.5" y="740.0" type="curve" smooth="yes"/>
      <point x="1458.5" y="1258.5"/>
      <point x="1179.0" y="1500.0"/>
      <point x="760.0" y="1500.0" type="curve" smooth="yes"/>
      <point x="341.0" y="1500.0"/>
      <point x="61.5" y="1259.5"/>
      <point x="61.5" y="735.0" type="curve" smooth="yes"/>
      <point x="61.5" y="194.0"/>
      <point x="363.0" y="-186.0"/>
    </contour>
    <contour>
      <point x="760.0" y="315.0" type="curve" smooth="yes"/>
      <point x="582.0" y="315.0"/>
      <point x="485.5" y="429.5"/>
      <point x="485.5" y="748.0" type="curve" smooth="yes"/>
      <point x="485.5" y="1049.5"/>
      <point x="584.5" y="1165.0"/>
      <point x="760.0" y="1165.0" type="curve" smooth="yes"/>
      <point x="935.5" y="1165.0"/>
      <point x="1034.5" y="1048.0"/>
      <point x="1034.5" y="732.0" type="curve" smooth="yes"/>
      <point x="1034.5" y="432.0"/>
      <point x="937.0" y="315.0"/>
    </contour>
  </outline>
</glyph>
<glyph name="S" format="2">
  <advance width="1132.0"/>
  <unicode hex="0053"/>
  <anchor x="578.0" y="0.0" name="bottom"/>
  <anchor x="578.0" y="1520.0" name="top"/>
  <outline>
    <contour>
      <point x="488.5" y="-20.0" type="curve" smooth="yes"/>
      <point x="874.0" y="-20.0"/>
      <point x="1101.0" y="166.0"/>
      <point x="1101.0" y="458.5" type="curve" smooth="yes"/>
      <point x="1101.0" y="697.5"/>
      <point x="961.5" y="831.0"/>
      <point x="704.5" y="903.0" type="curve" smooth="yes"/>
      <point x="578.5" y="940.0" type="line" smooth="yes"/>
      <point x="467.0" y="974.0"/>
      <point x="443.0" y="1000.5"/>
      <point x="443.0" y="1049.5" type="curve" smooth="yes"/>
      <point x="443.0" y="1110.5"/>
      <point x="496.5" y="1163.5"/>
      <point x="705.5" y="1163.5" type="curve" smooth="yes"/>
      <point x="815.5" y="1163.5"/>
      <point x="933.0" y="1147.5"/>
      <point x="1018.0" y="1122.0" type="curve"/>
      <point x="1018.0" y="1458.5" type="line"/>
      <point x="928.5" y="1483.0"/>
      <point x="807.0" y="1500.0"/>
      <point x="670.5" y="1500.0" type="curve" smooth="yes"/>
      <point x="241.0" y="1500.0"/>
      <point x="31.0" y="1320.5"/>
      <point x="31.0" y="1023.0" type="curve" smooth="yes"/>
      <point x="31.0" y="788.0"/>
      <point x="173.5" y="650.0"/>
      <point x="401.5" y="585.5" type="curve" smooth="yes"/>
      <point x="527.5" y="548.5" type="line" smooth="yes"/>
      <point x="659.5" y="509.0"/>
      <point x="689.0" y="479.0"/>
      <point x="689.0" y="425.5" type="curve" smooth="yes"/>
      <point x="689.0" y="361.0"/>
      <point x="638.0" y="316.5"/>
      <point x="482.0" y="316.5" type="curve" smooth="yes"/>
      <point x="348.5" y="316.5"/>
      <point x="193.5" y="343.0"/>
      <point x="76.0" y="380.5" type="curve"/>
      <point x="76.0" y="44.0" type="line"/>
      <point x="192.5" y="3.5"/>
      <point x="348.0" y="-20.0"/>
    </contour>
  </outline>
</glyph>
<glyph name="V" format="2">
  <advance width="1395.0"/>
  <unicode hex="0056"/>
  <outline>
    <contour>
      <point x="386.5" y="0.0" type="line"/>
      <point x="1008.5" y="0.0" type="line"/>
      <point x="1407.0" y="1480.0" type="line"/>
      <point x="1009.5" y="1480.0" type="line"/>
      <point x="665.5" y="161.5" type="line"/>
      <point x="750.5" y="161.5" type="line"/>
      <point x="415.0" y="1480.0" type="line"/>
      <point x="-12.0" y="1480.0" type="line"/>
    </contour>
  </outline>
</glyph>
<glyph name="W" format="2">
  <advance width="2208.0"/>
  <unicode hex="0057"/>
  <anchor x="1104.0" y="0.0" name="bottom"/>
  <anchor x="1104.0" y="1520.0" name="top"/>
  <outline>
    <contour>
      <point x="347.5" y="0.0" type="line"/>
      <point x="878.5" y="0.0" type="line"/>
      <point x="1168.5" y="1209.0" type="line"/>
      <point x="1061.0" y="1209.0" type="line"/>
      <point x="1329.5" y="0.0" type="line"/>
      <point x="1860.5" y="0.0" type="line"/>
      <point x="2199.0" y="1480.0" type="line"/>
      <point x="1811.5" y="1480.0" type="line"/>
      <point x="1524.5" y="162.5" type="line"/>
      <point x="1627.0" y="162.5" type="line"/>
      <point x="1341.5" y="1480.0" type="line"/>
      <point x="893.5" y="1480.0" type="line"/>
      <point x="588.5" y="162.5" type="line"/>
      <point x="700.5" y="162.5" type="line"/>
      <point x="424.5" y="1480.0" type="line"/>
      <point x="9.0" y="1480.0" type="line"/>
    </contour>
  </outline>
</glyph>
<glyph name="X" format="2">
  <advance width="1365.5"/>
  <unicode hex="0058"/>
  <outline>
    <contour>
      <point x="966.0" y="0.0" type="line"/>
      <point x="1414.5" y="0.0" type="line"/>
      <point x="922.0" y="779.0" type="line"/>
      <point x="682.5" y="1093.5" type="line"/>
      <point x="443.0" y="1480.0" type="line"/>
      <point x="-10.0" y="1480.0" type="line"/>
      <point x="440.5" y="775.5" type="line"/>
      <point x="680.0" y="465.5" type="line"/>
    </contour>
    <contour>
      <point x="-56.0" y="0.0" type="line"/>
      <point x="393.0" y="0.0" type="line"/>
      <point x="680.0" y="465.5" type="line"/>
      <point x="922.0" y="779.0" type="line"/>
      <point x="1364.0" y="1480.0" type="line"/>
      <point x="921.5" y="1480.0" type="line"/>
      <point x="682.5" y="1093.5" type="line"/>
      <point x="440.5" y="775.5" type="line"/>
    </contour>
  </outline>
</glyph>
<glyph name="bracketleft" format="2">
  <advance width="714.0"/>
  <unicode hex="005B"/>
  <outline>
    <contour>
      <point x="118.5" y="-440.0" type="line"/>
      <point x="737.0" y="-440.0" type="line"/>
      <point x="737.0" y="-125.0" type="line"/>
      <point x="524.0" y="-125.0" type="line"/>
      <point x="524.0" y="1301.0" type="line"/>
      <point x="742.0" y="1301.0" type="line"/>
      <point x="742.0" y="1616.0" type="line"/>
      <point x="118.5" y="1616.0" type="line"/>
    </contour>
  </outline>
</glyph>
<glyph name="backslash" format="2">
  <advance width="825.5"/>
  <unicode hex="005C"/>
  <outline>
    <contour>
      <point x="431.5" y="-240.0" type="line"/>
      <point x="825.5" y="-240.0" type="line"/>
      <point x="394.0" y="1616.0" type="line"/>
      <point x="0.0" y="1616.0" type="line"/>
    </contour>
  </outline>
</glyph>
<glyph name="bracketright" format="2">
  <advance width="714.0"/>
  <unicode hex="005D"/>
  <outline>
    <contour>
      <point x="-23.0" y="-440.0" type="line"/>
      <point x="595.5" y="-440.0" type="line"/>
      <point x="595.5" y="1616.0" type="line"/>
      <point x="-28.0" y="1616.0" type="line"/>
      <point x="-28.0" y="1301.0" type="line"/>
      <point x="190.0" y="1301.0" type="line"/>
      <point x="190.0" y="-125.0" type="line"/>
      <point x="-23.0" y="-125.0" type="line"/>
    </contour>
  </outline>
</glyph>
<glyph name="asciicircum" format="2">
  <advance width="1260.0"/>
  <unicode hex="005E"/>
  <outline>
    <contour>
      <point x="49.0" y="740.0" type="line"/>
      <point x="430.0" y="740.0" type="line"/>
      <point x="711.5" y="1273.5" type="line"/>
      <point x="548.5" y="1273.5" type="line"/>
      <point x="830.0" y="740.0" type="line"/>
      <point x="1211.0" y="740.0" type="line"/>
      <point x="806.5" y="1480.0" type="line"/>
      <point x="453.5" y="1480.0" type="line"/>
    </contour>
  </outline>
</glyph>
<glyph name="underscore" format="2">
  <advance width="1178.0"/>
  <unicode hex="005F"/>
  <outline>
    <contour>
      <point x="82.5" y="-315.5" type="line"/>
      <point x="1095.5" y="-315.5" type="line"/>
      <point x="1095.5" y="-0.5" type="line"/>
      <point x="82.5" y="-0.5" type="line"/>
    </contour>
  </outline>
</glyph>
<glyph name="b" format="2">
  <advance width="1200.5"/>
  <unicode hex="0062"/>
  <anchor x="608.0" y="0.0" name="bottom"/>
  <anchor x="291.0" y="1616.0" name="top"/>
  <outline>
    <contour>
      <point x="528.5" y="-20.5" type="curve" smooth="yes"/>
      <point x="961.5" y="-22.0"/>
      <point x="1154.0" y="191.0"/>
      <point x="1154.0" y="569.5" type="curve" smooth="yes"/>
      <point x="1154.0" y="946.0"/>
      <point x="969.0" y="1118.0"/>
      <point x="756.5" y="1118.0" type="curve" smooth="yes"/>
      <point x="647.5" y="1118.0"/>
      <point x="563.5" y="1074.0"/>
      <point x="511.5" y="992.5" type="curve"/>
      <point x="493.0" y="992.5" type="line"/>
      <point x="493.0" y="1616.0" type="line"/>
      <point x="87.5" y="1616.0" type="line"/>
      <point x="87.5" y="47.0" type="line"/>
      <point x="218.5" y="1.0"/>
      <point x="382.0" y="-20.5"/>
    </contour>
    <contour>
      <point x="563.0" y="283.5" type="curve" smooth="yes"/>
      <point x="538.0" y="283.5"/>
      <point x="514.0" y="286.5"/>
      <point x="493.0" y="291.5" type="curve"/>
      <point x="493.0" y="765.5" type="line"/>
      <point x="519.5" y="778.0"/>
      <point x="553.5" y="784.0"/>
      <point x="585.0" y="784.0" type="curve" smooth="yes"/>
      <point x="686.5" y="784.0"/>
      <point x="744.0" y="735.0"/>
      <point x="744.0" y="536.0" type="curve" smooth="yes"/>
      <point x="744.0" y="343.0"/>
      <point x="683.5" y="283.5"/>
    </contour>
  </outline>
</glyph>
<glyph name="f" format="2">
  <advance width="800.0"/>
  <unicode hex="0066"/>
  <outline>
    <contour>
      <point x="168.5" y="0.0" type="line"/>
      <point x="569.5" y="0.0" type="line"/>
      <point x="569.5" y="1154.5" type="line" smooth="yes"/>
      <point x="569.5" y="1262.5"/>
      <point x="623.5" y="1315.0"/>
      <point x="766.0" y="1315.0" type="curve" smooth="yes"/>
      <point x="795.0" y="1315.0"/>
      <point x="822.5" y="1313.0"/>
      <point x="856.5" y="1309.0" type="curve"/>
      <point x="856.5" y="1624.0" type="line"/>
      <point x="807.0" y="1632.0"/>
      <point x="755.0" y="1636.0"/>
      <point x="699.5" y="1636.0" type="curve" smooth="yes"/>
      <point x="350.0" y="1636.0"/>
      <point x="168.5" y="1446.5"/>
      <point x="168.5" y="1131.5" type="curve" smooth="yes"/>
    </contour>
    <contour>
      <point x="18.5" y="785.0" type="line"/>
      <point x="811.0" y="785.0" type="line"/>
      <point x="811.0" y="1100.0" type="line"/>
      <point x="18.5" y="1100.0" type="line"/>
    </contour>
  </outline>
</glyph>
<glyph name="j" format="2">
  <advance width="582.0"/>
  <unicode hex="006A"/>
  <anchor x="288.5" y="1200.0" name="_top"/>
  <anchor x="288.5" y="1200.0" name="top"/>
  <outline>
    <contour>
      <point x="211.5" y="-476.0" type="line"/>
      <point x="423.0" y="-258.0"/>
      <point x="494.5" y="-54.0"/>
      <point x="494.5" y="196.0" type="curve" smooth="yes"/>
      <point x="494.5" y="1100.0" type="line"/>
      <point x="87.5" y="1100.0" type="line"/>
      <point x="87.5" y="180.0" type="line" smooth="yes"/>
      <point x="87.5" y="-26.0"/>
      <point x="56.0" y="-152.0"/>
      <point x="-52.5" y="-302.0" type="curve"/>
    </contour>
    <contour>
      <point x="288.5" y="1209.0" type="curve" smooth="yes"/>
      <point x="457.5" y="1209.0"/>
      <point x="532.5" y="1286.0"/>
      <point x="532.5" y="1418.0" type="curve" smooth="yes"/>
      <point x="532.5" y="1550.0"/>
      <point x="457.5" y="1627.0"/>
      <point x="288.5" y="1627.0" type="curve" smooth="yes"/>
      <point x="119.5" y="1627.0"/>
      <point x="44.5" y="1550.0"/>
      <point x="44.5" y="1418.0" type="curve" smooth="yes"/>
      <point x="44.5" y="1286.0"/>
      <point x="119.5" y="1209.0"/>
    </contour>
  </outline>
</glyph>
<glyph name="k" format="2">
  <advance width="1181.5"/>
  <unicode hex="006B"/>
  <anchor x="626.5" y="0.0" name="bottom"/>
  <anchor x="291.0" y="1616.0" name="top"/>
  <outline>
    <contour>
      <point x="789.0" y="0.0" type="line"/>
      <point x="1224.0" y="0.0" type="line"/>
      <point x="862.5" y="629.0" type="line"/>
      <point x="862.5" y="519.0" type="line"/>
      <point x="1187.5" y="1100.0" type="line"/>
      <point x="762.5" y="1100.0" type="line"/>
      <point x="460.0" y="566.0" type="line"/>
    </contour>
    <contour>
      <point x="461.0" y="407.0" type="line"/>
      <point x="595.0" y="407.0" type="line"/>
      <point x="595.0" y="725.0" type="line"/>
      <point x="461.0" y="725.0" type="line"/>
    </contour>
    <contour>
      <point x="87.5" y="0.0" type="line"/>
      <point x="493.0" y="0.0" type="line"/>
      <point x="493.0" y="1616.0" type="line"/>
      <point x="87.5" y="1616.0" type="line"/>
    </contour>
  </outline>
</glyph>
<glyph name="m" format="2">
  <advance width="1752.5"/>
  <unicode hex="006D"/>
  <anchor x="882.5" y="0.0" name="bottom"/>
  <anchor x="882.5" y="1200.0" name="top"/>
  <outline>
    <contour>
      <point x="87.5" y="0.0" type="line"/>
      <point x="493.0" y="0.0" type="line"/>
      <point x="493.0" y="719.5" type="line"/>
      <point x="516.0" y="747.0"/>
      <point x="558.0" y="765.5"/>
      <point x="599.0" y="765.5" type="curve" smooth="yes"/>
      <point x="651.0" y="765.5"/>
      <point x="683.0" y="740.0"/>
      <point x="683.0" y="657.0" type="curve" smooth="yes"/>
      <point x="683.0" y="0.0" type="line"/>
      <point x="1080.0" y="0.0" type="line"/>
      <point x="1080.0" y="699.5" type="line" smooth="yes"/>
      <point x="1080.0" y="1002.5"/>
      <point x="935.0" y="1118.0"/>
      <point x="752.0" y="1118.0" type="curve" smooth="yes"/>
      <point x="628.5" y="1118.0"/>
      <point x="536.5" y="1074.5"/>
      <point x="467.0" y="992.0" type="curve"/>
      <point x="450.0" y="992.0" type="line"/>
      <point x="422.0" y="1100.0" type="line"/>
      <point x="87.5" y="1100.0" type="line"/>
    </contour>
    <contour>
      <point x="1265.0" y="0.0" type="line"/>
      <point x="1670.0" y="0.0" type="line"/>
      <point x="1670.0" y="680.0" type="line" smooth="yes"/>
      <point x="1670.0" y="999.5"/>
      <point x="1517.5" y="1118.0"/>
      <point x="1313.5" y="1118.0" type="curve" smooth="yes"/>
      <point x="1190.0" y="1118.0"/>
      <point x="1072.0" y="1064.5"/>
      <point x="992.5" y="959.0" type="curve"/>
      <point x="1063.5" y="719.5" type="line"/>
      <point x="1089.5" y="747.0"/>
      <point x="1132.0" y="765.5"/>
      <point x="1176.0" y="765.5" type="curve" smooth="yes"/>
      <point x="1227.5" y="765.5"/>
      <point x="1265.0" y="740.0"/>
      <point x="1265.0" y="657.0" type="curve" smooth="yes"/>
    </contour>
  </outline>
</glyph>
<glyph name="n" format="2">
  <advance width="1189.0"/>
  <unicode hex="006E"/>
  <anchor x="10.5" y="1200.0" name="apostrophe"/>
  <anchor x="598.0" y="0.0" name="bottom"/>
  <anchor x="598.0" y="1200.0" name="top"/>
  <outline>
    <contour>
      <point x="87.5" y="0.0" type="line"/>
      <point x="493.0" y="0.0" type="line"/>
      <point x="493.0" y="719.5" type="line"/>
      <point x="519.5" y="747.0"/>
      <point x="563.0" y="765.5"/>
      <point x="609.0" y="765.5" type="curve" smooth="yes"/>
      <point x="665.5" y="765.5"/>
      <point x="701.0" y="740.0"/>
      <point x="701.0" y="654.0" type="curve" smooth="yes"/>
      <point x="701.0" y="0.0" type="line"/>
      <point x="1106.5" y="0.0" type="line"/>
      <point x="1106.5" y="683.0" type="line" smooth="yes"/>
      <point x="1106.5" y="998.0"/>
      <point x="955.0" y="1118.0"/>
      <point x="753.0" y="1118.0" type="curve" smooth="yes"/>
      <point x="634.0" y="1118.0"/>
      <point x="536.5" y="1074.5"/>
      <point x="467.0" y="992.0" type="curve"/>
      <point x="450.0" y="992.0" type="line"/>
      <point x="422.0" y="1100.0" type="line"/>
      <point x="87.5" y="1100.0" type="line"/>
    </contour>
  </outline>
</glyph>
<glyph name="q" format="2">
  <advance width="1200.5"/>
  <unicode hex="0071"/>
  <outline>
    <contour>
      <point x="707.5" y="-440.0" type="line"/>
      <point x="1113.0" y="-440.0" type="line"/>
      <point x="1113.0" y="1050.5" type="line"/>
      <point x="986.5" y="1095.0"/>
      <point x="818.5" y="1118.0"/>
      <point x="672.0" y="1118.0" type="curve" smooth="yes"/>
      <point x="239.0" y="1118.0"/>
      <point x="46.5" y="906.5"/>
      <point x="46.5" y="528.0" type="curve" smooth="yes"/>
      <point x="46.5" y="151.5"/>
      <point x="231.5" y="-20.5"/>
      <point x="444.0" y="-20.5" type="curve" smooth="yes"/>
      <point x="553.0" y="-20.5"/>
      <point x="637.0" y="23.5"/>
      <point x="689.0" y="105.0" type="curve"/>
      <point x="707.5" y="105.0" type="line"/>
    </contour>
    <contour>
      <point x="615.5" y="313.5" type="curve" smooth="yes"/>
      <point x="514.0" y="313.5"/>
      <point x="456.5" y="362.5"/>
      <point x="456.5" y="561.5" type="curve" smooth="yes"/>
      <point x="456.5" y="754.5"/>
      <point x="522.0" y="814.0"/>
      <point x="636.0" y="814.0" type="curve" smooth="yes"/>
      <point x="661.5" y="814.0"/>
      <point x="686.5" y="811.0"/>
      <point x="707.5" y="807.5" type="curve"/>
      <point x="707.5" y="332.0" type="line"/>
      <point x="681.0" y="319.5"/>
      <point x="647.0" y="313.5"/>
    </contour>
  </outline>
</glyph>
<glyph name="s" format="2">
  <advance width="941.0"/>
  <unicode hex="0073"/>
  <anchor x="469.5" y="0.0" name="bottom"/>
  <anchor x="469.5" y="1200.0" name="top"/>
  <outline>
    <contour>
      <point x="416.5" y="-22.0" type="curve" smooth="yes"/>
      <point x="725.0" y="-22.0"/>
      <point x="914.0" y="120.0"/>
      <point x="914.0" y="351.5" type="curve" smooth="yes"/>
      <point x="914.0" y="552.5"/>
      <point x="810.0" y="640.0"/>
      <point x="635.5" y="675.5" type="curve" smooth="yes"/>
      <point x="456.5" y="711.5" type="line" smooth="yes"/>
      <point x="420.0" y="719.0"/>
      <point x="405.0" y="729.0"/>
      <point x="405.0" y="751.5" type="curve" smooth="yes"/>
      <point x="405.0" y="782.5"/>
      <point x="434.5" y="815.5"/>
      <point x="582.5" y="815.5" type="curve" smooth="yes"/>
      <point x="680.5" y="815.5"/>
      <point x="773.5" y="803.0"/>
      <point x="852.0" y="781.5" type="curve"/>
      <point x="852.0" y="1084.5" type="line"/>
      <point x="773.5" y="1104.5"/>
      <point x="671.5" y="1118.0"/>
      <point x="565.0" y="1118.0" type="curve" smooth="yes"/>
      <point x="210.0" y="1118.0"/>
      <point x="35.0" y="973.0"/>
      <point x="35.0" y="748.0" type="curve" smooth="yes"/>
      <point x="35.0" y="559.5"/>
      <point x="132.0" y="456.0"/>
      <point x="315.5" y="420.5" type="curve" smooth="yes"/>
      <point x="494.5" y="384.5" type="line" smooth="yes"/>
      <point x="531.0" y="377.0"/>
      <point x="544.0" y="365.5"/>
      <point x="544.0" y="340.5" type="curve" smooth="yes"/>
      <point x="544.0" y="305.0"/>
      <point x="514.5" y="280.5"/>
      <point x="408.5" y="280.5" type="curve" smooth="yes"/>
      <point x="287.0" y="280.5"/>
      <point x="167.0" y="299.5"/>
      <point x="71.0" y="330.5" type="curve"/>
      <point x="71.0" y="27.5" type="line"/>
      <point x="174.5" y="-6.5"/>
      <point x="293.0" y="-22.0"/>
    </contour>
  </outline>
</glyph>
<glyph name="t" format="2">
  <advance width="847.0"/>
  <unicode hex="0074"/>
  <anchor x="484.0" y="0.0" name="bottom"/>
  <anchor x="668.5" y="1616.0" name="caronalt"/>
  <anchor x="160.5" y="560.5" name="stroke"/>
  <anchor x="364.0" y="1520.0" name="top"/>
  <anchor x="768.5" y="1616.0" name="topright"/>
  <outline>
    <contour>
      <point x="594.5" y="-20.5" type="curve" smooth="yes"/>
      <point x="668.0" y="-20.5"/>
      <point x="750.5" y="-9.5"/>
      <point x="807.5" y="4.5" type="curve"/>
      <point x="807.5" y="325.5" type="line"/>
      <point x="767.5" y="320.5"/>
      <point x="738.0" y="316.5"/>
      <point x="708.5" y="316.5" type="curve" smooth="yes"/>
      <point x="601.0" y="316.5"/>
      <point x="566.0" y="354.5"/>
      <point x="566.0" y="480.5" type="curve" smooth="yes"/>
      <point x="566.0" y="1480.0" type="line"/>
      <point x="236.0" y="1480.0" type="line"/>
      <point x="160.5" y="1100.0" type="line"/>
      <point x="160.5" y="425.5" type="line" smooth="yes"/>
      <point x="160.5" y="112.5"/>
      <point x="315.0" y="-20.5"/>
    </contour>
    <contour>
      <point x="10.5" y="785.0" type="line"/>
      <point x="807.5" y="785.0" type="line"/>
      <point x="807.5" y="1100.0" type="line"/>
      <point x="10.5" y="1100.0" type="line"/>
    </contour>
  </outline>
</glyph>
<glyph name="v" format="2">
  <advance width="1145.0"/>
  <unicode hex="0076"/>
  <anchor x="572.5" y="0.0" name="bottom"/>
  <anchor x="572.5" y="1200.0" name="top"/>
  <outline>
    <contour>
      <point x="315.0" y="0.0" type="line"/>
      <point x="829.5" y="0.0" type="line"/>
      <point x="1156.0" y="1100.0" type="line"/>
      <point x="758.0" y="1100.0" type="line"/>
      <point x="569.5" y="331.0" type="line"/>
      <point x="596.5" y="331.0" type="line"/>
      <point x="408.0" y="1100.0" type="line"/>
      <point x="-11.0" y="1100.0" type="line"/>
    </contour>
  </outline>
</glyph>
<glyph name="x" format="2">
  <advance width="1128.0"/>
  <unicode hex="0078"/>
  <anchor x="564.0" y="0.0" name="bottom"/>
  <anchor x="565.5" y="1200.0" name="top"/>
  <outline>
    <contour>
      <point x="719.5" y="0.0" type="line"/>
      <point x="1159.0" y="0.0" type="line"/>
      <point x="802.5" y="558.5" type="line"/>
      <point x="568.5" y="847.0" type="line"/>
      <point x="417.5" y="1100.0" type="line"/>
      <point x="-22.0" y="1100.0" type="line"/>
      <point x="323.0" y="554.0" type="line"/>
      <point x="561.5" y="268.5" type="line"/>
    </contour>
    <contour>
      <point x="-28.5" y="0.0" type="line"/>
      <point x="398.5" y="0.0" type="line"/>
      <point x="561.5" y="268.5" type="line"/>
      <point x="802.5" y="558.5" type="line"/>
      <point x="1145.0" y="1100.0" type="line"/>
      <point x="718.0" y="1100.0" type="line"/>
      <point x="568.5" y="847.0" type="line"/>
      <point x="323.0" y="554.0" type="line"/>
    </contour>
  </outline>
</glyph>
<glyph name="braceleft" format="2">
  <advance width="754.0"/>
  <unicode hex="007B"/>
  <outline>
    <contour>
      <point x="593.5" y="-460.0" type="curve" smooth="yes"/>
      <point x="667.0" y="-460.0"/>
      <point x="727.5" y="-454.0"/>
      <point x="782.0" y="-446.0" type="curve"/>
      <point x="782.0" y="-139.0" type="line"/>
      <point x="666.5" y="-139.0" type="line" smooth="yes"/>
      <point x="599.5" y="-139.0"/>
      <point x="564.0" y="-113.0"/>
      <point x="564.0" y="-50.0" type="curve" smooth="yes"/>
      <point x="564.0" y="352.0" type="line" smooth="yes"/>
      <point x="564.0" y="548.0"/>
      <point x="462.0" y="656.0"/>
      <point x="179.0" y="656.0" type="curve"/>
      <point x="179.0" y="608.0" type="line"/>
      <point x="462.0" y="608.0"/>
      <point x="564.0" y="716.0"/>
      <point x="564.0" y="912.0" type="curve" smooth="yes"/>
      <point x="564.0" y="1226.0" type="line" smooth="yes"/>
      <point x="564.0" y="1289.0"/>
      <point x="599.5" y="1315.0"/>
      <point x="666.5" y="1315.0" type="curve" smooth="yes"/>
      <point x="782.0" y="1315.0" type="line"/>
      <point x="782.0" y="1622.0" type="line"/>
      <point x="727.5" y="1630.0"/>
      <point x="667.0" y="1636.0"/>
      <point x="593.5" y="1636.0" type="curve" smooth="yes"/>
      <point x="305.0" y="1636.0"/>
      <point x="158.5" y="1495.0"/>
      <point x="158.5" y="1232.0" type="curve" smooth="yes"/>
      <point x="158.5" y="894.0" type="line" smooth="yes"/>
      <point x="158.5" y="831.5"/>
      <point x="116.5" y="789.5"/>
      <point x="54.0" y="789.5" type="curve" smooth="yes"/>
      <point x="-11.0" y="789.5" type="line"/>
      <point x="-11.0" y="474.5" type="line"/>
      <point x="54.0" y="474.5" type="line" smooth="yes"/>
      <point x="116.5" y="474.5"/>
      <point x="158.5" y="432.5"/>
      <point x="158.5" y="370.0" type="curve" smooth="yes"/>
      <point x="158.5" y="-56.0" type="line" smooth="yes"/>
      <point x="158.5" y="-319.0"/>
      <point x="305.0" y="-460.0"/>
    </contour>
  </outline>
</glyph>
<glyph name="bar" format="2">
  <advance width="557.0"/>
  <unicode hex="007C"/>
  <outline>
    <contour>
      <point x="98.5" y="-440.0" type="line"/>
      <point x="458.5" y="-440.0" type="line"/>
      <point x="458.5" y="1616.0" type="line"/>
      <point x="98.5" y="1616.0" type="line"/>
    </contour>
  </outline>
</glyph>
<glyph name="braceright" format="2">
  <advance width="754.0"/>
  <unicode hex="007D"/>
  <outline>
    <contour>
      <point x="160.5" y="-460.0" type="curve" smooth="yes"/>
      <point x="449.0" y="-460.0"/>
      <point x="595.5" y="-319.0"/>
      <point x="595.5" y="-56.0" type="curve" smooth="yes"/>
      <point x="595.5" y="370.0" type="line" smooth="yes"/>
      <point x="595.5" y="432.5"/>
      <point x="637.5" y="474.5"/>
      <point x="700.0" y="474.5" type="curve" smooth="yes"/>
      <point x="765.0" y="474.5" type="line"/>
      <point x="765.0" y="789.5" type="line"/>
      <point x="700.0" y="789.5" type="line" smooth="yes"/>
      <point x="637.5" y="789.5"/>
      <point x="595.5" y="831.5"/>
      <point x="595.5" y="894.0" type="curve" smooth="yes"/>
      <point x="595.5" y="1232.0" type="line" smooth="yes"/>
      <point x="595.5" y="1495.0"/>
      <point x="449.0" y="1636.0"/>
      <point x="160.5" y="1636.0" type="curve" smooth="yes"/>
      <point x="87.0" y="1636.0"/>
      <point x="26.5" y="1630.0"/>
      <point x="-28.0" y="1622.0" type="curve"/>
      <point x="-28.0" y="1315.0" type="line"/>
      <point x="87.5" y="1315.0" type="line" smooth="yes"/>
      <point x="154.5" y="1315.0"/>
      <point x="190.0" y="1289.0"/>
      <point x="190.0" y="1226.0" type="curve" smooth="yes"/>
      <point x="190.0" y="912.0" type="line" smooth="yes"/>
      <point x="190.0" y="716.0"/>
      <point x="296.5" y="608.0"/>
      <point x="575.0" y="608.0" type="curve"/>
      <point x="575.0" y="656.0" type="line"/>
      <point x="296.5" y="656.0"/>
      <point x="190.0" y="548.0"/>
      <point x="190.0" y="352.0" type="curve" smooth="yes"/>
      <point x="190.0" y="-50.0" type="line" smooth="yes"/>
      <point x="190.0" y="-113.0"/>
      <point x="154.5" y="-139.0"/>
      <point x="87.5" y="-139.0" type="curve" smooth="yes"/>
      <point x="-28.0" y="-139.0" type="line"/>
      <point x="-28.0" y="-446.0" type="line"/>
      <point x="26.5" y="-454.0"/>
      <point x="87.0" y="-460.0"/>
    </contour>
  </outline>
</glyph>
<glyph name="asciitilde" format="2">
  <advance width="1076.0"/>
  <unicode hex="007E"/>
  <outline>
    <contour>
      <point x="739.0" y="549.0" type="curve" smooth="yes"/>
      <point x="847.5" y="549.0"/>
      <point x="921.5" y="579.0"/>
      <point x="989.0" y="651.0" type="curve"/>
      <point x="989.0" y="963.0" type="line"/>
      <point x="909.0" y="885.0"/>
      <point x="837.5" y="853.0"/>
      <point x="743.0" y="853.0" type="curve" smooth="yes"/>
      <point x="614.0" y="853.0"/>
      <point x="497.0" y="971.0"/>
      <point x="337.0" y="971.0" type="curve" smooth="yes"/>
      <point x="228.5" y="971.0"/>
      <point x="154.5" y="941.0"/>
      <point x="87.0" y="869.0" type="curve"/>
      <point x="87.0" y="557.0" type="line"/>
      <point x="167.0" y="635.0"/>
      <point x="238.5" y="667.0"/>
      <point x="333.0" y="667.0" type="curve" smooth="yes"/>
      <point x="462.0" y="667.0"/>
      <point x="579.0" y="549.0"/>
    </contour>
  </outline>
</glyph>
<glyph name="exclamdown" format="2">
  <advance width="622.0"/>
  <unicode hex="00A1"/>
  <outline>
    <contour>
      <point x="190.0" y="549.0" type="line"/>
      <point x="94.0" y="94.5" type="line"/>
      <point x="94.0" y="-380.0" type="line"/>
      <point x="528.0" y="-380.0" type="line"/>
      <point x="528.0" y="94.5" type="line"/>
      <point x="436.5" y="549.0" type="line"/>
    </contour>
    <contour>
      <point x="311.0" y="1120.0" type="curve" smooth="yes"/>
      <point x="157.5" y="1120.0"/>
      <point x="54.0" y="1026.5"/>
      <point x="54.0" y="874.5" type="curve" smooth="yes"/>
      <point x="54.0" y="722.5"/>
      <point x="153.5" y="629.0"/>
      <point x="311.0" y="629.0" type="curve" smooth="yes"/>
      <point x="468.5" y="629.0"/>
      <point x="568.0" y="726.5"/>
      <point x="568.0" y="874.5" type="curve" smooth="yes"/>
      <point x="568.0" y="1022.5"/>
      <point x="464.5" y="1120.0"/>
    </contour>
  </outline>
</glyph>
<glyph name="sterling" format="2">
  <advance width="1300.5"/>
  <unicode hex="00A3"/>
  <outline>
    <contour>
      <point x="230.0" y="124.0" type="line"/>
      <point x="633.0" y="124.0" type="line"/>
      <point x="633.0" y="1005.0" type="line" smooth="yes"/>
      <point x="633.0" y="1115.0"/>
      <point x="694.5" y="1163.5"/>
      <point x="921.5" y="1163.5" type="curve" smooth="yes"/>
      <point x="1014.5" y="1163.5"/>
      <point x="1132.0" y="1149.5"/>
      <point x="1217.0" y="1127.5" type="curve"/>
      <point x="1217.0" y="1464.0" type="line"/>
      <point x="1127.5" y="1485.0"/>
      <point x="1009.0" y="1500.0"/>
      <point x="887.0" y="1500.0" type="curve" smooth="yes"/>
      <point x="440.0" y="1500.0"/>
      <point x="230.0" y="1315.5"/>
      <point x="230.0" y="991.0" type="curve" smooth="yes"/>
    </contour>
    <contour>
      <point x="60.0" y="0.0" type="line"/>
      <point x="1257.5" y="0.0" type="line"/>
      <point x="1257.5" y="338.0" type="line"/>
      <point x="60.0" y="338.0" type="line"/>
    </contour>
    <contour>
      <point x="60.0" y="597.5" type="line"/>
      <point x="1037.0" y="597.5" type="line"/>
      <point x="1037.0" y="902.5" type="line"/>
      <point x="60.0" y="902.5" type="line"/>
    </contour>
  </outline>
</glyph>
<glyph name="yen" format="2">
  <advance width="1271.5"/>
  <unicode hex="00A5"/>
  <outline>
    <contour>
      <point x="431.0" y="0.0" type="line"/>
      <point x="844.0" y="0.0" type="line"/>
      <point x="844.0" y="771.5" type="line"/>
      <point x="761.0" y="461.5" type="line"/>
      <point x="1331.5" y="1480.0" type="line"/>
      <point x="932.5" y="1480.0" type="line"/>
      <point x="594.5" y="870.5" type="line"/>
      <point x="702.5" y="870.5" type="line"/>
      <point x="363.5" y="1480.0" type="line"/>
      <point x="-69.5" y="1480.0" type="line"/>
      <point x="514.0" y="461.5" type="line"/>
      <point x="431.0" y="777.5" type="line"/>
    </contour>
    <contour>
      <point x="131.0" y="244.5" type="line"/>
      <point x="1144.0" y="244.5" type="line"/>
      <point x="1144.0" y="482.5" type="line"/>
      <point x="131.0" y="482.5" type="line"/>
    </contour>
    <contour>
      <point x="131.0" y="565.5" type="line"/>
      <point x="1144.0" y="565.5" type="line"/>
      <point x="1144.0" y="803.5" type="line"/>
      <point x="131.0" y="803.5" type="line"/>
    </contour>
  </outline>
</glyph>
<glyph name="brokenbar" format="2">
  <advance width="557.0"/>
  <unicode hex="00A6"/>
  <outline>
    <contour>
      <point x="98.5" y="836.0" type="line"/>
      <point x="458.5" y="836.0" type="line"/>
      <point x="458.5" y="1616.0" type="line"/>
      <point x="98.5" y="1616.0" type="line"/>
    </contour>
    <contour>
      <point x="98.5" y="-440.0" type="line"/>
      <point x="458.5" y="-440.0" type="line"/>
      <point x="458.5" y="340.0" type="line"/>
      <point x="98.5" y="340.0" type="line"/>
    </contour>
  </outline>
</glyph>
<glyph name="section" format="2">
  <advance width="1076.0"/>
  <unicode hex="00A7"/>
  <outline>
    <contour>
      <point x="449.5" y="-22.0" type="curve" smooth="yes"/>
      <point x="778.5" y="-22.0"/>
      <point x="962.5" y="120.0"/>
      <point x="962.5" y="342.5" type="curve" smooth="yes"/>
      <point x="962.5" y="504.0"/>
      <point x="860.0" y="585.5"/>
      <point x="693.0" y="622.0" type="curve" smooth="yes"/>
      <point x="469.0" y="669.0" type="line" smooth="yes"/>
      <point x="408.5" y="682.5"/>
      <point x="391.0" y="709.0"/>
      <point x="391.0" y="750.5" type="curve" smooth="yes"/>
      <point x="391.0" y="793.0"/>
      <point x="408.5" y="823.0"/>
      <point x="448.0" y="872.0" type="curve"/>
      <point x="236.0" y="1008.0" type="line"/>
      <point x="133.5" y="946.0"/>
      <point x="65.0" y="858.0"/>
      <point x="65.0" y="732.0" type="curve" smooth="yes"/>
      <point x="65.0" y="542.0"/>
      <point x="174.0" y="449.0"/>
      <point x="324.5" y="416.0" type="curve" smooth="yes"/>
      <point x="548.0" y="368.0" type="line" smooth="yes"/>
      <point x="583.0" y="360.5"/>
      <point x="598.0" y="348.0"/>
      <point x="598.0" y="322.0" type="curve" smooth="yes"/>
      <point x="598.0" y="288.0"/>
      <point x="570.0" y="262.0"/>
      <point x="444.5" y="262.0" type="curve" smooth="yes"/>
      <point x="335.5" y="262.0"/>
      <point x="222.0" y="276.0"/>
      <point x="124.5" y="302.0" type="curve"/>
      <point x="124.5" y="18.0" type="line"/>
      <point x="228.0" y="-9.0"/>
      <point x="346.5" y="-22.0"/>
    </contour>
    <contour>
      <point x="822.5" y="460.0" type="line"/>
      <point x="934.0" y="524.0"/>
      <point x="1011.0" y="616.0"/>
      <point x="1011.0" y="750.0" type="curve" smooth="yes"/>
      <point x="1011.0" y="942.0"/>
      <point x="908.5" y="1029.5"/>
      <point x="754.0" y="1062.0" type="curve" smooth="yes"/>
      <point x="525.5" y="1108.0" type="line" smooth="yes"/>
      <point x="490.5" y="1115.5"/>
      <point x="473.0" y="1126.0"/>
      <point x="473.0" y="1150.0" type="curve" smooth="yes"/>
      <point x="473.0" y="1180.0"/>
      <point x="505.5" y="1214.0"/>
      <point x="680.0" y="1214.0" type="curve" smooth="yes"/>
      <point x="760.5" y="1214.0"/>
      <point x="841.0" y="1207.0"/>
      <point x="920.5" y="1190.0" type="curve"/>
      <point x="920.5" y="1474.0" type="line"/>
      <point x="842.0" y="1489.0"/>
      <point x="745.0" y="1498.0"/>
      <point x="649.5" y="1498.0" type="curve" smooth="yes"/>
      <point x="274.0" y="1498.0"/>
      <point x="108.5" y="1353.0"/>
      <point x="108.5" y="1129.5" type="curve" smooth="yes"/>
      <point x="108.5" y="980.0"/>
      <point x="215.5" y="889.5"/>
      <point x="385.5" y="854.0" type="curve" smooth="yes"/>
      <point x="609.0" y="807.0" type="line" smooth="yes"/>
      <point x="669.5" y="793.5"/>
      <point x="685.0" y="765.0"/>
      <point x="685.0" y="729.0" type="curve" smooth="yes"/>
      <point x="685.0" y="692.5"/>
      <point x="668.5" y="665.5"/>
      <point x="604.0" y="611.5" type="curve"/>
    </contour>
  </outline>
</glyph>
<glyph name="copyright" format="2">
  <advance width="1623.0"/>
  <unicode hex="00A9"/>
  <outline>
    <contour>
      <point x="811.5" y="-22.0" type="curve" smooth="yes"/>
      <point x="1263.5" y="-22.0"/>
      <point x="1561.5" y="282.0"/>
      <point x="1561.5" y="740.0" type="curve" smooth="yes"/>
      <point x="1561.5" y="1198.0"/>
      <point x="1263.5" y="1502.0"/>
      <point x="811.5" y="1502.0" type="curve" smooth="yes"/>
      <point x="359.5" y="1502.0"/>
      <point x="61.5" y="1198.0"/>
      <point x="61.5" y="740.0" type="curve" smooth="yes"/>
      <point x="61.5" y="282.0"/>
      <point x="359.5" y="-22.0"/>
    </contour>
    <contour>
      <point x="881.5" y="324.0" type="curve" smooth="yes"/>
      <point x="963.5" y="324.0"/>
      <point x="1035.5" y="336.0"/>
      <point x="1085.5" y="354.0" type="curve"/>
      <point x="1085.5" y="604.0" type="line"/>
      <point x="1007.5" y="586.0"/>
      <point x="965.5" y="580.0"/>
      <point x="909.5" y="580.0" type="curve" smooth="yes"/>
      <point x="797.5" y="580.0"/>
      <point x="735.5" y="634.0"/>
      <point x="735.5" y="732.0" type="curve" smooth="yes"/>
      <point x="735.5" y="832.0"/>
      <point x="791.5" y="888.0"/>
      <point x="921.5" y="888.0" type="curve" smooth="yes"/>
      <point x="977.5" y="888.0"/>
      <point x="1025.5" y="882.0"/>
      <point x="1085.5" y="872.0" type="curve"/>
      <point x="1085.5" y="1122.0" type="line"/>
      <point x="1029.5" y="1136.0"/>
      <point x="967.5" y="1144.0"/>
      <point x="893.5" y="1144.0" type="curve" smooth="yes"/>
      <point x="613.5" y="1144.0"/>
      <point x="435.5" y="992.0"/>
      <point x="435.5" y="732.0" type="curve" smooth="yes"/>
      <point x="435.5" y="474.0"/>
      <point x="609.5" y="324.0"/>
    </contour>
    <contour>
      <point x="811.5" y="190.0" type="curve" smooth="yes"/>
      <point x="473.5" y="190.0"/>
      <point x="283.5" y="400.0"/>
      <point x="283.5" y="740.0" type="curve" smooth="yes"/>
      <point x="283.5" y="1080.0"/>
      <point x="473.5" y="1290.0"/>
      <point x="811.5" y="1290.0" type="curve" smooth="yes"/>
      <point x="1149.5" y="1290.0"/>
      <point x="1339.5" y="1080.0"/>
      <point x="1339.5" y="740.0" type="curve" smooth="yes"/>
      <point x="1339.5" y="400.0"/>
      <point x="1149.5" y="190.0"/>
    </contour>
  </outline>
</glyph>
<glyph name="ordfeminine" format="2">
  <advance width="910.0"/>
  <unicode hex="00AA"/>
  <outline>
    <contour>
      <point x="297.5" y="592.0" type="curve" smooth="yes"/>
      <point x="383.0" y="592.0"/>
      <point x="461.0" y="618.5"/>
      <point x="503.0" y="694.5" type="curve"/>
      <point x="519.5" y="694.5" type="line"/>
      <point x="546.5" y="610.0" type="line"/>
      <point x="854.0" y="610.0" type="line"/>
      <point x="854.0" y="1095.5" type="line" smooth="yes"/>
      <point x="854.0" y="1395.0"/>
      <point x="719.0" y="1502.0"/>
      <point x="399.5" y="1502.0" type="curve" smooth="yes"/>
      <point x="300.5" y="1502.0"/>
      <point x="186.5" y="1490.0"/>
      <point x="91.5" y="1467.5" type="curve"/>
      <point x="91.5" y="1191.0" type="line"/>
      <point x="163.0" y="1210.0"/>
      <point x="246.5" y="1221.0"/>
      <point x="320.0" y="1221.0" type="curve" smooth="yes"/>
      <point x="457.5" y="1221.0"/>
      <point x="482.5" y="1190.0"/>
      <point x="482.5" y="1137.5" type="curve" smooth="yes"/>
      <point x="482.5" y="847.0" type="line"/>
      <point x="471.0" y="844.0"/>
      <point x="455.5" y="843.5"/>
      <point x="445.5" y="843.5" type="curve" smooth="yes"/>
      <point x="405.0" y="843.5"/>
      <point x="377.5" y="863.0"/>
      <point x="377.5" y="908.5" type="curve" smooth="yes"/>
      <point x="377.5" y="948.5"/>
      <point x="402.5" y="969.0"/>
      <point x="457.0" y="971.0" type="curve" smooth="yes"/>
      <point x="576.0" y="974.0" type="line"/>
      <point x="525.5" y="1154.0" type="line"/>
      <point x="402.5" y="1149.0" type="line" smooth="yes"/>
      <point x="123.0" y="1137.5"/>
      <point x="13.5" y="1042.5"/>
      <point x="13.5" y="858.5" type="curve" smooth="yes"/>
      <point x="13.5" y="705.0"/>
      <point x="119.0" y="592.0"/>
    </contour>
  </outline>
</glyph>
<glyph name="guillemetleft" format="2">
  <advance width="1276.0"/>
  <unicode hex="00AB"/>
  <outline>
    <contour>
      <point x="286.0" y="130.0" type="line"/>
      <point x="691.0" y="130.0" type="line"/>
      <point x="468.0" y="570.0" type="line"/>
      <point x="691.0" y="1010.0" type="line"/>
      <point x="286.0" y="1010.0" type="line"/>
      <point x="63.0" y="570.0" type="line"/>
    </contour>
    <contour>
      <point x="848.0" y="130.0" type="line"/>
      <point x="1253.0" y="130.0" type="line"/>
      <point x="1030.0" y="570.0" type="line"/>
      <point x="1253.0" y="1010.0" type="line"/>
      <point x="848.0" y="1010.0" type="line"/>
      <point x="625.0" y="570.0" type="line"/>
    </contour>
  </outline>
</glyph>
<glyph name="logicalnot" format="2">
  <advance width="1286.0"/>
  <unicode hex="00AC"/>
  <outline>
    <contour>
      <point x="880.5" y="195.0" type="line"/>
      <point x="1203.5" y="195.0" type="line"/>
      <point x="1203.5" y="915.0" type="line"/>
      <point x="87.0" y="915.0" type="line"/>
      <point x="87.0" y="605.0" type="line"/>
      <point x="880.5" y="605.0" type="line"/>
    </contour>
  </outline>
</glyph>
<glyph name="registered" format="2">
  <advance width="1375.0"/>
  <unicode hex="00AE"/>
  <outline>
    <contour>
      <point x="687.5" y="268.0" type="curve" smooth="yes"/>
      <point x="1049.5" y="268.0"/>
      <point x="1297.5" y="518.0"/>
      <point x="1297.5" y="882.0" type="curve" smooth="yes"/>
      <point x="1297.5" y="1246.0"/>
      <point x="1049.5" y="1498.0"/>
      <point x="687.5" y="1498.0" type="curve" smooth="yes"/>
      <point x="325.5" y="1498.0"/>
      <point x="77.5" y="1246.0"/>
      <point x="77.5" y="882.0" type="curve" smooth="yes"/>
      <point x="77.5" y="518.0"/>
      <point x="325.5" y="268.0"/>
    </contour>
    <contour>
      <point x="793.5" y="600.0" type="line"/>
      <point x="975.5" y="600.0" type="line"/>
      <point x="823.5" y="820.0" type="line"/>
      <point x="659.5" y="794.0" type="line"/>
    </contour>
    <contour>
      <point x="687.5" y="424.0" type="curve" smooth="yes"/>
      <point x="419.5" y="424.0"/>
      <point x="245.5" y="604.0"/>
      <point x="245.5" y="882.0" type="curve" smooth="yes"/>
      <point x="245.5" y="1162.0"/>
      <point x="419.5" y="1342.0"/>
      <point x="687.5" y="1342.0" type="curve" smooth="yes"/>
      <point x="955.5" y="1342.0"/>
      <point x="1129.5" y="1162.0"/>
      <point x="1129.5" y="882.0" type="curve" smooth="yes"/>
      <point x="1129.5" y="604.0"/>
      <point x="955.5" y="424.0"/>
    </contour>
    <contour>
      <point x="465.5" y="600.0" type="line"/>
      <point x="631.5" y="600.0" type="line"/>
      <point x="637.5" y="786.0" type="line"/>
      <point x="679.5" y="786.0" type="line" smooth="yes"/>
      <point x="859.5" y="786.0"/>
      <point x="943.5" y="850.0"/>
      <point x="943.5" y="988.0" type="curve" smooth="yes"/>
      <point x="943.5" y="1126.0"/>
      <point x="857.5" y="1192.0"/>
      <point x="679.5" y="1192.0" type="curve" smooth="yes"/>
      <point x="465.5" y="1192.0" type="line"/>
    </contour>
    <contour>
      <point x="637.5" y="918.0" type="line"/>
      <point x="637.5" y="1060.0" type="line"/>
      <point x="705.5" y="1060.0" type="line" smooth="yes"/>
      <point x="753.5" y="1060.0"/>
      <point x="781.5" y="1036.0"/>
      <point x="781.5" y="988.0" type="curve" smooth="yes"/>
      <point x="781.5" y="940.0"/>
      <point x="755.5" y="918.0"/>
      <point x="705.5" y="918.0" type="curve" smooth="yes"/>
    </contour>
  </outline>
</glyph>
<glyph name="degree" format="2">
  <advance width="937.0"/>
  <unicode hex="00B0"/>
  <outline>
    <contour>
      <point x="468.5" y="732.0" type="curve" smooth="yes"/>
      <point x="693.5" y="732.0"/>
      <point x="859.5" y="894.0"/>
      <point x="859.5" y="1117.0" type="curve" smooth="yes"/>
      <point x="859.5" y="1340.0"/>
      <point x="693.5" y="1500.0"/>
      <point x="468.5" y="1500.0" type="curve" smooth="yes"/>
      <point x="243.5" y="1500.0"/>
      <point x="77.5" y="1340.0"/>
      <point x="77.5" y="1117.0" type="curve" smooth="yes"/>
      <point x="77.5" y="894.0"/>
      <point x="243.5" y="732.0"/>
    </contour>
    <contour>
      <point x="468.5" y="963.5" type="curve" smooth="yes"/>
      <point x="387.0" y="963.5"/>
      <point x="325.0" y="1021.5"/>
      <point x="325.0" y="1117.0" type="curve" smooth="yes"/>
      <point x="325.0" y="1213.0"/>
      <point x="389.0" y="1268.5"/>
      <point x="468.5" y="1268.5" type="curve" smooth="yes"/>
      <point x="548.0" y="1268.5"/>
      <point x="612.0" y="1213.0"/>
      <point x="612.0" y="1117.0" type="curve" smooth="yes"/>
      <point x="612.0" y="1021.5"/>
      <point x="550.0" y="963.5"/>
    </contour>
  </outline>
</glyph>
<glyph name="plusminus" format="2">
  <advance width="1076.0"/>
  <unicode hex="00B1"/>
  <outline>
    <contour>
      <point x="376.5" y="392.0" type="line"/>
      <point x="699.5" y="392.0" type="line"/>
      <point x="699.5" y="676.0" type="line"/>
      <point x="989.0" y="676.0" type="line"/>
      <point x="989.0" y="986.0" type="line"/>
      <point x="699.5" y="986.0" type="line"/>
      <point x="699.5" y="1270.0" type="line"/>
      <point x="376.5" y="1270.0" type="line"/>
      <point x="376.5" y="986.0" type="line"/>
      <point x="87.0" y="986.0" type="line"/>
      <point x="87.0" y="676.0" type="line"/>
      <point x="376.5" y="676.0" type="line"/>
    </contour>
    <contour>
      <point x="87.0" y="1.5" type="line"/>
      <point x="989.0" y="1.5" type="line"/>
      <point x="989.0" y="311.5" type="line"/>
      <point x="87.0" y="311.5" type="line"/>
    </contour>
  </outline>
</glyph>
<glyph name="threesuperior" format="2">
  <advance width="860.0"/>
  <unicode hex="00B3"/>
  <outline>
    <contour>
      <point x="332.5" y="-150.0" type="curve" smooth="yes"/>
      <point x="624.5" y="-150.0"/>
      <point x="777.5" y="-40.5"/>
      <point x="777.5" y="147.5" type="curve" smooth="yes"/>
      <point x="777.5" y="278.0"/>
      <point x="708.5" y="360.0"/>
      <point x="576.5" y="382.0" type="curve"/>
      <point x="576.5" y="374.5" type="line"/>
      <point x="683.0" y="398.5"/>
      <point x="747.0" y="483.5"/>
      <point x="747.0" y="601.0" type="curve" smooth="yes"/>
      <point x="747.0" y="778.0"/>
      <point x="612.0" y="878.0"/>
      <point x="342.0" y="878.0" type="curve" smooth="yes"/>
      <point x="253.0" y="878.0"/>
      <point x="145.0" y="863.0"/>
      <point x="79.0" y="842.5" type="curve"/>
      <point x="79.0" y="610.0" type="line"/>
      <point x="140.0" y="633.0"/>
      <point x="228.5" y="646.5"/>
      <point x="298.5" y="646.5" type="curve" smooth="yes"/>
      <point x="404.5" y="646.5"/>
      <point x="444.0" y="619.5"/>
      <point x="444.0" y="567.5" type="curve" smooth="yes"/>
      <point x="444.0" y="521.0"/>
      <point x="414.0" y="491.5"/>
      <point x="323.5" y="491.5" type="curve" smooth="yes"/>
      <point x="153.0" y="491.5" type="line"/>
      <point x="153.0" y="255.0" type="line"/>
      <point x="331.5" y="255.0" type="line" smooth="yes"/>
      <point x="438.5" y="255.0"/>
      <point x="477.0" y="228.5"/>
      <point x="477.0" y="169.5" type="curve" smooth="yes"/>
      <point x="477.0" y="110.5"/>
      <point x="436.0" y="82.0"/>
      <point x="318.0" y="82.0" type="curve" smooth="yes"/>
      <point x="244.5" y="82.0"/>
      <point x="147.5" y="93.0"/>
      <point x="69.5" y="112.5" type="curve"/>
      <point x="69.5" y="-120.0" type="line"/>
      <point x="152.5" y="-139.5"/>
      <point x="243.5" y="-150.0"/>
    </contour>
  </outline>
</glyph>
<glyph name="paragraph" format="2">
  <advance width="1295.5"/>
  <unicode hex="00B6"/>
  <outline>
    <contour>
      <point x="516.0" y="0.0" type="line"/>
      <point x="796.5" y="0.0" type="line"/>
      <point x="796.5" y="1480.0" type="line"/>
      <point x="720.0" y="1492.5"/>
      <point x="621.5" y="1500.0"/>
      <point x="530.5" y="1500.0" type="curve" smooth="yes"/>
      <point x="195.5" y="1500.0"/>
      <point x="54.0" y="1330.0"/>
      <point x="54.0" y="945.5" type="curve" smooth="yes"/>
      <point x="54.0" y="581.5"/>
      <point x="194.5" y="392.5"/>
      <point x="453.5" y="392.5" type="curve" smooth="yes"/>
      <point x="477.5" y="392.5"/>
      <point x="494.0" y="393.0"/>
      <point x="516.0" y="393.0" type="curve"/>
    </contour>
    <contour>
      <point x="916.5" y="0.0" type="line"/>
      <point x="1197.0" y="0.0" type="line"/>
      <point x="1197.0" y="1480.0" type="line"/>
      <point x="916.5" y="1480.0" type="line"/>
    </contour>
  </outline>
</glyph>
<glyph name="periodcentered" format="2">
  <advance width="582.0"/>
  <unicode hex="00B7"/>
  <anchor x="291.0" y="560.0" name="_periodcentered"/>
  <outline>
    <contour>
      <point x="291.0" y="314.5" type="curve" smooth="yes"/>
      <point x="444.5" y="314.5"/>
      <point x="548.0" y="412.0"/>
      <point x="548.0" y="560.0" type="curve" smooth="yes"/>
      <point x="548.0" y="708.0"/>
      <point x="448.5" y="805.5"/>
      <point x="291.0" y="805.5" type="curve" smooth="yes"/>
      <point x="133.5" y="805.5"/>
      <point x="34.0" y="712.0"/>
      <point x="34.0" y="560.0" type="curve" smooth="yes"/>
      <point x="34.0" y="408.0"/>
      <point x="137.5" y="314.5"/>
    </contour>
  </outline>
</glyph>
<glyph name="cedilla" format="2">
  <advance width="1200.0"/>
  <unicode hex="00B8"/>
  <anchor x="600.0" y="0.0" name="_bottom"/>
  <outline>
    <contour>
      <point x="589.5" y="-460.0" type="curve" smooth="yes"/>
      <point x="785.5" y="-460.0"/>
      <point x="871.0" y="-383.0"/>
      <point x="871.0" y="-263.0" type="curve" smooth="yes"/>
      <point x="871.0" y="-140.0"/>
      <point x="778.5" y="-70.5"/>
      <point x="618.0" y="-70.5" type="curve"/>
      <point x="708.0" y="-122.0" type="line"/>
      <point x="708.0" y="20.0" type="line"/>
      <point x="518.0" y="20.0" type="line"/>
      <point x="518.0" y="-179.5" type="line"/>
      <point x="565.0" y="-179.5" type="line" smooth="yes"/>
      <point x="626.5" y="-179.5"/>
      <point x="660.5" y="-200.0"/>
      <point x="660.5" y="-245.5" type="curve" smooth="yes"/>
      <point x="660.5" y="-292.5"/>
      <point x="629.5" y="-308.5"/>
      <point x="567.5" y="-308.5" type="curve" smooth="yes"/>
      <point x="526.0" y="-308.5"/>
      <point x="462.0" y="-300.0"/>
      <point x="410.0" y="-281.5" type="curve"/>
      <point x="410.0" y="-432.5" type="line"/>
      <point x="463.5" y="-449.5"/>
      <point x="520.5" y="-460.0"/>
    </contour>
  </outline>
</glyph>
<glyph name="onesuperior" format="2">
  <advance width="860.0"/>
  <unicode hex="00B9"/>
  <outline>
    <contour>
      <point x="307.0" y="-111.0" type="line"/>
      <point x="625.5" y="-111.0" type="line"/>
      <point x="625.5" y="868.0" type="line"/>
      <point x="424.0" y="868.0" type="line"/>
      <point x="135.0" y="693.0" type="line"/>
      <point x="135.0" y="415.5" type="line"/>
      <point x="424.0" y="590.5" type="line"/>
      <point x="307.0" y="690.5" type="line"/>
    </contour>
    <contour>
      <point x="124.5" y="-136.0" type="line"/>
      <point x="798.5" y="-136.0" type="line"/>
      <point x="798.5" y="124.5" type="line"/>
      <point x="124.5" y="124.5" type="line"/>
    </contour>
  </outline>
</glyph>
<glyph name="ordmasculine" format="2">
  <advance width="970.0"/>
  <unicode hex="00BA"/>
  <outline>
    <contour>
      <point x="485.5" y="592.0" type="curve" smooth="yes"/>
      <point x="784.0" y="592.0"/>
      <point x="947.0" y="764.5"/>
      <point x="947.0" y="1045.5" type="curve" smooth="yes"/>
      <point x="947.0" y="1326.5"/>
      <point x="784.0" y="1502.0"/>
      <point x="485.5" y="1502.0" type="curve" smooth="yes"/>
      <point x="187.0" y="1502.0"/>
      <point x="23.0" y="1334.0"/>
      <point x="23.0" y="1045.5" type="curve" smooth="yes"/>
      <point x="23.0" y="757.0"/>
      <point x="187.0" y="592.0"/>
    </contour>
    <contour>
      <point x="485.5" y="861.0" type="curve" smooth="yes"/>
      <point x="435.0" y="861.0"/>
      <point x="398.0" y="889.5"/>
      <point x="398.0" y="1045.5" type="curve" smooth="yes"/>
      <point x="398.0" y="1203.0"/>
      <point x="435.0" y="1233.0"/>
      <point x="485.5" y="1233.0" type="curve" smooth="yes"/>
      <point x="537.0" y="1233.0"/>
      <point x="572.0" y="1203.0"/>
      <point x="572.0" y="1045.5" type="curve" smooth="yes"/>
      <point x="572.0" y="889.5"/>
      <point x="537.0" y="861.0"/>
    </contour>
  </outline>
</glyph>
<glyph name="guillemetright" format="2">
  <advance width="1276.0"/>
  <unicode hex="00BB"/>
  <outline>
    <contour>
      <point x="23.0" y="130.0" type="line"/>
      <point x="428.0" y="130.0" type="line"/>
      <point x="651.0" y="570.0" type="line"/>
      <point x="428.0" y="1010.0" type="line"/>
      <point x="23.0" y="1010.0" type="line"/>
      <point x="246.0" y="570.0" type="line"/>
    </contour>
    <contour>
      <point x="585.0" y="130.0" type="line"/>
      <point x="990.0" y="130.0" type="line"/>
      <point x="1213.0" y="570.0" type="line"/>
      <point x="990.0" y="1010.0" type="line"/>
      <point x="585.0" y="1010.0" type="line"/>
      <point x="808.0" y="570.0" type="line"/>
    </contour>
  </outline>
</glyph>
<glyph name="onequarter" format="2">
  <advance width="2108.5"/>
  <unicode hex="00BC"/>
  <outline>
    <contour>
      <point x="307.0" y="641.0" type="line"/>
      <point x="625.5" y="641.0" type="line"/>
      <point x="625.5" y="1620.0" type="line"/>
      <point x="424.0" y="1620.0" type="line"/>
      <point x="135.0" y="1445.0" type="line"/>
      <point x="135.0" y="1167.5" type="line"/>
      <point x="424.0" y="1342.5" type="line"/>
      <point x="307.0" y="1442.5" type="line"/>
    </contour>
    <contour>
      <point x="124.5" y="616.0" type="line"/>
      <point x="798.5" y="616.0" type="line"/>
      <point x="798.5" y="876.5" type="line"/>
      <point x="124.5" y="876.5" type="line"/>
    </contour>
    <contour>
      <point x="502.5" y="-136.0" type="line"/>
      <point x="835.0" y="-136.0" type="line"/>
      <point x="1606.0" y="1616.0" type="line"/>
      <point x="1273.5" y="1616.0" type="line"/>
    </contour>
    <contour>
      <point x="1271.5" y="42.5" type="line"/>
      <point x="2087.0" y="42.5" type="line"/>
      <point x="2087.0" y="277.5" type="line"/>
      <point x="1541.5" y="277.5" type="line"/>
      <point x="1571.5" y="213.5" type="line"/>
      <point x="1841.5" y="864.0" type="line"/>
      <point x="1547.5" y="864.0" type="line"/>
      <point x="1271.5" y="213.5" type="line"/>
    </contour>
    <contour>
      <point x="1704.5" y="-136.0" type="line"/>
      <point x="1979.5" y="-136.0" type="line"/>
      <point x="1979.5" y="526.0" type="line"/>
      <point x="1768.0" y="526.0" type="line"/>
      <point x="1704.5" y="277.5" type="line"/>
    </contour>
  </outline>
</glyph>
<glyph name="onehalf" format="2">
  <advance width="2108.5"/>
  <unicode hex="00BD"/>
  <outline>
    <contour>
      <point x="307.0" y="641.0" type="line"/>
      <point x="625.5" y="641.0" type="line"/>
      <point x="625.5" y="1620.0" type="line"/>
      <point x="424.0" y="1620.0" type="line"/>
      <point x="135.0" y="1445.0" type="line"/>
      <point x="135.0" y="1167.5" type="line"/>
      <point x="424.0" y="1342.5" type="line"/>
      <point x="307.0" y="1442.5" type="line"/>
    </contour>
    <contour>
      <point x="124.5" y="616.0" type="line"/>
      <point x="798.5" y="616.0" type="line"/>
      <point x="798.5" y="876.5" type="line"/>
      <point x="124.5" y="876.5" type="line"/>
    </contour>
    <contour>
      <point x="502.5" y="-136.0" type="line"/>
      <point x="835.0" y="-136.0" type="line"/>
      <point x="1606.0" y="1616.0" type="line"/>
      <point x="1273.5" y="1616.0" type="line"/>
    </contour>
    <contour>
      <point x="1328.5" y="-136.0" type="line"/>
      <point x="2037.0" y="-136.0" type="line"/>
      <point x="2037.0" y="124.5" type="line"/>
      <point x="1685.0" y="124.5" type="line"/>
      <point x="1688.5" y="49.5" type="line"/>
      <point x="1861.0" y="256.0" type="line" smooth="yes"/>
      <point x="1956.5" y="371.0"/>
      <point x="1994.5" y="467.5"/>
      <point x="1994.5" y="565.5" type="curve" smooth="yes"/>
      <point x="1994.5" y="786.5"/>
      <point x="1843.5" y="878.0"/>
      <point x="1574.5" y="878.0" type="curve" smooth="yes"/>
      <point x="1485.5" y="878.0"/>
      <point x="1381.5" y="864.0"/>
      <point x="1315.0" y="842.5" type="curve"/>
      <point x="1315.0" y="592.5" type="line"/>
      <point x="1371.5" y="613.0"/>
      <point x="1454.5" y="628.0"/>
      <point x="1523.0" y="628.0" type="curve" smooth="yes"/>
      <point x="1643.0" y="628.0"/>
      <point x="1679.5" y="594.0"/>
      <point x="1679.5" y="535.5" type="curve" smooth="yes"/>
      <point x="1679.5" y="485.0"/>
      <point x="1649.5" y="425.0"/>
      <point x="1576.0" y="334.0" type="curve" smooth="yes"/>
      <point x="1328.5" y="32.0" type="line"/>
    </contour>
  </outline>
</glyph>
<glyph name="threequarters" format="2">
  <advance width="2108.5"/>
  <unicode hex="00BE"/>
  <outline>
    <contour>
      <point x="332.5" y="602.0" type="curve" smooth="yes"/>
      <point x="624.5" y="602.0"/>
      <point x="777.5" y="711.5"/>
      <point x="777.5" y="899.5" type="curve" smooth="yes"/>
      <point x="777.5" y="1030.0"/>
      <point x="708.5" y="1112.0"/>
      <point x="576.5" y="1134.0" type="curve"/>
      <point x="576.5" y="1126.5" type="line"/>
      <point x="683.0" y="1150.5"/>
      <point x="747.0" y="1235.5"/>
      <point x="747.0" y="1353.0" type="curve" smooth="yes"/>
      <point x="747.0" y="1530.0"/>
      <point x="612.0" y="1630.0"/>
      <point x="342.0" y="1630.0" type="curve" smooth="yes"/>
      <point x="253.0" y="1630.0"/>
      <point x="145.0" y="1615.0"/>
      <point x="79.0" y="1594.5" type="curve"/>
      <point x="79.0" y="1362.0" type="line"/>
      <point x="140.0" y="1385.0"/>
      <point x="228.5" y="1398.5"/>
      <point x="298.5" y="1398.5" type="curve" smooth="yes"/>
      <point x="404.5" y="1398.5"/>
      <point x="444.0" y="1371.5"/>
      <point x="444.0" y="1319.5" type="curve" smooth="yes"/>
      <point x="444.0" y="1273.0"/>
      <point x="414.0" y="1243.5"/>
      <point x="323.5" y="1243.5" type="curve" smooth="yes"/>
      <point x="153.0" y="1243.5" type="line"/>
      <point x="153.0" y="1007.0" type="line"/>
      <point x="331.5" y="1007.0" type="line" smooth="yes"/>
      <point x="438.5" y="1007.0"/>
      <point x="477.0" y="980.5"/>
      <point x="477.0" y="921.5" type="curve" smooth="yes"/>
      <point x="477.0" y="862.5"/>
      <point x="436.0" y="834.0"/>
      <point x="318.0" y="834.0" type="curve" smooth="yes"/>
      <point x="244.5" y="834.0"/>
      <point x="147.5" y="845.0"/>
      <point x="69.5" y="864.5" type="curve"/>
      <point x="69.5" y="632.0" type="line"/>
      <point x="152.5" y="612.5"/>
      <point x="243.5" y="602.0"/>
    </contour>
    <contour>
      <point x="502.5" y="-136.0" type="line"/>
      <point x="835.0" y="-136.0" type="line"/>
      <point x="1606.0" y="1616.0" type="line"/>
      <point x="1273.5" y="1616.0" type="line"/>
    </contour>
    <contour>
      <point x="1271.5" y="42.5" type="line"/>
      <point x="2087.0" y="42.5" type="line"/>
      <point x="2087.0" y="277.5" type="line"/>
      <point x="1541.5" y="277.5" type="line"/>
      <point x="1571.5" y="213.5" type="line"/>
      <point x="1841.5" y="864.0" type="line"/>
      <point x="1547.5" y="864.0" type="line"/>
      <point x="1271.5" y="213.5" type="line"/>
    </contour>
    <contour>
      <point x="1704.5" y="-136.0" type="line"/>
      <point x="1979.5" y="-136.0" type="line"/>
      <point x="1979.5" y="526.0" type="line"/>
      <point x="1768.0" y="526.0" type="line"/>
      <point x="1704.5" y="277.5" type="line"/>
    </contour>
  </outline>
</glyph>
<glyph name="questiondown" format="2">
  <advance width="981.0"/>
  <unicode hex="00BF"/>
  <outline>
    <contour>
      <point x="674.0" y="568.0" type="line"/>
      <point x="427.5" y="568.0" type="line"/>
      <point x="398.0" y="416.5" type="line"/>
      <point x="179.5" y="357.0"/>
      <point x="37.5" y="220.0"/>
      <point x="37.5" y="7.0" type="curve" smooth="yes"/>
      <point x="37.5" y="-254.5"/>
      <point x="224.0" y="-400.0"/>
      <point x="596.0" y="-400.0" type="curve" smooth="yes"/>
      <point x="719.5" y="-400.0"/>
      <point x="870.0" y="-378.5"/>
      <point x="963.0" y="-347.5" type="curve"/>
      <point x="963.0" y="-32.0" type="line"/>
      <point x="873.0" y="-64.0"/>
      <point x="753.5" y="-83.5"/>
      <point x="650.0" y="-83.5" type="curve" smooth="yes"/>
      <point x="492.5" y="-83.5"/>
      <point x="431.0" y="-39.5"/>
      <point x="431.0" y="49.0" type="curve" smooth="yes"/>
      <point x="431.0" y="133.0"/>
      <point x="494.0" y="190.0"/>
      <point x="743.5" y="229.5" type="curve"/>
    </contour>
    <contour>
      <point x="550.5" y="1120.0" type="curve" smooth="yes"/>
      <point x="397.0" y="1120.0"/>
      <point x="293.5" y="1024.5"/>
      <point x="293.5" y="884.0" type="curve" smooth="yes"/>
      <point x="293.5" y="743.5"/>
      <point x="393.0" y="648.0"/>
      <point x="550.5" y="648.0" type="curve" smooth="yes"/>
      <point x="708.0" y="648.0"/>
      <point x="807.5" y="739.5"/>
      <point x="807.5" y="884.0" type="curve" smooth="yes"/>
      <point x="807.5" y="1028.5"/>
      <point x="704.0" y="1120.0"/>
    </contour>
  </outline>
</glyph>
<glyph name="Atilde" format="2">
  <advance width="1415.0"/>
  <unicode hex="00C3"/>
  <anchor x="707.0" y="1520.0" name="_top"/>
  <anchor x="707.5" y="0.0" name="bottom"/>
  <anchor x="1417.0" y="0.0" name="ogonek"/>
  <anchor x="707.0" y="1520.0" name="top"/>
  <outline>
    <contour>
      <point x="-2.0" y="0.0" type="line"/>
      <point x="398.0" y="0.0" type="line"/>
      <point x="722.5" y="1300.5" type="line"/>
      <point x="685.5" y="1300.5" type="line"/>
      <point x="1013.0" y="0.0" type="line"/>
      <point x="1417.0" y="0.0" type="line"/>
      <point x="1014.0" y="1480.0" type="line"/>
      <point x="401.0" y="1480.0" type="line"/>
    </contour>
    <contour>
      <point x="309.5" y="341.5" type="line"/>
      <point x="1103.0" y="341.5" type="line"/>
      <point x="1022.0" y="676.5" type="line"/>
      <point x="391.0" y="676.5" type="line"/>
    </contour>
    <contour>
      <point x="884.0" y="1586.0" type="curve" smooth="yes"/>
      <point x="980.0" y="1586.0"/>
      <point x="1043.0" y="1608.0"/>
      <point x="1100.0" y="1661.5" type="curve"/>
      <point x="1100.0" y="1895.0" type="line"/>
      <point x="1034.5" y="1846.5"/>
      <point x="976.5" y="1822.0"/>
      <point x="890.0" y="1822.0" type="curve" smooth="yes"/>
      <point x="768.5" y="1822.0"/>
      <point x="673.5" y="1902.0"/>
      <point x="530.0" y="1902.0" type="curve" smooth="yes"/>
      <point x="434.0" y="1902.0"/>
      <point x="371.0" y="1878.0"/>
      <point x="314.0" y="1824.5" type="curve"/>
      <point x="314.0" y="1591.0" type="line"/>
      <point x="379.5" y="1639.5"/>
      <point x="437.5" y="1664.0"/>
      <point x="524.0" y="1664.0" type="curve" smooth="yes"/>
      <point x="645.5" y="1664.0"/>
      <point x="740.5" y="1586.0"/>
    </contour>
  </outline>
</glyph>
<glyph name="Adieresis" format="2">
  <advance width="1415.0"/>
  <unicode hex="00C4"/>
  <anchor x="707.0" y="1520.0" name="_top"/>
  <anchor x="707.5" y="0.0" name="bottom"/>
  <anchor x="1417.0" y="0.0" name="ogonek"/>
  <anchor x="707.0" y="1520.0" name="top"/>
  <outline>
    <contour>
      <point x="-2.0" y="0.0" type="line"/>
      <point x="398.0" y="0.0" type="line"/>
      <point x="722.5" y="1300.5" type="line"/>
      <point x="685.5" y="1300.5" type="line"/>
      <point x="1013.0" y="0.0" type="line"/>
      <point x="1417.0" y="0.0" type="line"/>
      <point x="1014.0" y="1480.0" type="line"/>
      <point x="401.0" y="1480.0" type="line"/>
    </contour>
    <contour>
      <point x="309.5" y="341.5" type="line"/>
      <point x="1103.0" y="341.5" type="line"/>
      <point x="1022.0" y="676.5" type="line"/>
      <point x="391.0" y="676.5" type="line"/>
    </contour>
    <contour>
      <point x="968.5" y="1570.0" type="curve" smooth="yes"/>
      <point x="1107.5" y="1570.0"/>
      <point x="1181.5" y="1635.0"/>
      <point x="1181.5" y="1750.0" type="curve" smooth="yes"/>
      <point x="1181.5" y="1865.0"/>
      <point x="1107.5" y="1930.0"/>
      <point x="968.5" y="1930.0" type="curve" smooth="yes"/>
      <point x="829.5" y="1930.0"/>
      <point x="755.5" y="1865.0"/>
      <point x="755.5" y="1750.0" type="curve" smooth="yes"/>
      <point x="755.5" y="1635.0"/>
      <point x="829.5" y="1570.0"/>
    </contour>
    <contour>
      <point x="445.5" y="1570.0" type="curve" smooth="yes"/>
      <point x="584.5" y="1570.0"/>
      <point x="658.5" y="1635.0"/>
      <point x="658.5" y="1750.0" type="curve" smooth="yes"/>
      <point x="658.5" y="1865.0"/>
      <point x="584.5" y="1930.0"/>
      <point x="445.5" y="1930.0" type="curve" smooth="yes"/>
      <point x="306.5" y="1930.0"/>
      <point x="232.5" y="1865.0"/>
      <point x="232.5" y="1750.0" type="curve" smooth="yes"/>
      <point x="232.5" y="1635.0"/>
      <point x="306.5" y="1570.0"/>
    </contour>
  </outline>
</glyph>
<glyph name="Edieresis" format="2">
  <advance width="1220.5"/>
  <unicode hex="00CB"/>
  <anchor x="644.0" y="1520.0" name="_top"/>
  <anchor x="644.0" y="0.0" name="bottom"/>
  <anchor x="1070.5" y="0.0" name="ogonek"/>
  <anchor x="644.0" y="1520.0" name="top"/>
  <anchor x="37.0" y="1480.0" name="topleft"/>
  <outline>
    <contour>
      <point x="98.5" y="0.0" type="line"/>
      <point x="1155.5" y="0.0" type="line"/>
      <point x="1155.5" y="338.0" type="line"/>
      <point x="505.5" y="338.0" type="line"/>
      <point x="505.5" y="1142.0" type="line"/>
      <point x="1145.5" y="1142.0" type="line"/>
      <point x="1145.5" y="1480.0" type="line"/>
      <point x="98.5" y="1480.0" type="line"/>
    </contour>
    <contour>
      <point x="364.0" y="586.0" type="line"/>
      <point x="1041.0" y="586.0" type="line"/>
      <point x="1041.0" y="924.0" type="line"/>
      <point x="364.0" y="924.0" type="line"/>
    </contour>
    <contour>
      <point x="905.5" y="1570.0" type="curve" smooth="yes"/>
      <point x="1044.5" y="1570.0"/>
      <point x="1118.5" y="1635.0"/>
      <point x="1118.5" y="1750.0" type="curve" smooth="yes"/>
      <point x="1118.5" y="1865.0"/>
      <point x="1044.5" y="1930.0"/>
      <point x="905.5" y="1930.0" type="curve" smooth="yes"/>
      <point x="766.5" y="1930.0"/>
      <point x="692.5" y="1865.0"/>
      <point x="692.5" y="1750.0" type="curve" smooth="yes"/>
      <point x="692.5" y="1635.0"/>
      <point x="766.5" y="1570.0"/>
    </contour>
    <contour>
      <point x="382.5" y="1570.0" type="curve" smooth="yes"/>
      <point x="521.5" y="1570.0"/>
      <point x="595.5" y="1635.0"/>
      <point x="595.5" y="1750.0" type="curve" smooth="yes"/>
      <point x="595.5" y="1865.0"/>
      <point x="521.5" y="1930.0"/>
      <point x="382.5" y="1930.0" type="curve" smooth="yes"/>
      <point x="243.5" y="1930.0"/>
      <point x="169.5" y="1865.0"/>
      <point x="169.5" y="1750.0" type="curve" smooth="yes"/>
      <point x="169.5" y="1635.0"/>
      <point x="243.5" y="1570.0"/>
    </contour>
  </outline>
</glyph>
<glyph name="Igrave" format="2">
  <advance width="610.0"/>
  <unicode hex="00CC"/>
  <anchor x="305.0" y="1520.0" name="_top"/>
  <anchor x="304.5" y="0.0" name="bottom"/>
  <anchor x="511.5" y="0.0" name="ogonek"/>
  <anchor x="305.0" y="1520.0" name="top"/>
  <outline>
    <contour>
      <point x="98.5" y="0.0" type="line"/>
      <point x="511.5" y="0.0" type="line"/>
      <point x="511.5" y="1480.0" type="line"/>
      <point x="98.5" y="1480.0" type="line"/>
    </contour>
    <contour>
      <point x="123.5" y="1586.0" type="line"/>
      <point x="486.5" y="1586.0" type="line"/>
      <point x="314.0" y="1902.0" type="line"/>
      <point x="-108.0" y="1902.0" type="line"/>
    </contour>
  </outline>
</glyph>
<glyph name="Icircumflex" format="2">
  <advance width="610.0"/>
  <unicode hex="00CE"/>
  <anchor x="305.0" y="1520.0" name="_top"/>
  <anchor x="304.5" y="0.0" name="bottom"/>
  <anchor x="511.5" y="0.0" name="ogonek"/>
  <anchor x="305.0" y="1520.0" name="top"/>
  <outline>
    <contour>
      <point x="98.5" y="0.0" type="line"/>
      <point x="511.5" y="0.0" type="line"/>
      <point x="511.5" y="1480.0" type="line"/>
      <point x="98.5" y="1480.0" type="line"/>
    </contour>
    <contour>
      <point x="-91.5" y="1586.0" type="line"/>
      <point x="191.5" y="1586.0" type="line"/>
      <point x="331.0" y="1797.5" type="line"/>
      <point x="279.0" y="1797.5" type="line"/>
      <point x="418.5" y="1586.0" type="line"/>
      <point x="701.5" y="1586.0" type="line"/>
      <point x="474.5" y="1902.0" type="line"/>
      <point x="135.5" y="1902.0" type="line"/>
    </contour>
  </outline>
</glyph>
<glyph name="Idieresis" format="2">
  <advance width="610.0"/>
  <unicode hex="00CF"/>
  <anchor x="305.0" y="1520.0" name="_top"/>
  <anchor x="304.5" y="0.0" name="bottom"/>
  <anchor x="511.5" y="0.0" name="ogonek"/>
  <anchor x="305.0" y="1520.0" name="top"/>
  <outline>
    <contour>
      <point x="98.5" y="0.0" type="line"/>
      <point x="511.5" y="0.0" type="line"/>
      <point x="511.5" y="1480.0" type="line"/>
      <point x="98.5" y="1480.0" type="line"/>
    </contour>
    <contour>
      <point x="566.5" y="1570.0" type="curve" smooth="yes"/>
      <point x="705.5" y="1570.0"/>
      <point x="779.5" y="1635.0"/>
      <point x="779.5" y="1750.0" type="curve" smooth="yes"/>
      <point x="779.5" y="1865.0"/>
      <point x="705.5" y="1930.0"/>
      <point x="566.5" y="1930.0" type="curve" smooth="yes"/>
      <point x="427.5" y="1930.0"/>
      <point x="353.5" y="1865.0"/>
      <point x="353.5" y="1750.0" type="curve" smooth="yes"/>
      <point x="353.5" y="1635.0"/>
      <point x="427.5" y="1570.0"/>
    </contour>
    <contour>
      <point x="43.5" y="1570.0" type="curve" smooth="yes"/>
      <point x="182.5" y="1570.0"/>
      <point x="256.5" y="1635.0"/>
      <point x="256.5" y="1750.0" type="curve" smooth="yes"/>
      <point x="256.5" y="1865.0"/>
      <point x="182.5" y="1930.0"/>
      <point x="43.5" y="1930.0" type="curve" smooth="yes"/>
      <point x="-95.5" y="1930.0"/>
      <point x="-169.5" y="1865.0"/>
      <point x="-169.5" y="1750.0" type="curve" smooth="yes"/>
      <point x="-169.5" y="1635.0"/>
      <point x="-95.5" y="1570.0"/>
    </contour>
  </outline>
</glyph>
<glyph name="Eth" format="2">
  <advance width="1449.0"/>
  <unicode hex="00D0"/>
  <anchor x="98.5" y="762.0" name="_stroke"/>
  <anchor x="677.0" y="0.0" name="bottom"/>
  <anchor x="710.5" y="740.0" name="center"/>
  <anchor x="98.5" y="762.0" name="stroke"/>
  <anchor x="657.0" y="1520.0" name="top"/>
  <outline>
    <contour>
      <point x="512.0" y="-18.5" type="curve" smooth="yes"/>
      <point x="1101.0" y="-18.5"/>
      <point x="1387.5" y="208.5"/>
      <point x="1387.5" y="740.0" type="curve" smooth="yes"/>
      <point x="1387.5" y="1262.5"/>
      <point x="1116.0" y="1498.5"/>
      <point x="579.5" y="1498.5" type="curve" smooth="yes"/>
      <point x="412.5" y="1498.5"/>
      <point x="241.0" y="1477.5"/>
      <point x="98.5" y="1445.5" type="curve"/>
      <point x="98.5" y="5.0" type="line"/>
      <point x="228.5" y="-10.5"/>
      <point x="384.5" y="-18.5"/>
    </contour>
    <contour>
      <point x="625.5" y="318.5" type="curve" smooth="yes"/>
      <point x="594.5" y="318.5"/>
      <point x="556.5" y="318.5"/>
      <point x="511.5" y="321.0" type="curve"/>
      <point x="511.5" y="1152.5" type="line"/>
      <point x="540.5" y="1159.0"/>
      <point x="588.5" y="1163.5"/>
      <point x="621.0" y="1163.5" type="curve" smooth="yes"/>
      <point x="837.5" y="1163.5"/>
      <point x="963.5" y="1061.0"/>
      <point x="963.5" y="741.0" type="curve" smooth="yes"/>
      <point x="963.5" y="420.5"/>
      <point x="846.0" y="318.5"/>
    </contour>
    <contour>
      <point x="2.0" y="629.5" type="line"/>
      <point x="727.0" y="629.5" type="line"/>
      <point x="727.0" y="894.5" type="line"/>
      <point x="2.0" y="894.5" type="line"/>
    </contour>
  </outline>
</glyph>
<glyph name="Ntilde" format="2">
  <advance width="1486.0"/>
  <unicode hex="00D1"/>
  <anchor x="743.0" y="1520.0" name="_top"/>
  <anchor x="743.0" y="0.0" name="bottom"/>
  <anchor x="743.0" y="1520.0" name="top"/>
  <outline>
    <contour>
      <point x="98.5" y="0.0" type="line"/>
      <point x="485.0" y="0.0" type="line"/>
      <point x="485.0" y="931.0" type="line"/>
      <point x="423.0" y="931.0" type="line"/>
      <point x="976.0" y="0.0" type="line"/>
      <point x="1387.5" y="0.0" type="line"/>
      <point x="1387.5" y="1480.0" type="line"/>
      <point x="1001.0" y="1480.0" type="line"/>
      <point x="1001.0" y="549.0" type="line"/>
      <point x="1063.0" y="549.0" type="line"/>
      <point x="510.0" y="1480.0" type="line"/>
      <point x="98.5" y="1480.0" type="line"/>
    </contour>
    <contour>
      <point x="920.0" y="1586.0" type="curve" smooth="yes"/>
      <point x="1016.0" y="1586.0"/>
      <point x="1079.0" y="1608.0"/>
      <point x="1136.0" y="1661.5" type="curve"/>
      <point x="1136.0" y="1895.0" type="line"/>
      <point x="1070.5" y="1846.5"/>
      <point x="1012.5" y="1822.0"/>
      <point x="926.0" y="1822.0" type="curve" smooth="yes"/>
      <point x="804.5" y="1822.0"/>
      <point x="709.5" y="1902.0"/>
      <point x="566.0" y="1902.0" type="curve" smooth="yes"/>
      <point x="470.0" y="1902.0"/>
      <point x="407.0" y="1878.0"/>
      <point x="350.0" y="1824.5" type="curve"/>
      <point x="350.0" y="1591.0" type="line"/>
      <point x="415.5" y="1639.5"/>
      <point x="473.5" y="1664.0"/>
      <point x="560.0" y="1664.0" type="curve" smooth="yes"/>
      <point x="681.5" y="1664.0"/>
      <point x="776.5" y="1586.0"/>
    </contour>
  </outline>
</glyph>
<glyph name="Otilde" format="2">
  <advance width="1520.0"/>
  <unicode hex="00D5"/>
  <anchor x="760.0" y="1520.0" name="_top"/>
  <anchor x="760.0" y="0.0" name="bottom"/>
  <anchor x="760.0" y="740.0" name="center"/>
  <anchor x="943.5" y="0.0" name="ogonek"/>
  <anchor x="760.0" y="1520.0" name="top"/>
  <anchor x="46.5" y="1480.0" name="topleft"/>
  <anchor x="955.5" y="1480.0" name="topright"/>
  <outline>
    <contour>
      <point x="760.0" y="-20.0" type="curve" smooth="yes"/>
      <point x="1178.5" y="-20.0"/>
      <point x="1458.5" y="221.5"/>
      <point x="1458.5" y="740.0" type="curve" smooth="yes"/>
      <point x="1458.5" y="1258.5"/>
      <point x="1179.0" y="1500.0"/>
      <point x="760.0" y="1500.0" type="curve" smooth="yes"/>
      <point x="341.0" y="1500.0"/>
      <point x="61.5" y="1259.5"/>
      <point x="61.5" y="740.0" type="curve" smooth="yes"/>
      <point x="61.5" y="220.5"/>
      <point x="341.5" y="-20.0"/>
    </contour>
    <contour>
      <point x="760.0" y="315.0" type="curve" smooth="yes"/>
      <point x="583.0" y="315.0"/>
      <point x="485.5" y="430.5"/>
      <point x="485.5" y="748.0" type="curve" smooth="yes"/>
      <point x="485.5" y="1049.5"/>
      <point x="584.5" y="1165.0"/>
      <point x="760.0" y="1165.0" type="curve" smooth="yes"/>
      <point x="935.5" y="1165.0"/>
      <point x="1034.5" y="1048.0"/>
      <point x="1034.5" y="732.0" type="curve" smooth="yes"/>
      <point x="1034.5" y="432.0"/>
      <point x="937.0" y="315.0"/>
    </contour>
    <contour>
      <point x="937.0" y="1586.0" type="curve" smooth="yes"/>
      <point x="1033.0" y="1586.0"/>
      <point x="1096.0" y="1608.0"/>
      <point x="1153.0" y="1661.5" type="curve"/>
      <point x="1153.0" y="1895.0" type="line"/>
      <point x="1087.5" y="1846.5"/>
      <point x="1029.5" y="1822.0"/>
      <point x="943.0" y="1822.0" type="curve" smooth="yes"/>
      <point x="821.5" y="1822.0"/>
      <point x="726.5" y="1902.0"/>
      <point x="583.0" y="1902.0" type="curve" smooth="yes"/>
      <point x="487.0" y="1902.0"/>
      <point x="424.0" y="1878.0"/>
      <point x="367.0" y="1824.5" type="curve"/>
      <point x="367.0" y="1591.0" type="line"/>
      <point x="432.5" y="1639.5"/>
      <point x="490.5" y="1664.0"/>
      <point x="577.0" y="1664.0" type="curve" smooth="yes"/>
      <point x="698.5" y="1664.0"/>
      <point x="793.5" y="1586.0"/>
    </contour>
  </outline>
</glyph>
<glyph name="multiply" format="2">
  <advance width="1038.0"/>
  <unicode hex="00D7"/>
  <outline>
    <contour>
      <point x="281.0" y="303.0" type="line"/>
      <point x="519.0" y="541.0" type="line"/>
      <point x="757.0" y="303.0" type="line"/>
      <point x="976.0" y="522.0" type="line"/>
      <point x="738.0" y="760.0" type="line"/>
      <point x="976.0" y="998.0" type="line"/>
      <point x="757.0" y="1217.0" type="line"/>
      <point x="519.0" y="979.0" type="line"/>
      <point x="281.0" y="1217.0" type="line"/>
      <point x="62.0" y="998.0" type="line"/>
      <point x="300.0" y="760.0" type="line"/>
      <point x="62.0" y="522.0" type="line"/>
    </contour>
  </outline>
</glyph>
<glyph name="Ucircumflex" format="2">
  <advance width="1442.5"/>
  <unicode hex="00DB"/>
  <anchor x="726.0" y="1520.0" name="_top"/>
  <anchor x="726.0" y="0.0" name="bottom"/>
  <anchor x="979.5" y="0.0" name="ogonek"/>
  <anchor x="726.0" y="1520.0" name="top"/>
  <anchor x="996.0" y="1480.0" name="topright"/>
  <outline>
    <contour>
      <point x="726.0" y="-20.0" type="curve" smooth="yes"/>
      <point x="1151.5" y="-20.0"/>
      <point x="1350.0" y="180.0"/>
      <point x="1350.0" y="626.5" type="curve" smooth="yes"/>
      <point x="1350.0" y="1480.0" type="line"/>
      <point x="945.0" y="1480.0" type="line"/>
      <point x="945.0" y="584.0" type="line" smooth="yes"/>
      <point x="945.0" y="390.0"/>
      <point x="866.0" y="320.0"/>
      <point x="726.0" y="320.0" type="curve" smooth="yes"/>
      <point x="586.0" y="320.0"/>
      <point x="505.5" y="390.0"/>
      <point x="505.5" y="584.0" type="curve" smooth="yes"/>
      <point x="505.5" y="1480.0" type="line"/>
      <point x="92.5" y="1480.0" type="line"/>
      <point x="92.5" y="626.5" type="line" smooth="yes"/>
      <point x="92.5" y="180.0"/>
      <point x="295.0" y="-20.0"/>
    </contour>
    <contour>
      <point x="329.5" y="1586.0" type="line"/>
      <point x="612.5" y="1586.0" type="line"/>
      <point x="752.0" y="1797.5" type="line"/>
      <point x="700.0" y="1797.5" type="line"/>
      <point x="839.5" y="1586.0" type="line"/>
      <point x="1122.5" y="1586.0" type="line"/>
      <point x="895.5" y="1902.0" type="line"/>
      <point x="556.5" y="1902.0" type="line"/>
    </contour>
  </outline>
</glyph>
<glyph name="Udieresis" format="2">
  <advance width="1442.5"/>
  <unicode hex="00DC"/>
  <anchor x="726.0" y="1520.0" name="_top"/>
  <anchor x="726.0" y="0.0" name="bottom"/>
  <anchor x="979.5" y="0.0" name="ogonek"/>
  <anchor x="726.0" y="1520.0" name="top"/>
  <anchor x="996.0" y="1480.0" name="topright"/>
  <outline>
    <contour>
      <point x="726.0" y="-20.0" type="curve" smooth="yes"/>
      <point x="1151.5" y="-20.0"/>
      <point x="1350.0" y="180.0"/>
      <point x="1350.0" y="626.5" type="curve" smooth="yes"/>
      <point x="1350.0" y="1480.0" type="line"/>
      <point x="945.0" y="1480.0" type="line"/>
      <point x="945.0" y="584.0" type="line" smooth="yes"/>
      <point x="945.0" y="390.0"/>
      <point x="866.0" y="320.0"/>
      <point x="726.0" y="320.0" type="curve" smooth="yes"/>
      <point x="586.0" y="320.0"/>
      <point x="505.5" y="390.0"/>
      <point x="505.5" y="584.0" type="curve" smooth="yes"/>
      <point x="505.5" y="1480.0" type="line"/>
      <point x="92.5" y="1480.0" type="line"/>
      <point x="92.5" y="626.5" type="line" smooth="yes"/>
      <point x="92.5" y="180.0"/>
      <point x="295.0" y="-20.0"/>
    </contour>
    <contour>
      <point x="987.5" y="1570.0" type="curve" smooth="yes"/>
      <point x="1126.5" y="1570.0"/>
      <point x="1200.5" y="1635.0"/>
      <point x="1200.5" y="1750.0" type="curve" smooth="yes"/>
      <point x="1200.5" y="1865.0"/>
      <point x="1126.5" y="1930.0"/>
      <point x="987.5" y="1930.0" type="curve" smooth="yes"/>
      <point x="848.5" y="1930.0"/>
      <point x="774.5" y="1865.0"/>
      <point x="774.5" y="1750.0" type="curve" smooth="yes"/>
      <point x="774.5" y="1635.0"/>
      <point x="848.5" y="1570.0"/>
    </contour>
    <contour>
      <point x="464.5" y="1570.0" type="curve" smooth="yes"/>
      <point x="603.5" y="1570.0"/>
      <point x="677.5" y="1635.0"/>
      <point x="677.5" y="1750.0" type="curve" smooth="yes"/>
      <point x="677.5" y="1865.0"/>
      <point x="603.5" y="1930.0"/>
      <point x="464.5" y="1930.0" type="curve" smooth="yes"/>
      <point x="325.5" y="1930.0"/>
      <point x="251.5" y="1865.0"/>
      <point x="251.5" y="1750.0" type="curve" smooth="yes"/>
      <point x="251.5" y="1635.0"/>
      <point x="325.5" y="1570.0"/>
    </contour>
  </outline>
</glyph>
<glyph name="Thorn" format="2">
  <advance width="1305.5"/>
  <unicode hex="00DE"/>
  <outline>
    <contour>
      <point x="98.5" y="0.0" type="line"/>
      <point x="511.5" y="0.0" type="line"/>
      <point x="511.5" y="209.0" type="line"/>
      <point x="546.5" y="209.0"/>
      <point x="576.5" y="207.0"/>
      <point x="617.0" y="207.0" type="curve" smooth="yes"/>
      <point x="1019.0" y="207.0"/>
      <point x="1241.5" y="393.0"/>
      <point x="1241.5" y="760.0" type="curve" smooth="yes"/>
      <point x="1241.5" y="1144.5"/>
      <point x="1017.0" y="1314.5"/>
      <point x="572.0" y="1314.5" type="curve" smooth="yes"/>
      <point x="554.0" y="1314.5"/>
      <point x="529.5" y="1312.5"/>
      <point x="511.5" y="1312.5" type="curve"/>
      <point x="511.5" y="1480.0" type="line"/>
      <point x="98.5" y="1480.0" type="line"/>
    </contour>
    <contour>
      <point x="617.0" y="524.0" type="curve" smooth="yes"/>
      <point x="575.0" y="524.0"/>
      <point x="545.5" y="526.0"/>
      <point x="511.5" y="530.0" type="curve"/>
      <point x="511.5" y="989.5" type="line"/>
      <point x="540.5" y="995.5"/>
      <point x="565.5" y="997.5"/>
      <point x="606.5" y="997.5" type="curve" smooth="yes"/>
      <point x="767.5" y="997.5"/>
      <point x="842.0" y="926.5"/>
      <point x="842.0" y="757.0" type="curve" smooth="yes"/>
      <point x="842.0" y="585.0"/>
      <point x="767.5" y="524.0"/>
    </contour>
  </outline>
</glyph>
<glyph name="germandbls" format="2">
  <advance width="1559.0"/>
  <unicode hex="00DF"/>
  <outline>
    <contour>
      <point x="1014.0" y="-22.0" type="curve" smooth="yes"/>
      <point x="1343.0" y="-22.0"/>
      <point x="1532.0" y="120.0"/>
      <point x="1532.0" y="351.5" type="curve" smooth="yes"/>
      <point x="1532.0" y="552.5"/>
      <point x="1428.0" y="640.0"/>
      <point x="1253.5" y="675.5" type="curve" smooth="yes"/>
      <point x="1074.5" y="711.5" type="line" smooth="yes"/>
      <point x="1038.0" y="719.0"/>
      <point x="1023.0" y="729.0"/>
      <point x="1023.0" y="751.5" type="curve" smooth="yes"/>
      <point x="1023.0" y="782.5"/>
      <point x="1052.5" y="815.5"/>
      <point x="1219.0" y="815.5" type="curve" smooth="yes"/>
      <point x="1268.5" y="815.5"/>
      <point x="1320.0" y="813.5"/>
      <point x="1363.0" y="808.0" type="curve"/>
      <point x="1387.0" y="898.0"/>
      <point x="1404.0" y="990.0"/>
      <point x="1404.0" y="1089.0" type="curve" smooth="yes"/>
      <point x="1404.0" y="1478.0"/>
      <point x="1168.5" y="1636.0"/>
      <point x="839.0" y="1636.0" type="curve" smooth="yes"/>
      <point x="416.5" y="1636.0"/>
      <point x="168.5" y="1395.0"/>
      <point x="168.5" y="1012.0" type="curve" smooth="yes"/>
      <point x="168.5" y="0.0" type="line"/>
      <point x="574.0" y="0.0" type="line"/>
      <point x="574.0" y="1014.5" type="line" smooth="yes"/>
      <point x="574.0" y="1243.5"/>
      <point x="663.5" y="1355.0"/>
      <point x="869.0" y="1355.0" type="curve" smooth="yes"/>
      <point x="1017.0" y="1355.0"/>
      <point x="1119.0" y="1288.0"/>
      <point x="1119.0" y="1109.0" type="curve" smooth="yes"/>
      <point x="1119.0" y="1039.0"/>
      <point x="1108.5" y="975.0"/>
      <point x="1091.5" y="911.0" type="curve"/>
      <point x="1328.5" y="1100.0" type="line"/>
      <point x="1290.0" y="1104.0"/>
      <point x="1205.5" y="1106.0"/>
      <point x="1167.5" y="1106.0" type="curve" smooth="yes"/>
      <point x="825.5" y="1106.0"/>
      <point x="653.0" y="973.0"/>
      <point x="653.0" y="748.0" type="curve" smooth="yes"/>
      <point x="653.0" y="559.5"/>
      <point x="750.0" y="456.0"/>
      <point x="933.5" y="420.5" type="curve" smooth="yes"/>
      <point x="1112.5" y="384.5" type="line" smooth="yes"/>
      <point x="1149.0" y="377.0"/>
      <point x="1162.0" y="365.5"/>
      <point x="1162.0" y="340.5" type="curve" smooth="yes"/>
      <point x="1162.0" y="305.0"/>
      <point x="1132.5" y="280.5"/>
      <point x="1009.0" y="280.5" type="curve" smooth="yes"/>
      <point x="903.0" y="280.5"/>
      <point x="780.0" y="297.0"/>
      <point x="689.0" y="321.0" type="curve"/>
      <point x="689.0" y="18.0" type="line"/>
      <point x="792.5" y="-9.0"/>
      <point x="912.5" y="-22.0"/>
    </contour>
    <contour>
      <point x="18.5" y="782.0" type="line"/>
      <point x="320.5" y="782.0" type="line"/>
      <point x="320.5" y="1100.0" type="line"/>
      <point x="18.5" y="1100.0" type="line"/>
    </contour>
  </outline>
</glyph>
<glyph name="igrave" format="2">
  <advance width="582.0"/>
  <unicode hex="00EC"/>
  <anchor x="291.0" y="1200.0" name="_top"/>
  <anchor x="291.0" y="0.0" name="bottom"/>
  <anchor x="494.5" y="0.0" name="ogonek"/>
  <anchor x="291.0" y="1200.0" name="top"/>
  <outline>
    <contour>
      <point x="87.5" y="0.0" type="line"/>
      <point x="494.5" y="0.0" type="line"/>
      <point x="494.5" y="1100.0" type="line"/>
      <point x="87.5" y="1100.0" type="line"/>
    </contour>
    <contour>
      <point x="110.0" y="1220.0" type="line"/>
      <point x="472.0" y="1220.0" type="line"/>
      <point x="251.5" y="1616.0" type="line"/>
      <point x="-166.5" y="1616.0" type="line"/>
    </contour>
  </outline>
</glyph>
<glyph name="iacute" format="2">
  <advance width="582.0"/>
  <unicode hex="00ED"/>
  <anchor x="291.0" y="1200.0" name="_top"/>
  <anchor x="291.0" y="0.0" name="bottom"/>
  <anchor x="494.5" y="0.0" name="ogonek"/>
  <anchor x="291.0" y="1200.0" name="top"/>
  <outline>
    <contour>
      <point x="87.5" y="0.0" type="line"/>
      <point x="494.5" y="0.0" type="line"/>
      <point x="494.5" y="1100.0" type="line"/>
      <point x="87.5" y="1100.0" type="line"/>
    </contour>
    <contour>
      <point x="110.0" y="1220.0" type="line"/>
      <point x="472.0" y="1220.0" type="line"/>
      <point x="748.5" y="1616.0" type="line"/>
      <point x="330.5" y="1616.0" type="line"/>
    </contour>
  </outline>
</glyph>
<glyph name="icircumflex" format="2">
  <advance width="582.0"/>
  <unicode hex="00EE"/>
  <anchor x="291.0" y="1200.0" name="_top"/>
  <anchor x="291.0" y="0.0" name="bottom"/>
  <anchor x="494.5" y="0.0" name="ogonek"/>
  <anchor x="291.0" y="1200.0" name="top"/>
  <outline>
    <contour>
      <point x="87.5" y="0.0" type="line"/>
      <point x="494.5" y="0.0" type="line"/>
      <point x="494.5" y="1100.0" type="line"/>
      <point x="87.5" y="1100.0" type="line"/>
    </contour>
    <contour>
      <point x="-90.5" y="1220.0" type="line"/>
      <point x="185.0" y="1220.0" type="line"/>
      <point x="316.0" y="1483.0" type="line"/>
      <point x="266.0" y="1483.0" type="line"/>
      <point x="397.0" y="1220.0" type="line"/>
      <point x="672.5" y="1220.0" type="line"/>
      <point x="457.0" y="1616.0" type="line"/>
      <point x="125.0" y="1616.0" type="line"/>
    </contour>
  </outline>
</glyph>
<glyph name="idieresis" format="2">
  <advance width="582.0"/>
  <unicode hex="00EF"/>
  <anchor x="291.0" y="1200.0" name="_top"/>
  <anchor x="291.0" y="0.0" name="bottom"/>
  <anchor x="494.5" y="0.0" name="ogonek"/>
  <anchor x="291.0" y="1200.0" name="top"/>
  <outline>
    <contour>
      <point x="87.5" y="0.0" type="line"/>
      <point x="494.5" y="0.0" type="line"/>
      <point x="494.5" y="1100.0" type="line"/>
      <point x="87.5" y="1100.0" type="line"/>
    </contour>
    <contour>
      <point x="544.0" y="1217.5" type="curve" smooth="yes"/>
      <point x="677.5" y="1217.5"/>
      <point x="755.5" y="1292.5"/>
      <point x="755.5" y="1418.0" type="curve" smooth="yes"/>
      <point x="755.5" y="1543.5"/>
      <point x="677.5" y="1618.5"/>
      <point x="544.0" y="1618.5" type="curve" smooth="yes"/>
      <point x="410.5" y="1618.5"/>
      <point x="332.5" y="1543.5"/>
      <point x="332.5" y="1418.0" type="curve" smooth="yes"/>
      <point x="332.5" y="1292.5"/>
      <point x="410.5" y="1217.5"/>
    </contour>
    <contour>
      <point x="38.0" y="1217.5" type="curve" smooth="yes"/>
      <point x="171.5" y="1217.5"/>
      <point x="249.5" y="1292.5"/>
      <point x="249.5" y="1418.0" type="curve" smooth="yes"/>
      <point x="249.5" y="1543.5"/>
      <point x="171.5" y="1618.5"/>
      <point x="38.0" y="1618.5" type="curve" smooth="yes"/>
      <point x="-95.5" y="1618.5"/>
      <point x="-173.5" y="1543.5"/>
      <point x="-173.5" y="1418.0" type="curve" smooth="yes"/>
      <point x="-173.5" y="1292.5"/>
      <point x="-95.5" y="1217.5"/>
    </contour>
  </outline>
</glyph>
<glyph name="eth" format="2">
  <advance width="1167.0"/>
  <unicode hex="00F0"/>
  <outline>
    <contour>
      <point x="583.5" y="-25.0" type="curve" smooth="yes"/>
      <point x="925.5" y="-25.0"/>
      <point x="1121.0" y="164.0"/>
      <point x="1122.0" y="620.5" type="curve" smooth="yes"/>
      <point x="1123.0" y="992.0"/>
      <point x="912.0" y="1395.5"/>
      <point x="640.5" y="1616.0" type="curve"/>
      <point x="185.5" y="1616.0" type="line"/>
      <point x="417.5" y="1429.0"/>
      <point x="623.5" y="1195.5"/>
      <point x="693.0" y="944.0" type="curve"/>
      <point x="800.0" y="980.5" type="line"/>
      <point x="747.5" y="1065.0"/>
      <point x="640.0" y="1110.0"/>
      <point x="548.0" y="1110.0" type="curve" smooth="yes"/>
      <point x="249.5" y="1110.0"/>
      <point x="46.5" y="931.5"/>
      <point x="46.5" y="544.0" type="curve" smooth="yes"/>
      <point x="46.5" y="165.5"/>
      <point x="244.5" y="-25.0"/>
    </contour>
    <contour>
      <point x="583.5" y="275.0" type="curve" smooth="yes"/>
      <point x="497.5" y="275.0"/>
      <point x="456.5" y="323.5"/>
      <point x="456.5" y="542.5" type="curve" smooth="yes"/>
      <point x="456.5" y="763.0"/>
      <point x="500.5" y="814.5"/>
      <point x="583.5" y="814.5" type="curve" smooth="yes"/>
      <point x="666.5" y="814.5"/>
      <point x="710.5" y="763.0"/>
      <point x="710.5" y="539.5" type="curve" smooth="yes"/>
      <point x="710.5" y="323.5"/>
      <point x="669.5" y="275.0"/>
    </contour>
    <contour>
      <point x="165.5" y="1162.5" type="line"/>
      <point x="1091.5" y="1350.5" type="line"/>
      <point x="1045.0" y="1562.0" type="line"/>
      <point x="119.0" y="1374.0" type="line"/>
    </contour>
  </outline>
</glyph>
<glyph name="ntilde" format="2">
  <advance width="1189.0"/>
  <unicode hex="00F1"/>
  <anchor x="598.0" y="1200.0" name="_top"/>
  <anchor x="10.5" y="1200.0" name="apostrophe"/>
  <anchor x="598.0" y="0.0" name="bottom"/>
  <anchor x="598.0" y="1200.0" name="top"/>
  <outline>
    <contour>
      <point x="87.5" y="0.0" type="line"/>
      <point x="493.0" y="0.0" type="line"/>
      <point x="493.0" y="719.5" type="line"/>
      <point x="519.5" y="747.0"/>
      <point x="563.0" y="765.5"/>
      <point x="609.0" y="765.5" type="curve" smooth="yes"/>
      <point x="665.5" y="765.5"/>
      <point x="701.0" y="740.0"/>
      <point x="701.0" y="654.0" type="curve" smooth="yes"/>
      <point x="701.0" y="0.0" type="line"/>
      <point x="1106.5" y="0.0" type="line"/>
      <point x="1106.5" y="683.0" type="line" smooth="yes"/>
      <point x="1106.5" y="998.0"/>
      <point x="955.0" y="1118.0"/>
      <point x="753.0" y="1118.0" type="curve" smooth="yes"/>
      <point x="634.0" y="1118.0"/>
      <point x="536.5" y="1074.5"/>
      <point x="467.0" y="992.0" type="curve"/>
      <point x="450.0" y="992.0" type="line"/>
      <point x="422.0" y="1100.0" type="line"/>
      <point x="87.5" y="1100.0" type="line"/>
    </contour>
    <contour>
      <point x="761.0" y="1247.5" type="curve" smooth="yes"/>
      <point x="849.0" y="1247.5"/>
      <point x="912.0" y="1272.0"/>
      <point x="969.0" y="1330.5" type="curve"/>
      <point x="969.0" y="1583.5" type="line"/>
      <point x="903.5" y="1520.5"/>
      <point x="845.5" y="1493.0"/>
      <point x="767.0" y="1493.0" type="curve" smooth="yes"/>
      <point x="659.5" y="1493.0"/>
      <point x="564.5" y="1590.5"/>
      <point x="435.0" y="1590.5" type="curve" smooth="yes"/>
      <point x="347.0" y="1590.5"/>
      <point x="284.0" y="1566.0"/>
      <point x="227.0" y="1507.5" type="curve"/>
      <point x="227.0" y="1254.5" type="line"/>
      <point x="292.5" y="1317.5"/>
      <point x="350.5" y="1345.0"/>
      <point x="429.0" y="1345.0" type="curve" smooth="yes"/>
      <point x="536.5" y="1345.0"/>
      <point x="631.5" y="1247.5"/>
    </contour>
  </outline>
</glyph>
<glyph name="otilde" format="2">
  <advance width="1167.0"/>
  <unicode hex="00F5"/>
  <anchor x="583.5" y="1200.0" name="_top"/>
  <anchor x="583.5" y="0.0" name="bottom"/>
  <anchor x="583.5" y="550.0" name="center"/>
  <anchor x="765.0" y="0.0" name="ogonek"/>
  <anchor x="583.5" y="1200.0" name="top"/>
  <anchor x="584.0" y="1100.0" name="topright"/>
  <outline>
    <contour>
      <point x="583.5" y="-22.0" type="curve" smooth="yes"/>
      <point x="921.0" y="-22.0"/>
      <point x="1120.5" y="167.0"/>
      <point x="1120.5" y="547.0" type="curve" smooth="yes"/>
      <point x="1120.5" y="921.0"/>
      <point x="926.5" y="1118.0"/>
      <point x="583.5" y="1118.0" type="curve" smooth="yes"/>
      <point x="240.5" y="1118.0"/>
      <point x="46.5" y="928.5"/>
      <point x="46.5" y="544.0" type="curve" smooth="yes"/>
      <point x="46.5" y="167.0"/>
      <point x="246.0" y="-22.0"/>
    </contour>
    <contour>
      <point x="583.5" y="278.0" type="curve" smooth="yes"/>
      <point x="498.5" y="278.0"/>
      <point x="456.5" y="325.5"/>
      <point x="456.5" y="547.0" type="curve" smooth="yes"/>
      <point x="456.5" y="768.5"/>
      <point x="501.5" y="818.0"/>
      <point x="583.5" y="818.0" type="curve" smooth="yes"/>
      <point x="665.5" y="818.0"/>
      <point x="710.5" y="768.5"/>
      <point x="710.5" y="544.0" type="curve" smooth="yes"/>
      <point x="710.5" y="325.5"/>
      <point x="668.5" y="278.0"/>
    </contour>
    <contour>
      <point x="746.5" y="1247.5" type="curve" smooth="yes"/>
      <point x="834.5" y="1247.5"/>
      <point x="897.5" y="1272.0"/>
      <point x="954.5" y="1330.5" type="curve"/>
      <point x="954.5" y="1583.5" type="line"/>
      <point x="889.0" y="1520.5"/>
      <point x="831.0" y="1493.0"/>
      <point x="752.5" y="1493.0" type="curve" smooth="yes"/>
      <point x="645.0" y="1493.0"/>
      <point x="550.0" y="1590.5"/>
      <point x="420.5" y="1590.5" type="curve" smooth="yes"/>
      <point x="332.5" y="1590.5"/>
      <point x="269.5" y="1566.0"/>
      <point x="212.5" y="1507.5" type="curve"/>
      <point x="212.5" y="1254.5" type="line"/>
      <point x="278.0" y="1317.5"/>
      <point x="336.0" y="1345.0"/>
      <point x="414.5" y="1345.0" type="curve" smooth="yes"/>
      <point x="522.0" y="1345.0"/>
      <point x="617.0" y="1247.5"/>
    </contour>
  </outline>
</glyph>
<glyph name="divide" format="2">
  <advance width="1076.0"/>
  <unicode hex="00F7"/>
  <outline>
    <contour>
      <point x="87.0" y="605.0" type="line"/>
      <point x="989.0" y="605.0" type="line"/>
      <point x="989.0" y="915.0" type="line"/>
      <point x="87.0" y="915.0" type="line"/>
    </contour>
    <contour>
      <point x="538.0" y="123.0" type="curve" smooth="yes"/>
      <point x="674.5" y="123.0"/>
      <point x="767.0" y="209.5"/>
      <point x="767.0" y="341.0" type="curve" smooth="yes"/>
      <point x="767.0" y="472.5"/>
      <point x="678.5" y="559.0"/>
      <point x="538.0" y="559.0" type="curve" smooth="yes"/>
      <point x="397.5" y="559.0"/>
      <point x="309.0" y="476.5"/>
      <point x="309.0" y="341.0" type="curve" smooth="yes"/>
      <point x="309.0" y="205.5"/>
      <point x="401.5" y="123.0"/>
    </contour>
    <contour>
      <point x="538.0" y="961.0" type="curve" smooth="yes"/>
      <point x="674.5" y="961.0"/>
      <point x="767.0" y="1047.5"/>
      <point x="767.0" y="1179.0" type="curve" smooth="yes"/>
      <point x="767.0" y="1310.5"/>
      <point x="678.5" y="1397.0"/>
      <point x="538.0" y="1397.0" type="curve" smooth="yes"/>
      <point x="397.5" y="1397.0"/>
      <point x="309.0" y="1314.5"/>
      <point x="309.0" y="1179.0" type="curve" smooth="yes"/>
      <point x="309.0" y="1043.5"/>
      <point x="401.5" y="961.0"/>
    </contour>
  </outline>
</glyph>
<glyph name="udieresis" format="2">
  <advance width="1180.5"/>
  <unicode hex="00FC"/>
  <anchor x="588.5" y="1200.0" name="_top"/>
  <anchor x="588.5" y="0.0" name="bottom"/>
  <anchor x="1093.0" y="0.0" name="ogonek"/>
  <anchor x="588.5" y="1200.0" name="top"/>
  <anchor x="748.0" y="1100.0" name="topright"/>
  <outline>
    <contour>
      <point x="437.5" y="-19.5" type="curve" smooth="yes"/>
      <point x="549.0" y="-19.5"/>
      <point x="641.0" y="24.0"/>
      <point x="714.5" y="108.0" type="curve"/>
      <point x="730.5" y="108.0" type="line"/>
      <point x="758.5" y="0.0" type="line"/>
      <point x="1093.0" y="0.0" type="line"/>
      <point x="1093.0" y="1100.0" type="line"/>
      <point x="687.5" y="1100.0" type="line"/>
      <point x="687.5" y="379.0" type="line"/>
      <point x="661.0" y="351.5"/>
      <point x="614.5" y="333.0"/>
      <point x="575.5" y="333.0" type="curve" smooth="yes"/>
      <point x="523.5" y="333.0"/>
      <point x="488.0" y="360.0"/>
      <point x="488.0" y="446.0" type="curve" smooth="yes"/>
      <point x="488.0" y="1100.0" type="line"/>
      <point x="82.5" y="1100.0" type="line"/>
      <point x="82.5" y="412.5" type="line" smooth="yes"/>
      <point x="82.5" y="99.0"/>
      <point x="235.0" y="-19.5"/>
    </contour>
    <contour>
      <point x="841.5" y="1217.5" type="curve" smooth="yes"/>
      <point x="975.0" y="1217.5"/>
      <point x="1053.0" y="1292.5"/>
      <point x="1053.0" y="1418.0" type="curve" smooth="yes"/>
      <point x="1053.0" y="1543.5"/>
      <point x="975.0" y="1618.5"/>
      <point x="841.5" y="1618.5" type="curve" smooth="yes"/>
      <point x="708.0" y="1618.5"/>
      <point x="630.0" y="1543.5"/>
      <point x="630.0" y="1418.0" type="curve" smooth="yes"/>
      <point x="630.0" y="1292.5"/>
      <point x="708.0" y="1217.5"/>
    </contour>
    <contour>
      <point x="335.5" y="1217.5" type="curve" smooth="yes"/>
      <point x="469.0" y="1217.5"/>
      <point x="547.0" y="1292.5"/>
      <point x="547.0" y="1418.0" type="curve" smooth="yes"/>
      <point x="547.0" y="1543.5"/>
      <point x="469.0" y="1618.5"/>
      <point x="335.5" y="1618.5" type="curve" smooth="yes"/>
      <point x="202.0" y="1618.5"/>
      <point x="124.0" y="1543.5"/>
      <point x="124.0" y="1418.0" type="curve" smooth="yes"/>
      <point x="124.0" y="1292.5"/>
      <point x="202.0" y="1217.5"/>
    </contour>
  </outline>
</glyph>
<glyph name="thorn" format="2">
  <advance width="1200.5"/>
  <unicode hex="00FE"/>
  <outline>
    <contour>
      <point x="87.5" y="-440.0" type="line"/>
      <point x="493.0" y="-440.0" type="line"/>
      <point x="493.0" y="-18.5" type="line"/>
      <point x="510.0" y="-19.5"/>
      <point x="528.0" y="-20.5"/>
      <point x="547.5" y="-20.5" type="curve" smooth="yes"/>
      <point x="960.0" y="-20.5"/>
      <point x="1154.0" y="194.0"/>
      <point x="1154.0" y="569.5" type="curve" smooth="yes"/>
      <point x="1154.0" y="946.0"/>
      <point x="969.0" y="1118.0"/>
      <point x="756.5" y="1118.0" type="curve" smooth="yes"/>
      <point x="647.5" y="1118.0"/>
      <point x="563.5" y="1074.0"/>
      <point x="511.5" y="992.5" type="curve"/>
      <point x="493.0" y="992.5" type="line"/>
      <point x="493.0" y="1616.0" type="line"/>
      <point x="87.5" y="1616.0" type="line"/>
    </contour>
    <contour>
      <point x="563.0" y="284.0" type="curve" smooth="yes"/>
      <point x="542.5" y="284.0"/>
      <point x="514.0" y="287.0"/>
      <point x="493.0" y="290.0" type="curve"/>
      <point x="493.0" y="763.0" type="line"/>
      <point x="518.5" y="777.5"/>
      <point x="553.5" y="784.0"/>
      <point x="585.5" y="784.0" type="curve" smooth="yes"/>
      <point x="686.0" y="784.0"/>
      <point x="744.0" y="735.0"/>
      <point x="744.0" y="536.5" type="curve" smooth="yes"/>
      <point x="744.0" y="343.5"/>
      <point x="683.5" y="284.0"/>
    </contour>
  </outline>
</glyph>
<glyph name="ydieresis" format="2">
  <advance width="1145.0"/>
  <unicode hex="00FF"/>
  <anchor x="572.5" y="1200.0" name="_top"/>
  <anchor x="1017.0" y="0.0" name="bottom"/>
  <anchor x="572.5" y="1200.0" name="top"/>
  <outline>
    <contour>
      <point x="302.5" y="-440.0" type="line"/>
      <point x="697.5" y="-440.0" type="line"/>
      <point x="1156.0" y="1100.0" type="line"/>
      <point x="758.0" y="1100.0" type="line"/>
      <point x="569.5" y="331.0" type="line"/>
      <point x="435.0" y="0.0" type="line"/>
    </contour>
    <contour>
      <point x="315.0" y="0.0" type="line"/>
      <point x="680.0" y="0.0" type="line"/>
      <point x="408.0" y="1100.0" type="line"/>
      <point x="-11.0" y="1100.0" type="line"/>
    </contour>
    <contour>
      <point x="825.5" y="1217.5" type="curve" smooth="yes"/>
      <point x="959.0" y="1217.5"/>
      <point x="1037.0" y="1292.5"/>
      <point x="1037.0" y="1418.0" type="curve" smooth="yes"/>
      <point x="1037.0" y="1543.5"/>
      <point x="959.0" y="1618.5"/>
      <point x="825.5" y="1618.5" type="curve" smooth="yes"/>
      <point x="692.0" y="1618.5"/>
      <point x="614.0" y="1543.5"/>
      <point x="614.0" y="1418.0" type="curve" smooth="yes"/>
      <point x="614.0" y="1292.5"/>
      <point x="692.0" y="1217.5"/>
    </contour>
    <contour>
      <point x="319.5" y="1217.5" type="curve" smooth="yes"/>
      <point x="453.0" y="1217.5"/>
      <point x="531.0" y="1292.5"/>
      <point x="531.0" y="1418.0" type="curve" smooth="yes"/>
      <point x="531.0" y="1543.5"/>
      <point x="453.0" y="1618.5"/>
      <point x="319.5" y="1618.5" type="curve" smooth="yes"/>
      <point x="186.0" y="1618.5"/>
      <point x="108.0" y="1543.5"/>
      <point x="108.0" y="1418.0" type="curve" smooth="yes"/>
      <point x="108.0" y="1292.5"/>
      <point x="186.0" y="1217.5"/>
    </contour>
  </outline>
</glyph>
<glyph name="Amacron" format="2">
  <advance width="1415.0"/>
  <unicode hex="0100"/>
  <anchor x="707.0" y="1520.0" name="_top"/>
  <anchor x="707.5" y="0.0" name="bottom"/>
  <anchor x="1417.0" y="0.0" name="ogonek"/>
  <anchor x="707.0" y="1520.0" name="top"/>
  <outline>
    <contour>
      <point x="-2.0" y="0.0" type="line"/>
      <point x="398.0" y="0.0" type="line"/>
      <point x="722.5" y="1300.5" type="line"/>
      <point x="685.5" y="1300.5" type="line"/>
      <point x="1013.0" y="0.0" type="line"/>
      <point x="1417.0" y="0.0" type="line"/>
      <point x="1014.0" y="1480.0" type="line"/>
      <point x="401.0" y="1480.0" type="line"/>
    </contour>
    <contour>
      <point x="309.5" y="341.5" type="line"/>
      <point x="1103.0" y="341.5" type="line"/>
      <point x="1022.0" y="676.5" type="line"/>
      <point x="391.0" y="676.5" type="line"/>
    </contour>
    <contour>
      <point x="314.0" y="1621.5" type="line"/>
      <point x="1100.0" y="1621.5" type="line"/>
      <point x="1100.0" y="1868.5" type="line"/>
      <point x="314.0" y="1868.5" type="line"/>
    </contour>
  </outline>
</glyph>
<glyph name="Aogonek" format="2">
  <advance width="1415.0"/>
  <unicode hex="0104"/>
  <anchor x="1417.0" y="0.0" name="_ogonek"/>
  <anchor x="707.5" y="0.0" name="bottom"/>
  <anchor x="1417.0" y="0.0" name="ogonek"/>
  <anchor x="707.0" y="1520.0" name="top"/>
  <outline>
    <contour>
      <point x="-2.0" y="0.0" type="line"/>
      <point x="398.0" y="0.0" type="line"/>
      <point x="722.5" y="1300.5" type="line"/>
      <point x="685.5" y="1300.5" type="line"/>
      <point x="1013.0" y="0.0" type="line"/>
      <point x="1417.0" y="0.0" type="line"/>
      <point x="1014.0" y="1480.0" type="line"/>
      <point x="401.0" y="1480.0" type="line"/>
    </contour>
    <contour>
      <point x="309.5" y="341.5" type="line"/>
      <point x="1103.0" y="341.5" type="line"/>
      <point x="1022.0" y="676.5" type="line"/>
      <point x="391.0" y="676.5" type="line"/>
    </contour>
    <contour>
      <point x="1247.0" y="-460.0" type="curve" smooth="yes"/>
      <point x="1323.5" y="-460.0"/>
      <point x="1381.0" y="-448.0"/>
      <point x="1434.5" y="-430.0" type="curve"/>
      <point x="1434.5" y="-277.5" type="line"/>
      <point x="1384.5" y="-295.5"/>
      <point x="1340.5" y="-303.0"/>
      <point x="1304.0" y="-303.0" type="curve" smooth="yes"/>
      <point x="1209.0" y="-303.0"/>
      <point x="1171.0" y="-268.0"/>
      <point x="1171.0" y="-211.0" type="curve" smooth="yes"/>
      <point x="1171.0" y="-138.5"/>
      <point x="1215.0" y="-69.0"/>
      <point x="1417.0" y="0.0" type="curve"/>
      <point x="1305.0" y="84.0" type="line"/>
      <point x="1033.0" y="-2.5"/>
      <point x="945.0" y="-104.0"/>
      <point x="945.0" y="-237.0" type="curve" smooth="yes"/>
      <point x="945.0" y="-373.0"/>
      <point x="1040.5" y="-460.0"/>
    </contour>
  </outline>
</glyph>
<glyph name="aogonek" format="2">
  <advance width="1092.0"/>
  <unicode hex="0105"/>
  <anchor x="1009.5" y="0.0" name="_ogonek"/>
  <anchor x="543.5" y="0.0" name="bottom"/>
  <anchor x="1009.5" y="0.0" name="ogonek"/>
  <anchor x="543.5" y="1200.0" name="top"/>
  <outline>
    <contour>
      <point x="380.0" y="-22.0" type="curve" smooth="yes"/>
      <point x="487.5" y="-22.0"/>
      <point x="580.0" y="13.0"/>
      <point x="634.0" y="106.5" type="curve"/>
      <point x="651.0" y="106.5" type="line"/>
      <point x="679.5" y="0.0" type="line"/>
      <point x="1009.5" y="0.0" type="line"/>
      <point x="1009.5" y="628.0" type="line" smooth="yes"/>
      <point x="1009.5" y="993.0"/>
      <point x="855.5" y="1118.0"/>
      <point x="488.0" y="1118.0" type="curve" smooth="yes"/>
      <point x="376.0" y="1118.0"/>
      <point x="239.0" y="1103.5"/>
      <point x="130.0" y="1076.5" type="curve"/>
      <point x="130.0" y="768.0" type="line"/>
      <point x="220.0" y="793.5"/>
      <point x="326.5" y="806.5"/>
      <point x="408.5" y="806.5" type="curve" smooth="yes"/>
      <point x="570.0" y="806.5"/>
      <point x="615.5" y="764.5"/>
      <point x="615.5" y="651.5" type="curve" smooth="yes"/>
      <point x="615.5" y="288.0" type="line"/>
      <point x="586.5" y="269.0"/>
      <point x="553.5" y="263.0"/>
      <point x="524.5" y="263.0" type="curve" smooth="yes"/>
      <point x="467.5" y="263.0"/>
      <point x="432.0" y="293.5"/>
      <point x="432.0" y="350.0" type="curve" smooth="yes"/>
      <point x="432.0" y="410.5"/>
      <point x="469.5" y="447.0"/>
      <point x="550.0" y="451.5" type="curve" smooth="yes"/>
      <point x="713.0" y="460.5" type="line"/>
      <point x="663.0" y="679.0" type="line"/>
      <point x="502.5" y="670.0" type="line" smooth="yes"/>
      <point x="170.5" y="650.5"/>
      <point x="37.0" y="524.5"/>
      <point x="37.0" y="307.5" type="curve" smooth="yes"/>
      <point x="37.0" y="112.0"/>
      <point x="168.5" y="-22.0"/>
    </contour>
    <contour>
      <point x="839.5" y="-460.0" type="curve" smooth="yes"/>
      <point x="916.0" y="-460.0"/>
      <point x="966.5" y="-446.5"/>
      <point x="1014.5" y="-430.0" type="curve"/>
      <point x="1014.5" y="-277.5" type="line"/>
      <point x="967.5" y="-295.5"/>
      <point x="928.5" y="-303.0"/>
      <point x="896.5" y="-303.0" type="curve" smooth="yes"/>
      <point x="821.0" y="-303.0"/>
      <point x="783.5" y="-268.0"/>
      <point x="783.5" y="-212.0" type="curve" smooth="yes"/>
      <point x="783.5" y="-138.5"/>
      <point x="825.0" y="-69.0"/>
      <point x="1009.5" y="0.0" type="curve"/>
      <point x="897.5" y="84.0" type="line"/>
      <point x="635.5" y="-2.5"/>
      <point x="557.5" y="-104.0"/>
      <point x="557.5" y="-237.0" type="curve" smooth="yes"/>
      <point x="557.5" y="-373.0"/>
      <point x="652.0" y="-460.0"/>
    </contour>
  </outline>
</glyph>
<glyph name="Ccaron" format="2">
  <advance width="1198.5"/>
  <unicode hex="010C"/>
  <anchor x="736.0" y="1520.0" name="_top"/>
  <anchor x="736.0" y="0.0" name="bottom"/>
  <anchor x="736.0" y="1520.0" name="top"/>
  <outline>
    <contour>
      <point x="839.5" y="-20.0" type="curve" smooth="yes"/>
      <point x="949.5" y="-20.0"/>
      <point x="1071.0" y="-2.5"/>
      <point x="1155.0" y="26.0" type="curve"/>
      <point x="1155.0" y="366.0" type="line"/>
      <point x="1063.0" y="340.0"/>
      <point x="971.0" y="322.5"/>
      <point x="890.5" y="322.5" type="curve" smooth="yes"/>
      <point x="615.5" y="322.5"/>
      <point x="493.5" y="431.5"/>
      <point x="493.5" y="740.0" type="curve" smooth="yes"/>
      <point x="493.5" y="1041.0"/>
      <point x="621.5" y="1157.5"/>
      <point x="895.5" y="1157.5" type="curve" smooth="yes"/>
      <point x="987.5" y="1157.5"/>
      <point x="1073.5" y="1146.0"/>
      <point x="1155.0" y="1129.5" type="curve"/>
      <point x="1155.0" y="1469.5" type="line"/>
      <point x="1063.5" y="1490.0"/>
      <point x="962.0" y="1500.0"/>
      <point x="858.5" y="1500.0" type="curve" smooth="yes"/>
      <point x="351.0" y="1500.0"/>
      <point x="61.5" y="1241.0"/>
      <point x="61.5" y="736.0" type="curve" smooth="yes"/>
      <point x="61.5" y="209.0"/>
      <point x="340.5" y="-20.0"/>
    </contour>
    <contour>
      <point x="566.5" y="1586.0" type="line"/>
      <point x="905.5" y="1586.0" type="line"/>
      <point x="1132.5" y="1902.0" type="line"/>
      <point x="849.5" y="1902.0" type="line"/>
      <point x="710.0" y="1690.5" type="line"/>
      <point x="762.0" y="1690.5" type="line"/>
      <point x="622.5" y="1902.0" type="line"/>
      <point x="339.5" y="1902.0" type="line"/>
    </contour>
  </outline>
</glyph>
<glyph name="ccaron" format="2">
  <advance width="931.5"/>
  <unicode hex="010D"/>
  <anchor x="505.5" y="1200.0" name="_top"/>
  <anchor x="527.5" y="0.0" name="bottom"/>
  <anchor x="505.5" y="1200.0" name="top"/>
  <outline>
    <contour>
      <point x="622.5" y="-22.0" type="curve" smooth="yes"/>
      <point x="714.5" y="-22.0"/>
      <point x="810.0" y="-8.5"/>
      <point x="886.0" y="15.5" type="curve"/>
      <point x="886.0" y="336.5" type="line"/>
      <point x="813.0" y="317.0"/>
      <point x="757.5" y="307.0"/>
      <point x="700.5" y="307.0" type="curve" smooth="yes"/>
      <point x="544.0" y="307.0"/>
      <point x="466.0" y="371.0"/>
      <point x="466.0" y="552.0" type="curve" smooth="yes"/>
      <point x="466.0" y="718.5"/>
      <point x="541.5" y="789.0"/>
      <point x="723.5" y="789.0" type="curve" smooth="yes"/>
      <point x="778.0" y="789.0"/>
      <point x="831.5" y="784.0"/>
      <point x="886.0" y="776.0" type="curve"/>
      <point x="886.0" y="1097.0" type="line"/>
      <point x="815.0" y="1111.0"/>
      <point x="740.0" y="1118.0"/>
      <point x="654.5" y="1118.0" type="curve" smooth="yes"/>
      <point x="277.5" y="1118.0"/>
      <point x="46.5" y="940.5"/>
      <point x="46.5" y="547.5" type="curve" smooth="yes"/>
      <point x="46.5" y="165.0"/>
      <point x="252.0" y="-22.0"/>
    </contour>
    <contour>
      <point x="339.5" y="1220.0" type="line"/>
      <point x="671.5" y="1220.0" type="line"/>
      <point x="887.0" y="1616.0" type="line"/>
      <point x="611.5" y="1616.0" type="line"/>
      <point x="480.5" y="1353.0" type="line"/>
      <point x="530.5" y="1353.0" type="line"/>
      <point x="399.5" y="1616.0" type="line"/>
      <point x="124.0" y="1616.0" type="line"/>
    </contour>
  </outline>
</glyph>
<glyph name="Ebreve" format="2">
  <advance width="1220.5"/>
  <unicode hex="0114"/>
  <anchor x="644.0" y="1520.0" name="_top"/>
  <anchor x="644.0" y="0.0" name="bottom"/>
  <anchor x="1070.5" y="0.0" name="ogonek"/>
  <anchor x="644.0" y="1520.0" name="top"/>
  <anchor x="37.0" y="1480.0" name="topleft"/>
  <outline>
    <contour>
      <point x="98.5" y="0.0" type="line"/>
      <point x="1155.5" y="0.0" type="line"/>
      <point x="1155.5" y="338.0" type="line"/>
      <point x="505.5" y="338.0" type="line"/>
      <point x="505.5" y="1142.0" type="line"/>
      <point x="1145.5" y="1142.0" type="line"/>
      <point x="1145.5" y="1480.0" type="line"/>
      <point x="98.5" y="1480.0" type="line"/>
    </contour>
    <contour>
      <point x="364.0" y="586.0" type="line"/>
      <point x="1041.0" y="586.0" type="line"/>
      <point x="1041.0" y="924.0" type="line"/>
      <point x="364.0" y="924.0" type="line"/>
    </contour>
    <contour>
      <point x="644.0" y="1586.0" type="curve" smooth="yes"/>
      <point x="882.5" y="1586.0"/>
      <point x="1017.0" y="1705.0"/>
      <point x="1039.5" y="1902.0" type="curve"/>
      <point x="797.0" y="1902.0" type="line"/>
      <point x="783.0" y="1816.0"/>
      <point x="734.5" y="1777.5"/>
      <point x="644.0" y="1777.5" type="curve" smooth="yes"/>
      <point x="553.5" y="1777.5"/>
      <point x="505.0" y="1816.0"/>
      <point x="491.0" y="1902.0" type="curve"/>
      <point x="248.5" y="1902.0" type="line"/>
      <point x="271.0" y="1705.0"/>
      <point x="405.5" y="1586.0"/>
    </contour>
  </outline>
</glyph>
<glyph name="Eogonek" format="2">
  <advance width="1220.5"/>
  <unicode hex="0118"/>
  <anchor x="1070.5" y="0.0" name="_ogonek"/>
  <anchor x="644.0" y="0.0" name="bottom"/>
  <anchor x="1070.5" y="0.0" name="ogonek"/>
  <anchor x="644.0" y="1520.0" name="top"/>
  <anchor x="37.0" y="1480.0" name="topleft"/>
  <outline>
    <contour>
      <point x="98.5" y="0.0" type="line"/>
      <point x="1155.5" y="0.0" type="line"/>
      <point x="1155.5" y="338.0" type="line"/>
      <point x="505.5" y="338.0" type="line"/>
      <point x="505.5" y="1142.0" type="line"/>
      <point x="1145.5" y="1142.0" type="line"/>
      <point x="1145.5" y="1480.0" type="line"/>
      <point x="98.5" y="1480.0" type="line"/>
    </contour>
    <contour>
      <point x="364.0" y="586.0" type="line"/>
      <point x="1041.0" y="586.0" type="line"/>
      <point x="1041.0" y="924.0" type="line"/>
      <point x="364.0" y="924.0" type="line"/>
    </contour>
    <contour>
      <point x="900.5" y="-460.0" type="curve" smooth="yes"/>
      <point x="977.0" y="-460.0"/>
      <point x="1034.5" y="-448.0"/>
      <point x="1088.0" y="-430.0" type="curve"/>
      <point x="1088.0" y="-277.5" type="line"/>
      <point x="1038.0" y="-295.5"/>
      <point x="994.0" y="-303.0"/>
      <point x="957.5" y="-303.0" type="curve" smooth="yes"/>
      <point x="862.5" y="-303.0"/>
      <point x="824.5" y="-268.0"/>
      <point x="824.5" y="-211.0" type="curve" smooth="yes"/>
      <point x="824.5" y="-138.5"/>
      <point x="868.5" y="-69.0"/>
      <point x="1070.5" y="0.0" type="curve"/>
      <point x="958.5" y="84.0" type="line"/>
      <point x="686.5" y="-2.5"/>
      <point x="598.5" y="-104.0"/>
      <point x="598.5" y="-237.0" type="curve" smooth="yes"/>
      <point x="598.5" y="-373.0"/>
      <point x="694.0" y="-460.0"/>
    </contour>
  </outline>
</glyph>
<glyph name="eogonek" format="2">
  <advance width="1080.0"/>
  <unicode hex="0119"/>
  <outline>
    <contour>
      <point x="809.0" y="-460.0" type="curve" smooth="yes"/>
      <point x="885.5" y="-460.0"/>
      <point x="936.0" y="-446.5"/>
      <point x="984.0" y="-430.0" type="curve"/>
      <point x="984.0" y="-277.5" type="line"/>
      <point x="937.0" y="-295.5"/>
      <point x="898.0" y="-303.0"/>
      <point x="866.0" y="-303.0" type="curve" smooth="yes"/>
      <point x="790.5" y="-303.0"/>
      <point x="753.0" y="-268.0"/>
      <point x="753.0" y="-212.0" type="curve" smooth="yes"/>
      <point x="753.0" y="-138.5"/>
      <point x="795.5" y="-62.0"/>
      <point x="984.0" y="12.5" type="curve"/>
      <point x="984.0" y="320.0" type="line"/>
      <point x="896.0" y="301.5"/>
      <point x="803.5" y="288.5"/>
      <point x="719.0" y="288.5" type="curve" smooth="yes"/>
      <point x="499.5" y="288.5"/>
      <point x="452.5" y="333.0"/>
      <point x="452.5" y="473.0" type="curve" smooth="yes"/>
      <point x="452.5" y="637.5" type="line" smooth="yes"/>
      <point x="452.5" y="809.0"/>
      <point x="484.5" y="854.0"/>
      <point x="562.0" y="854.0" type="curve" smooth="yes"/>
      <point x="638.0" y="854.0"/>
      <point x="668.5" y="808.5"/>
      <point x="668.5" y="637.0" type="curve"/>
      <point x="726.0" y="653.5" type="line"/>
      <point x="310.5" y="653.5" type="line"/>
      <point x="310.5" y="432.5" type="line"/>
      <point x="1043.5" y="432.5" type="line"/>
      <point x="1043.5" y="540.5" type="line" smooth="yes"/>
      <point x="1043.5" y="905.5"/>
      <point x="883.5" y="1118.0"/>
      <point x="565.5" y="1118.0" type="curve" smooth="yes"/>
      <point x="227.0" y="1118.0"/>
      <point x="46.5" y="905.5"/>
      <point x="46.5" y="553.5" type="curve" smooth="yes"/>
      <point x="46.5" y="151.5"/>
      <point x="227.5" y="-22.0"/>
      <point x="663.0" y="-22.0" type="curve" smooth="yes"/>
      <point x="709.0" y="-22.0"/>
      <point x="760.5" y="-20.0"/>
      <point x="812.0" y="-15.5" type="curve"/>
      <point x="801.5" y="59.0" type="line"/>
      <point x="591.5" y="-18.5"/>
      <point x="527.0" y="-115.5"/>
      <point x="527.0" y="-237.0" type="curve" smooth="yes"/>
      <point x="527.0" y="-373.0"/>
      <point x="621.5" y="-460.0"/>
    </contour>
  </outline>
</glyph>
<glyph name="Gcircumflex" format="2">
  <advance width="1379.5"/>
  <unicode hex="011C"/>
  <anchor x="797.5" y="1520.0" name="_top"/>
  <anchor x="797.5" y="0.0" name="bottom"/>
  <anchor x="797.5" y="1520.0" name="top"/>
  <outline>
    <contour>
      <point x="911.5" y="-20.0" type="curve" smooth="yes"/>
      <point x="1029.0" y="-20.0"/>
      <point x="1160.0" y="-7.0"/>
      <point x="1282.0" y="12.5" type="curve"/>
      <point x="1282.0" y="720.0" type="line"/>
      <point x="900.0" y="720.0" type="line"/>
      <point x="900.0" y="206.5" type="line"/>
      <point x="1053.0" y="332.5" type="line"/>
      <point x="1001.5" y="325.0"/>
      <point x="932.0" y="320.0"/>
      <point x="871.5" y="320.0" type="curve" smooth="yes"/>
      <point x="622.0" y="320.0"/>
      <point x="492.5" y="439.0"/>
      <point x="492.5" y="731.5" type="curve" smooth="yes"/>
      <point x="492.5" y="1040.5"/>
      <point x="625.0" y="1157.0"/>
      <point x="961.0" y="1157.5" type="curve" smooth="yes"/>
      <point x="1058.5" y="1157.5"/>
      <point x="1147.0" y="1144.5"/>
      <point x="1239.0" y="1125.0" type="curve"/>
      <point x="1239.0" y="1465.0" type="line"/>
      <point x="1139.5" y="1488.5"/>
      <point x="1038.0" y="1500.0"/>
      <point x="917.5" y="1500.0" type="curve" smooth="yes"/>
      <point x="356.5" y="1500.0"/>
      <point x="61.5" y="1241.0"/>
      <point x="61.5" y="738.0" type="curve" smooth="yes"/>
      <point x="61.5" y="224.0"/>
      <point x="345.0" y="-20.0"/>
    </contour>
    <contour>
      <point x="401.0" y="1586.0" type="line"/>
      <point x="684.0" y="1586.0" type="line"/>
      <point x="823.5" y="1797.5" type="line"/>
      <point x="771.5" y="1797.5" type="line"/>
      <point x="911.0" y="1586.0" type="line"/>
      <point x="1194.0" y="1586.0" type="line"/>
      <point x="967.0" y="1902.0" type="line"/>
      <point x="628.0" y="1902.0" type="line"/>
    </contour>
  </outline>
</glyph>
<glyph name="gbreve" format="2">
  <advance width="1200.5"/>
  <unicode hex="011F"/>
  <anchor x="624.0" y="1200.0" name="_top"/>
  <anchor x="600.0" y="-440.0" name="bottom"/>
  <anchor x="624.0" y="1200.0" name="top"/>
  <outline>
    <contour>
      <point x="484.5" y="-460.0" type="curve" smooth="yes"/>
      <point x="906.5" y="-460.0"/>
      <point x="1113.0" y="-281.0"/>
      <point x="1113.0" y="143.0" type="curve" smooth="yes"/>
      <point x="1113.0" y="1050.5" type="line"/>
      <point x="986.5" y="1095.0"/>
      <point x="818.5" y="1118.0"/>
      <point x="673.5" y="1118.0" type="curve" smooth="yes"/>
      <point x="239.0" y="1116.5"/>
      <point x="46.5" y="900.5"/>
      <point x="46.5" y="529.0" type="curve" smooth="yes"/>
      <point x="46.5" y="162.5"/>
      <point x="242.0" y="-6.0"/>
      <point x="444.0" y="-6.0" type="curve" smooth="yes"/>
      <point x="553.0" y="-6.0"/>
      <point x="637.0" y="38.0"/>
      <point x="689.0" y="119.5" type="curve"/>
      <point x="707.5" y="119.5" type="line"/>
      <point x="707.5" y="67.5" type="line" smooth="yes"/>
      <point x="707.5" y="-88.0"/>
      <point x="627.5" y="-148.5"/>
      <point x="448.5" y="-148.5" type="curve" smooth="yes"/>
      <point x="349.5" y="-148.5"/>
      <point x="238.5" y="-135.0"/>
      <point x="127.0" y="-107.0" type="curve"/>
      <point x="127.0" y="-422.0" type="line"/>
      <point x="244.5" y="-449.5"/>
      <point x="374.0" y="-460.0"/>
    </contour>
    <contour>
      <point x="615.5" y="323.5" type="curve" smooth="yes"/>
      <point x="510.0" y="323.5"/>
      <point x="456.5" y="373.0"/>
      <point x="456.5" y="563.5" type="curve" smooth="yes"/>
      <point x="456.5" y="754.5"/>
      <point x="522.0" y="814.0"/>
      <point x="636.5" y="814.0" type="curve" smooth="yes"/>
      <point x="661.5" y="814.0"/>
      <point x="686.5" y="811.0"/>
      <point x="707.5" y="807.5" type="curve"/>
      <point x="707.5" y="342.0" type="line"/>
      <point x="681.0" y="329.5"/>
      <point x="647.0" y="323.5"/>
    </contour>
    <contour>
      <point x="624.0" y="1230.0" type="curve" smooth="yes"/>
      <point x="846.5" y="1230.0"/>
      <point x="990.5" y="1345.0"/>
      <point x="1004.5" y="1596.0" type="curve"/>
      <point x="763.0" y="1596.0" type="line"/>
      <point x="755.5" y="1480.0"/>
      <point x="707.0" y="1431.5"/>
      <point x="624.0" y="1431.5" type="curve" smooth="yes"/>
      <point x="541.0" y="1431.5"/>
      <point x="492.5" y="1480.0"/>
      <point x="485.0" y="1596.0" type="curve"/>
      <point x="243.5" y="1596.0" type="line"/>
      <point x="257.5" y="1345.0"/>
      <point x="401.5" y="1230.0"/>
    </contour>
  </outline>
</glyph>
<glyph name="Gdotaccent" format="2">
  <advance width="1379.5"/>
  <unicode hex="0120"/>
  <anchor x="797.5" y="1520.0" name="_top"/>
  <anchor x="797.5" y="0.0" name="bottom"/>
  <anchor x="797.5" y="1520.0" name="top"/>
  <outline>
    <contour>
      <point x="911.5" y="-20.0" type="curve" smooth="yes"/>
      <point x="1029.0" y="-20.0"/>
      <point x="1160.0" y="-7.0"/>
      <point x="1282.0" y="12.5" type="curve"/>
      <point x="1282.0" y="720.0" type="line"/>
      <point x="900.0" y="720.0" type="line"/>
      <point x="900.0" y="206.5" type="line"/>
      <point x="1053.0" y="332.5" type="line"/>
      <point x="1001.5" y="325.0"/>
      <point x="932.0" y="320.0"/>
      <point x="871.5" y="320.0" type="curve" smooth="yes"/>
      <point x="622.0" y="320.0"/>
      <point x="492.5" y="439.0"/>
      <point x="492.5" y="731.5" type="curve" smooth="yes"/>
      <point x="492.5" y="1040.5"/>
      <point x="625.0" y="1157.0"/>
      <point x="961.0" y="1157.5" type="curve" smooth="yes"/>
      <point x="1058.5" y="1157.5"/>
      <point x="1147.0" y="1144.5"/>
      <point x="1239.0" y="1125.0" type="curve"/>
      <point x="1239.0" y="1465.0" type="line"/>
      <point x="1139.5" y="1488.5"/>
      <point x="1038.0" y="1500.0"/>
      <point x="917.5" y="1500.0" type="curve" smooth="yes"/>
      <point x="356.5" y="1500.0"/>
      <point x="61.5" y="1241.0"/>
      <point x="61.5" y="738.0" type="curve" smooth="yes"/>
      <point x="61.5" y="224.0"/>
      <point x="345.0" y="-20.0"/>
    </contour>
    <contour>
      <point x="797.5" y="1570.0" type="curve" smooth="yes"/>
      <point x="955.0" y="1570.0"/>
      <point x="1041.5" y="1632.0"/>
      <point x="1041.5" y="1750.0" type="curve" smooth="yes"/>
      <point x="1041.5" y="1868.0"/>
      <point x="955.0" y="1930.0"/>
      <point x="797.5" y="1930.0" type="curve" smooth="yes"/>
      <point x="640.0" y="1930.0"/>
      <point x="553.5" y="1868.0"/>
      <point x="553.5" y="1750.0" type="curve" smooth="yes"/>
      <point x="553.5" y="1632.0"/>
      <point x="640.0" y="1570.0"/>
    </contour>
  </outline>
</glyph>
<glyph name="Gcommaaccent" format="2">
  <advance width="1379.5"/>
  <unicode hex="0122"/>
  <anchor x="797.5" y="0.0" name="_bottom"/>
  <anchor x="797.5" y="0.0" name="bottom"/>
  <anchor x="797.5" y="1520.0" name="top"/>
  <outline>
    <contour>
      <point x="911.5" y="-20.0" type="curve" smooth="yes"/>
      <point x="1029.0" y="-20.0"/>
      <point x="1160.0" y="-7.0"/>
      <point x="1282.0" y="12.5" type="curve"/>
      <point x="1282.0" y="720.0" type="line"/>
      <point x="900.0" y="720.0" type="line"/>
      <point x="900.0" y="206.5" type="line"/>
      <point x="1053.0" y="332.5" type="line"/>
      <point x="1001.5" y="325.0"/>
      <point x="932.0" y="320.0"/>
      <point x="871.5" y="320.0" type="curve" smooth="yes"/>
      <point x="622.0" y="320.0"/>
      <point x="492.5" y="439.0"/>
      <point x="492.5" y="731.5" type="curve" smooth="yes"/>
      <point x="492.5" y="1040.5"/>
      <point x="625.0" y="1157.0"/>
      <point x="961.0" y="1157.5" type="curve" smooth="yes"/>
      <point x="1058.5" y="1157.5"/>
      <point x="1147.0" y="1144.5"/>
      <point x="1239.0" y="1125.0" type="curve"/>
      <point x="1239.0" y="1465.0" type="line"/>
      <point x="1139.5" y="1488.5"/>
      <point x="1038.0" y="1500.0"/>
      <point x="917.5" y="1500.0" type="curve" smooth="yes"/>
      <point x="356.5" y="1500.0"/>
      <point x="61.5" y="1241.0"/>
      <point x="61.5" y="738.0" type="curve" smooth="yes"/>
      <point x="61.5" y="224.0"/>
      <point x="345.0" y="-20.0"/>
    </contour>
    <contour>
      <point x="672.5" y="-517.0" type="curve"/>
      <point x="925.5" y="-517.0" type="line"/>
      <point x="976.0" y="-457.0"/>
      <point x="1015.5" y="-359.5"/>
      <point x="1015.5" y="-279.0" type="curve" smooth="yes"/>
      <point x="1015.5" y="-168.5"/>
      <point x="951.0" y="-104.0"/>
      <point x="797.5" y="-104.0" type="curve" smooth="yes"/>
      <point x="644.0" y="-104.0"/>
      <point x="579.5" y="-154.0"/>
      <point x="579.5" y="-237.0" type="curve" smooth="yes"/>
      <point x="579.5" y="-319.0"/>
      <point x="641.5" y="-371.0"/>
      <point x="797.5" y="-371.0" type="curve" smooth="yes"/>
      <point x="825.5" y="-371.0" type="line"/>
      <point x="743.0" y="-293.0" type="line"/>
      <point x="743.0" y="-367.0"/>
      <point x="725.0" y="-421.5"/>
    </contour>
  </outline>
</glyph>
<glyph name="gcommaaccent" format="2">
  <advance width="1200.5"/>
  <unicode hex="0123"/>
  <anchor x="624.0" y="1200.0" name="_top"/>
  <anchor x="600.0" y="-440.0" name="bottom"/>
  <anchor x="624.0" y="1200.0" name="top"/>
  <outline>
    <contour>
      <point x="484.5" y="-460.0" type="curve" smooth="yes"/>
      <point x="906.5" y="-460.0"/>
      <point x="1113.0" y="-281.0"/>
      <point x="1113.0" y="143.0" type="curve" smooth="yes"/>
      <point x="1113.0" y="1050.5" type="line"/>
      <point x="986.5" y="1095.0"/>
      <point x="818.5" y="1118.0"/>
      <point x="673.5" y="1118.0" type="curve" smooth="yes"/>
      <point x="239.0" y="1116.5"/>
      <point x="46.5" y="900.5"/>
      <point x="46.5" y="529.0" type="curve" smooth="yes"/>
      <point x="46.5" y="162.5"/>
      <point x="242.0" y="-6.0"/>
      <point x="444.0" y="-6.0" type="curve" smooth="yes"/>
      <point x="553.0" y="-6.0"/>
      <point x="637.0" y="38.0"/>
      <point x="689.0" y="119.5" type="curve"/>
      <point x="707.5" y="119.5" type="line"/>
      <point x="707.5" y="67.5" type="line" smooth="yes"/>
      <point x="707.5" y="-88.0"/>
      <point x="627.5" y="-148.5"/>
      <point x="448.5" y="-148.5" type="curve" smooth="yes"/>
      <point x="349.5" y="-148.5"/>
      <point x="238.5" y="-135.0"/>
      <point x="127.0" y="-107.0" type="curve"/>
      <point x="127.0" y="-422.0" type="line"/>
      <point x="244.5" y="-449.5"/>
      <point x="374.0" y="-460.0"/>
    </contour>
    <contour>
      <point x="615.5" y="323.5" type="curve" smooth="yes"/>
      <point x="510.0" y="323.5"/>
      <point x="456.5" y="373.0"/>
      <point x="456.5" y="563.5" type="curve" smooth="yes"/>
      <point x="456.5" y="754.5"/>
      <point x="522.0" y="814.0"/>
      <point x="636.5" y="814.0" type="curve" smooth="yes"/>
      <point x="661.5" y="814.0"/>
      <point x="686.5" y="811.0"/>
      <point x="707.5" y="807.5" type="curve"/>
      <point x="707.5" y="342.0" type="line"/>
      <point x="681.0" y="329.5"/>
      <point x="647.0" y="323.5"/>
    </contour>
    <contour>
      <point x="624.0" y="1212.0" type="curve" smooth="yes"/>
      <point x="777.5" y="1212.0"/>
      <point x="842.0" y="1262.0"/>
      <point x="842.0" y="1345.0" type="curve" smooth="yes"/>
      <point x="842.0" y="1427.0"/>
      <point x="780.0" y="1479.0"/>
      <point x="624.0" y="1479.0" type="curve" smooth="yes"/>
      <point x="596.0" y="1479.0" type="line"/>
      <point x="678.5" y="1401.0" type="line"/>
      <point x="678.5" y="1475.0"/>
      <point x="696.5" y="1529.5"/>
      <point x="749.0" y="1625.0" type="curve"/>
      <point x="496.0" y="1625.0" type="line"/>
      <point x="445.5" y="1565.0"/>
      <point x="406.0" y="1467.5"/>
      <point x="406.0" y="1387.0" type="curve" smooth="yes"/>
      <point x="406.0" y="1276.5"/>
      <point x="470.5" y="1212.0"/>
    </contour>
  </outline>
</glyph>
<glyph name="Hcircumflex" format="2">
  <advance width="1473.0"/>
  <unicode hex="0124"/>
  <anchor x="737.5" y="1520.0" name="_top"/>
  <anchor x="737.5" y="0.0" name="bottom"/>
  <anchor x="737.5" y="1205.5" name="center"/>
  <anchor x="737.5" y="1520.0" name="top"/>
  <anchor x="32.0" y="1480.0" name="topleft"/>
  <outline>
    <contour>
      <point x="98.5" y="0.0" type="line"/>
      <point x="511.5" y="0.0" type="line"/>
      <point x="511.5" y="570.5" type="line"/>
      <point x="961.5" y="570.5" type="line"/>
      <point x="961.5" y="0.0" type="line"/>
      <point x="1374.5" y="0.0" type="line"/>
      <point x="1374.5" y="1480.0" type="line"/>
      <point x="961.5" y="1480.0" type="line"/>
      <point x="961.5" y="939.5" type="line"/>
      <point x="511.5" y="939.5" type="line"/>
      <point x="511.5" y="1480.0" type="line"/>
      <point x="98.5" y="1480.0" type="line"/>
    </contour>
    <contour>
      <point x="341.0" y="1586.0" type="line"/>
      <point x="624.0" y="1586.0" type="line"/>
      <point x="763.5" y="1797.5" type="line"/>
      <point x="711.5" y="1797.5" type="line"/>
      <point x="851.0" y="1586.0" type="line"/>
      <point x="1134.0" y="1586.0" type="line"/>
      <point x="907.0" y="1902.0" type="line"/>
      <point x="568.0" y="1902.0" type="line"/>
    </contour>
  </outline>
</glyph>
<glyph name="hcircumflex" format="2">
  <advance width="1189.0"/>
  <unicode hex="0125"/>
  <anchor x="598.0" y="1616.0" name="_top"/>
  <anchor x="598.0" y="0.0" name="bottom"/>
  <anchor x="598.0" y="550.0" name="center"/>
  <anchor x="87.5" y="1350.0" name="stroke"/>
  <anchor x="598.0" y="1616.0" name="top"/>
  <outline>
    <contour>
      <point x="87.5" y="0.0" type="line"/>
      <point x="493.0" y="0.0" type="line"/>
      <point x="493.0" y="719.5" type="line"/>
      <point x="519.5" y="747.0"/>
      <point x="566.0" y="765.5"/>
      <point x="609.0" y="765.5" type="curve" smooth="yes"/>
      <point x="665.5" y="765.5"/>
      <point x="701.0" y="738.5"/>
      <point x="701.0" y="649.5" type="curve" smooth="yes"/>
      <point x="701.0" y="0.0" type="line"/>
      <point x="1106.5" y="0.0" type="line"/>
      <point x="1106.5" y="683.0" type="line" smooth="yes"/>
      <point x="1106.5" y="999.5"/>
      <point x="955.0" y="1118.0"/>
      <point x="775.0" y="1118.0" type="curve" smooth="yes"/>
      <point x="651.0" y="1118.0"/>
      <point x="568.5" y="1071.0"/>
      <point x="511.5" y="992.5" type="curve"/>
      <point x="493.0" y="992.5" type="line"/>
      <point x="493.0" y="1616.0" type="line"/>
      <point x="87.5" y="1616.0" type="line"/>
    </contour>
    <contour>
      <point x="201.5" y="1682.0" type="line"/>
      <point x="484.5" y="1682.0" type="line"/>
      <point x="624.0" y="1893.5" type="line"/>
      <point x="572.0" y="1893.5" type="line"/>
      <point x="711.5" y="1682.0" type="line"/>
      <point x="994.5" y="1682.0" type="line"/>
      <point x="767.5" y="1998.0" type="line"/>
      <point x="428.5" y="1998.0" type="line"/>
    </contour>
  </outline>
</glyph>
<glyph name="Hbar" format="2">
  <advance width="1473.0"/>
  <unicode hex="0126"/>
  <anchor x="737.5" y="1205.5" name="_center"/>
  <anchor x="737.5" y="0.0" name="bottom"/>
  <anchor x="737.5" y="1205.5" name="center"/>
  <anchor x="737.5" y="1520.0" name="top"/>
  <anchor x="32.0" y="1480.0" name="topleft"/>
  <outline>
    <contour>
      <point x="98.5" y="0.0" type="line"/>
      <point x="511.5" y="0.0" type="line"/>
      <point x="511.5" y="570.5" type="line"/>
      <point x="961.5" y="570.5" type="line"/>
      <point x="961.5" y="0.0" type="line"/>
      <point x="1374.5" y="0.0" type="line"/>
      <point x="1374.5" y="1480.0" type="line"/>
      <point x="961.5" y="1480.0" type="line"/>
      <point x="961.5" y="939.5" type="line"/>
      <point x="511.5" y="939.5" type="line"/>
      <point x="511.5" y="1480.0" type="line"/>
      <point x="98.5" y="1480.0" type="line"/>
    </contour>
    <contour>
      <point x="2.0" y="1080.5" type="line"/>
      <point x="1471.0" y="1080.5" type="line"/>
      <point x="1471.0" y="1330.5" type="line"/>
      <point x="2.0" y="1330.5" type="line"/>
    </contour>
  </outline>
</glyph>
<glyph name="hbar" format="2">
  <advance width="1189.0"/>
  <unicode hex="0127"/>
  <anchor x="87.5" y="1350.0" name="_stroke"/>
  <anchor x="598.0" y="0.0" name="bottom"/>
  <anchor x="598.0" y="550.0" name="center"/>
  <anchor x="87.5" y="1350.0" name="stroke"/>
  <anchor x="598.0" y="1616.0" name="top"/>
  <outline>
    <contour>
      <point x="87.5" y="0.0" type="line"/>
      <point x="493.0" y="0.0" type="line"/>
      <point x="493.0" y="719.5" type="line"/>
      <point x="519.5" y="747.0"/>
      <point x="566.0" y="765.5"/>
      <point x="609.0" y="765.5" type="curve" smooth="yes"/>
      <point x="665.5" y="765.5"/>
      <point x="701.0" y="738.5"/>
      <point x="701.0" y="649.5" type="curve" smooth="yes"/>
      <point x="701.0" y="0.0" type="line"/>
      <point x="1106.5" y="0.0" type="line"/>
      <point x="1106.5" y="683.0" type="line" smooth="yes"/>
      <point x="1106.5" y="999.5"/>
      <point x="955.0" y="1118.0"/>
      <point x="775.0" y="1118.0" type="curve" smooth="yes"/>
      <point x="651.0" y="1118.0"/>
      <point x="568.5" y="1071.0"/>
      <point x="511.5" y="992.5" type="curve"/>
      <point x="493.0" y="992.5" type="line"/>
      <point x="493.0" y="1616.0" type="line"/>
      <point x="87.5" y="1616.0" type="line"/>
    </contour>
    <contour>
      <point x="0.5" y="1220.0" type="line"/>
      <point x="771.0" y="1220.0" type="line"/>
      <point x="771.0" y="1480.0" type="line"/>
      <point x="0.5" y="1480.0" type="line"/>
    </contour>
  </outline>
</glyph>
<glyph name="Itilde" format="2">
  <advance width="610.0"/>
  <unicode hex="0128"/>
  <anchor x="305.0" y="1520.0" name="_top"/>
  <anchor x="304.5" y="0.0" name="bottom"/>
  <anchor x="511.5" y="0.0" name="ogonek"/>
  <anchor x="305.0" y="1520.0" name="top"/>
  <outline>
    <contour>
      <point x="98.5" y="0.0" type="line"/>
      <point x="511.5" y="0.0" type="line"/>
      <point x="511.5" y="1480.0" type="line"/>
      <point x="98.5" y="1480.0" type="line"/>
    </contour>
    <contour>
      <point x="482.0" y="1586.0" type="curve" smooth="yes"/>
      <point x="578.0" y="1586.0"/>
      <point x="641.0" y="1608.0"/>
      <point x="698.0" y="1661.5" type="curve"/>
      <point x="698.0" y="1895.0" type="line"/>
      <point x="632.5" y="1846.5"/>
      <point x="574.5" y="1822.0"/>
      <point x="488.0" y="1822.0" type="curve" smooth="yes"/>
      <point x="366.5" y="1822.0"/>
      <point x="271.5" y="1902.0"/>
      <point x="128.0" y="1902.0" type="curve" smooth="yes"/>
      <point x="32.0" y="1902.0"/>
      <point x="-31.0" y="1878.0"/>
      <point x="-88.0" y="1824.5" type="curve"/>
      <point x="-88.0" y="1591.0" type="line"/>
      <point x="-22.5" y="1639.5"/>
      <point x="35.5" y="1664.0"/>
      <point x="122.0" y="1664.0" type="curve" smooth="yes"/>
      <point x="243.5" y="1664.0"/>
      <point x="338.5" y="1586.0"/>
    </contour>
  </outline>
</glyph>
<glyph name="itilde" format="2">
  <advance width="582.0"/>
  <unicode hex="0129"/>
  <anchor x="291.0" y="1200.0" name="_top"/>
  <anchor x="291.0" y="0.0" name="bottom"/>
  <anchor x="494.5" y="0.0" name="ogonek"/>
  <anchor x="291.0" y="1200.0" name="top"/>
  <outline>
    <contour>
      <point x="87.5" y="0.0" type="line"/>
      <point x="494.5" y="0.0" type="line"/>
      <point x="494.5" y="1100.0" type="line"/>
      <point x="87.5" y="1100.0" type="line"/>
    </contour>
    <contour>
      <point x="454.0" y="1247.5" type="curve" smooth="yes"/>
      <point x="542.0" y="1247.5"/>
      <point x="605.0" y="1272.0"/>
      <point x="662.0" y="1330.5" type="curve"/>
      <point x="662.0" y="1583.5" type="line"/>
      <point x="596.5" y="1520.5"/>
      <point x="538.5" y="1493.0"/>
      <point x="460.0" y="1493.0" type="curve" smooth="yes"/>
      <point x="352.5" y="1493.0"/>
      <point x="257.5" y="1590.5"/>
      <point x="128.0" y="1590.5" type="curve" smooth="yes"/>
      <point x="40.0" y="1590.5"/>
      <point x="-23.0" y="1566.0"/>
      <point x="-80.0" y="1507.5" type="curve"/>
      <point x="-80.0" y="1254.5" type="line"/>
      <point x="-14.5" y="1317.5"/>
      <point x="43.5" y="1345.0"/>
      <point x="122.0" y="1345.0" type="curve" smooth="yes"/>
      <point x="229.5" y="1345.0"/>
      <point x="324.5" y="1247.5"/>
    </contour>
  </outline>
</glyph>
<glyph name="Imacron" format="2">
  <advance width="610.0"/>
  <unicode hex="012A"/>
  <anchor x="305.0" y="1520.0" name="_top"/>
  <anchor x="304.5" y="0.0" name="bottom"/>
  <anchor x="511.5" y="0.0" name="ogonek"/>
  <anchor x="305.0" y="1520.0" name="top"/>
  <outline>
    <contour>
      <point x="98.5" y="0.0" type="line"/>
      <point x="511.5" y="0.0" type="line"/>
      <point x="511.5" y="1480.0" type="line"/>
      <point x="98.5" y="1480.0" type="line"/>
    </contour>
    <contour>
      <point x="-88.0" y="1621.5" type="line"/>
      <point x="698.0" y="1621.5" type="line"/>
      <point x="698.0" y="1868.5" type="line"/>
      <point x="-88.0" y="1868.5" type="line"/>
    </contour>
  </outline>
</glyph>
<glyph name="imacron" format="2">
  <advance width="582.0"/>
  <unicode hex="012B"/>
  <anchor x="291.0" y="1200.0" name="_top"/>
  <anchor x="291.0" y="0.0" name="bottom"/>
  <anchor x="494.5" y="0.0" name="ogonek"/>
  <anchor x="291.0" y="1200.0" name="top"/>
  <outline>
    <contour>
      <point x="87.5" y="0.0" type="line"/>
      <point x="494.5" y="0.0" type="line"/>
      <point x="494.5" y="1100.0" type="line"/>
      <point x="87.5" y="1100.0" type="line"/>
    </contour>
    <contour>
      <point x="-80.0" y="1295.5" type="line"/>
      <point x="662.0" y="1295.5" type="line"/>
      <point x="662.0" y="1542.5" type="line"/>
      <point x="-80.0" y="1542.5" type="line"/>
    </contour>
  </outline>
</glyph>
<glyph name="Ibreve" format="2">
  <advance width="610.0"/>
  <unicode hex="012C"/>
  <anchor x="305.0" y="1520.0" name="_top"/>
  <anchor x="304.5" y="0.0" name="bottom"/>
  <anchor x="511.5" y="0.0" name="ogonek"/>
  <anchor x="305.0" y="1520.0" name="top"/>
  <outline>
    <contour>
      <point x="98.5" y="0.0" type="line"/>
      <point x="511.5" y="0.0" type="line"/>
      <point x="511.5" y="1480.0" type="line"/>
      <point x="98.5" y="1480.0" type="line"/>
    </contour>
    <contour>
      <point x="305.0" y="1586.0" type="curve" smooth="yes"/>
      <point x="543.5" y="1586.0"/>
      <point x="678.0" y="1705.0"/>
      <point x="700.5" y="1902.0" type="curve"/>
      <point x="458.0" y="1902.0" type="line"/>
      <point x="444.0" y="1816.0"/>
      <point x="395.5" y="1777.5"/>
      <point x="305.0" y="1777.5" type="curve" smooth="yes"/>
      <point x="214.5" y="1777.5"/>
      <point x="166.0" y="1816.0"/>
      <point x="152.0" y="1902.0" type="curve"/>
      <point x="-90.5" y="1902.0" type="line"/>
      <point x="-68.0" y="1705.0"/>
      <point x="66.5" y="1586.0"/>
    </contour>
  </outline>
</glyph>
<glyph name="ibreve" format="2">
  <advance width="582.0"/>
  <unicode hex="012D"/>
  <anchor x="291.0" y="1200.0" name="_top"/>
  <anchor x="291.0" y="0.0" name="bottom"/>
  <anchor x="494.5" y="0.0" name="ogonek"/>
  <anchor x="291.0" y="1200.0" name="top"/>
  <outline>
    <contour>
      <point x="87.5" y="0.0" type="line"/>
      <point x="494.5" y="0.0" type="line"/>
      <point x="494.5" y="1100.0" type="line"/>
      <point x="87.5" y="1100.0" type="line"/>
    </contour>
    <contour>
      <point x="291.0" y="1230.0" type="curve" smooth="yes"/>
      <point x="513.5" y="1230.0"/>
      <point x="657.5" y="1345.0"/>
      <point x="671.5" y="1596.0" type="curve"/>
      <point x="430.0" y="1596.0" type="line"/>
      <point x="422.5" y="1480.0"/>
      <point x="374.0" y="1431.5"/>
      <point x="291.0" y="1431.5" type="curve" smooth="yes"/>
      <point x="208.0" y="1431.5"/>
      <point x="159.5" y="1480.0"/>
      <point x="152.0" y="1596.0" type="curve"/>
      <point x="-89.5" y="1596.0" type="line"/>
      <point x="-75.5" y="1345.0"/>
      <point x="68.5" y="1230.0"/>
    </contour>
  </outline>
</glyph>
<glyph name="Iogonek" format="2">
  <advance width="610.0"/>
  <unicode hex="012E"/>
  <anchor x="511.5" y="0.0" name="_ogonek"/>
  <anchor x="304.5" y="0.0" name="bottom"/>
  <anchor x="511.5" y="0.0" name="ogonek"/>
  <anchor x="305.0" y="1520.0" name="top"/>
  <outline>
    <contour>
      <point x="98.5" y="0.0" type="line"/>
      <point x="511.5" y="0.0" type="line"/>
      <point x="511.5" y="1480.0" type="line"/>
      <point x="98.5" y="1480.0" type="line"/>
    </contour>
    <contour>
      <point x="341.5" y="-460.0" type="curve" smooth="yes"/>
      <point x="418.0" y="-460.0"/>
      <point x="475.5" y="-448.0"/>
      <point x="529.0" y="-430.0" type="curve"/>
      <point x="529.0" y="-277.5" type="line"/>
      <point x="479.0" y="-295.5"/>
      <point x="435.0" y="-303.0"/>
      <point x="398.5" y="-303.0" type="curve" smooth="yes"/>
      <point x="303.5" y="-303.0"/>
      <point x="265.5" y="-268.0"/>
      <point x="265.5" y="-211.0" type="curve" smooth="yes"/>
      <point x="265.5" y="-138.5"/>
      <point x="309.5" y="-69.0"/>
      <point x="511.5" y="0.0" type="curve"/>
      <point x="399.5" y="84.0" type="line"/>
      <point x="127.5" y="-2.5"/>
      <point x="39.5" y="-104.0"/>
      <point x="39.5" y="-237.0" type="curve" smooth="yes"/>
      <point x="39.5" y="-373.0"/>
      <point x="135.0" y="-460.0"/>
    </contour>
  </outline>
</glyph>
<glyph name="iogonek" format="2">
  <advance width="582.0"/>
  <unicode hex="012F"/>
  <anchor x="291.0" y="1200.0" name="_top"/>
  <anchor x="291.0" y="0.0" name="bottom"/>
  <anchor x="494.5" y="0.0" name="ogonek"/>
  <anchor x="291.0" y="1200.0" name="top"/>
  <outline>
    <contour>
      <point x="87.5" y="0.0" type="line"/>
      <point x="494.5" y="0.0" type="line"/>
      <point x="494.5" y="1100.0" type="line"/>
      <point x="87.5" y="1100.0" type="line"/>
    </contour>
    <contour>
      <point x="291.0" y="1209.0" type="curve" smooth="yes"/>
      <point x="460.0" y="1209.0"/>
      <point x="535.0" y="1286.0"/>
      <point x="535.0" y="1418.0" type="curve" smooth="yes"/>
      <point x="535.0" y="1550.0"/>
      <point x="460.0" y="1627.0"/>
      <point x="291.0" y="1627.0" type="curve" smooth="yes"/>
      <point x="122.0" y="1627.0"/>
      <point x="47.0" y="1550.0"/>
      <point x="47.0" y="1418.0" type="curve" smooth="yes"/>
      <point x="47.0" y="1286.0"/>
      <point x="122.0" y="1209.0"/>
    </contour>
    <contour>
      <point x="324.5" y="-460.0" type="curve" smooth="yes"/>
      <point x="401.0" y="-460.0"/>
      <point x="451.5" y="-446.5"/>
      <point x="499.5" y="-430.0" type="curve"/>
      <point x="499.5" y="-277.5" type="line"/>
      <point x="452.5" y="-295.5"/>
      <point x="413.5" y="-303.0"/>
      <point x="381.5" y="-303.0" type="curve" smooth="yes"/>
      <point x="306.0" y="-303.0"/>
      <point x="268.5" y="-268.0"/>
      <point x="268.5" y="-212.0" type="curve" smooth="yes"/>
      <point x="268.5" y="-138.5"/>
      <point x="310.0" y="-69.0"/>
      <point x="494.5" y="0.0" type="curve"/>
      <point x="382.5" y="84.0" type="line"/>
      <point x="120.5" y="-2.5"/>
      <point x="42.5" y="-104.0"/>
      <point x="42.5" y="-237.0" type="curve" smooth="yes"/>
      <point x="42.5" y="-373.0"/>
      <point x="137.0" y="-460.0"/>
    </contour>
  </outline>
</glyph>
<glyph name="Idotaccent" format="2">
  <advance width="610.0"/>
  <unicode hex="0130"/>
  <anchor x="305.0" y="1520.0" name="_top"/>
  <anchor x="304.5" y="0.0" name="bottom"/>
  <anchor x="511.5" y="0.0" name="ogonek"/>
  <anchor x="305.0" y="1520.0" name="top"/>
  <outline>
    <contour>
      <point x="98.5" y="0.0" type="line"/>
      <point x="511.5" y="0.0" type="line"/>
      <point x="511.5" y="1480.0" type="line"/>
      <point x="98.5" y="1480.0" type="line"/>
    </contour>
    <contour>
      <point x="305.0" y="1570.0" type="curve" smooth="yes"/>
      <point x="462.5" y="1570.0"/>
      <point x="549.0" y="1632.0"/>
      <point x="549.0" y="1750.0" type="curve" smooth="yes"/>
      <point x="549.0" y="1868.0"/>
      <point x="462.5" y="1930.0"/>
      <point x="305.0" y="1930.0" type="curve" smooth="yes"/>
      <point x="147.5" y="1930.0"/>
      <point x="61.0" y="1868.0"/>
      <point x="61.0" y="1750.0" type="curve" smooth="yes"/>
      <point x="61.0" y="1632.0"/>
      <point x="147.5" y="1570.0"/>
    </contour>
  </outline>
</glyph>
<glyph name="idotless" format="2">
  <advance width="582.0"/>
  <unicode hex="0131"/>
  <anchor x="291.0" y="0.0" name="bottom"/>
  <anchor x="494.5" y="0.0" name="ogonek"/>
  <anchor x="291.0" y="1200.0" name="top"/>
  <outline>
    <contour>
      <point x="87.5" y="0.0" type="line"/>
      <point x="494.5" y="0.0" type="line"/>
      <point x="494.5" y="1100.0" type="line"/>
      <point x="87.5" y="1100.0" type="line"/>
    </contour>
  </outline>
</glyph>
<glyph name="Jcircumflex" format="2">
  <advance width="610.0"/>
  <unicode hex="0134"/>
  <anchor x="305.5" y="1520.0" name="_top"/>
  <anchor x="511.5" y="0.0" name="bottom"/>
  <anchor x="305.5" y="1520.0" name="top"/>
  <outline>
    <contour>
      <point x="224.5" y="-352.0" type="line"/>
      <point x="438.5" y="-134.0"/>
      <point x="511.5" y="71.0"/>
      <point x="511.5" y="321.0" type="curve"/>
      <point x="511.5" y="1480.0" type="line"/>
      <point x="99.5" y="1480.0" type="line"/>
      <point x="99.5" y="305.0" type="line" smooth="yes"/>
      <point x="99.5" y="99.0"/>
      <point x="68.0" y="-27.0"/>
      <point x="-40.5" y="-177.0" type="curve"/>
    </contour>
    <contour>
      <point x="-91.0" y="1586.0" type="line"/>
      <point x="192.0" y="1586.0" type="line"/>
      <point x="331.5" y="1797.5" type="line"/>
      <point x="279.5" y="1797.5" type="line"/>
      <point x="419.0" y="1586.0" type="line"/>
      <point x="702.0" y="1586.0" type="line"/>
      <point x="475.0" y="1902.0" type="line"/>
      <point x="136.0" y="1902.0" type="line"/>
    </contour>
  </outline>
</glyph>
<glyph name="jcircumflex" format="2">
  <advance width="582.0"/>
  <unicode hex="0135"/>
  <anchor x="288.5" y="1200.0" name="_top"/>
  <anchor x="288.5" y="1200.0" name="top"/>
  <outline>
    <contour>
      <point x="211.5" y="-476.0" type="line"/>
      <point x="423.0" y="-258.0"/>
      <point x="494.5" y="-54.0"/>
      <point x="494.5" y="196.0" type="curve" smooth="yes"/>
      <point x="494.5" y="1100.0" type="line"/>
      <point x="87.5" y="1100.0" type="line"/>
      <point x="87.5" y="180.0" type="line" smooth="yes"/>
      <point x="87.5" y="-26.0"/>
      <point x="56.0" y="-152.0"/>
      <point x="-52.5" y="-302.0" type="curve"/>
    </contour>
    <contour>
      <point x="-93.0" y="1220.0" type="line"/>
      <point x="182.5" y="1220.0" type="line"/>
      <point x="313.5" y="1483.0" type="line"/>
      <point x="263.5" y="1483.0" type="line"/>
      <point x="394.5" y="1220.0" type="line"/>
      <point x="670.0" y="1220.0" type="line"/>
      <point x="454.5" y="1616.0" type="line"/>
      <point x="122.5" y="1616.0" type="line"/>
    </contour>
  </outline>
</glyph>
